<svg xmlns="http://www.w3.org/2000/svg" viewBox="0 0 120 320" fill="none">
  <defs>
    <linearGradient id="field" x1="60" y1="0" x2="60" y2="320" gradientUnits="userSpaceOnUse">
      <stop stop-color="#7E2F25"/>
      <stop offset=".48" stop-color="#6E241D"/>
      <stop offset="1" stop-color="#5C1915"/>
    </linearGradient>
    <linearGradient id="stripe" x1="0" y1="0" x2="0" y2="320" gradientUnits="userSpaceOnUse">
      <stop stop-color="#F3D99F"/>
      <stop offset=".5" stop-color="#CF9543"/>
      <stop offset="1" stop-color="#F0D494"/>
    </linearGradient>
    <linearGradient id="petal" x1="60" y1="28" x2="60" y2="92" gradientUnits="userSpaceOnUse">
      <stop stop-color="#F7E7B7"/>
      <stop offset="1" stop-color="#D4A04E"/>
    </linearGradient>
    <radialGradient id="core" cx="0" cy="0" r="1" gradientUnits="userSpaceOnUse" gradientTransform="translate(60 60) rotate(90) scale(28)">
      <stop stop-color="#F8E8BF"/>
      <stop offset="1" stop-color="#C78339"/>
    </radialGradient>
    <symbol id="rosette" viewBox="-18 -18 36 36">
      <circle r="15" stroke="#F5E4B7" stroke-width="1.6" opacity=".85"/>
      <circle r="10.2" stroke="#D99C43" stroke-width="1.2" opacity=".88"/>
      <g fill="#F5E4B7">
        <ellipse rx="2" ry="7.2"/>
        <ellipse rx="2" ry="7.2" transform="rotate(45)"/>
        <ellipse rx="2" ry="7.2" transform="rotate(90)"/>
        <ellipse rx="2" ry="7.2" transform="rotate(135)"/>
      </g>
      <circle r="4.2" fill="#F4D28A" stroke="#7E2F25" stroke-width="1.4"/>
      <circle r="1.8" fill="#7E2F25"/>
    </symbol>
    <symbol id="bud" viewBox="-12 -16 24 32">
      <path d="M0-12C5-12 9-7 9-1c0 6-4 10-9 13C-5 9-9 5-9-1c0-6 4-11 9-11Z" fill="#F0D18F" stroke="#F6E7C1" stroke-width="1.4"/>
      <path d="M0-7c2.6 0 4.6 2 4.6 5 0 2.5-1.8 4.7-4.6 6.7-2.8-2-4.6-4.2-4.6-6.7 0-3 2-5 4.6-5Z" fill="#7D2B20" opacity=".9"/>
      <path d="M0-9V8M-5-1c2.3 1.2 7.7 1.2 10 0M-4 5c1.8-1 6.2-1 8 0" stroke="#F7EACC" stroke-width="1.2" stroke-linecap="round"/>
    </symbol>
    <symbol id="medallion" viewBox="0 0 120 120">
      <g opacity=".24">
        <path d="M60 7 70 24 89 18 92 37 111 40 102 57 116 70 101 81 110 99 91 101 88 120 69 112 60 129 50 112 31 120 28 101 9 99 18 81 3 70 17 57 8 40 27 37 30 18 49 24Z" fill="#C9863D"/>
      </g>
      <path d="M60 14 69 29 86 23 89 40 106 44 97 59 109 70 97 81 106 96 89 100 86 117 69 111 60 126 51 111 34 117 31 100 14 96 23 81 11 70 23 59 14 44 31 40 34 23 51 29Z" fill="url(#core)" stroke="#F7ECC8" stroke-width="2.2" stroke-linejoin="round"/>
      <path d="M60 23 67 35 80 31 82 44 95 47 88 59 98 70 88 81 95 93 82 96 80 109 67 105 60 117 53 105 40 109 38 96 25 93 32 81 22 70 32 59 25 47 38 44 40 31 53 35Z" fill="#7A2B22" stroke="#F4D997" stroke-width="1.8" stroke-linejoin="round"/>
      <circle cx="60" cy="70" r="21" fill="#6E241D" stroke="#F6E6BB" stroke-width="2"/>
      <circle cx="60" cy="70" r="14" fill="none" stroke="#D89B43" stroke-width="1.8" stroke-dasharray="1 5" stroke-linecap="round"/>
      <g fill="#F4E3B3">
        <ellipse cx="60" cy="50" rx="3.1" ry="7.5"/>
        <ellipse cx="60" cy="90" rx="3.1" ry="7.5"/>
        <ellipse cx="40" cy="70" rx="7.5" ry="3.1"/>
        <ellipse cx="80" cy="70" rx="7.5" ry="3.1"/>
        <ellipse cx="46" cy="56" rx="2.8" ry="6.8" transform="rotate(-45 46 56)"/>
        <ellipse cx="74" cy="84" rx="2.8" ry="6.8" transform="rotate(-45 74 84)"/>
        <ellipse cx="74" cy="56" rx="2.8" ry="6.8" transform="rotate(45 74 56)"/>
        <ellipse cx="46" cy="84" rx="2.8" ry="6.8" transform="rotate(45 46 84)"/>
      </g>
      <circle cx="60" cy="70" r="7.6" fill="#D39A47" stroke="#F7ECC8" stroke-width="1.6"/>
      <circle cx="60" cy="70" r="2.2" fill="#7A2B22"/>
      <path d="M60 30c6 4 8 9 8 14-4 1-10 1-16 0 0-5 2-10 8-14ZM60 110c6-4 8-9 8-14-4-1-10-1-16 0 0 5 2 10 8 14ZM20 70c4-6 9-8 14-8 1 4 1 10 0 16-5 0-10-2-14-8ZM100 70c-4-6-9-8-14-8-1 4-1 10 0 16 5 0 10-2 14-8Z" fill="#8F3E2E" opacity=".75"/>
      <path d="M60 17V123M7 70h106" stroke="#F5E4B7" stroke-width="1" opacity=".22"/>
      <path d="M60 37c4.5 4.2 6.5 7.8 6 11.1-3.8 1.2-8.2 1.2-12 0-.5-3.3 1.5-6.9 6-11.1ZM60 103c4.5-4.2 6.5-7.8 6-11.1-3.8-1.2-8.2-1.2-12 0-.5 3.3 1.5 6.9 6 11.1Z" fill="#F7E9C6" opacity=".74"/>
    </symbol>
    <symbol id="vine" viewBox="0 0 20 112">
      <path d="M10 3c-1 12-1 22-5 31C1 41 4 47 10 52c6 5 9 11 5 18-4 7-4 17-5 39" stroke="#F5E3B7" stroke-width="1.6" stroke-linecap="round"/>
      <path d="M9 18c-4-1-7 1-8 5 4 2 8 .9 10-2M11 34c4-1 7 1 8 5-4 2-8 .9-10-2M10 54c-5 .5-8 3-8 7 4 1 8-.7 10-4M10 74c5 .5 8 3 8 7-4 1-8-.7-10-4M9 93c-4.5-.5-7.5 2-8.5 6 4 1.2 7.8.2 10-3.2" fill="#D59544" stroke="#F6E9C7" stroke-width="1.2" stroke-linejoin="round"/>
      <path d="M11 18c4-1 7 1 8 5-4 2-8 .9-10-2M9 34c-4-1-7 1-8 5 4 2 8 .9 10-2M10 54c5 .5 8 3 8 7-4 1-8-.7-10-4M10 74c-5 .5-8 3-8 7 4 1 8-.7 10-4M11 93c4.5-.5 7.5 2 8.5 6-4 1.2-7.8.2-10-3.2" fill="#7E2F25" opacity=".76" stroke="#F6E9C7" stroke-width="1.2" stroke-linejoin="round"/>
    </symbol>
  </defs>

  <rect width="120" height="320" fill="#672019"/>
  <rect x="7" width="106" height="320" fill="url(#field)"/>
  <rect x="11" width="4" height="320" fill="#F2DEA8"/>
  <rect x="16" width="7" height="320" fill="url(#stripe)"/>
  <rect x="25" width="2" height="320" fill="#F5E8C3" opacity=".44"/>
  <rect x="93" width="2" height="320" fill="#F5E8C3" opacity=".44"/>
  <rect x="97" width="7" height="320" fill="url(#stripe)"/>
  <rect x="105" width="4" height="320" fill="#F2DEA8"/>

  <path d="M28 0h64v320H28Z" fill="#7B2C22" opacity=".18"/>
  <path d="M60 0v320" stroke="#F6E8C0" stroke-opacity=".18" stroke-width="1.2"/>
  <path d="M31 0v320M89 0v320" stroke="#D89B43" stroke-opacity=".22" stroke-width="1"/>

  <use href="#vine" x="29" y="6"/>
  <use href="#vine" x="71" y="6" transform="matrix(-1 0 0 1 120 0)"/>
  <use href="#medallion" x="0" y="0"/>
  <use href="#medallion" x="0" y="100" transform="translate(0 100) scale(.92)"/>
  <use href="#medallion" x="0" y="206" transform="translate(0 206) scale(.88)"/>

  <use href="#rosette" x="18" y="46"/>
  <use href="#rosette" x="102" y="46"/>
  <use href="#rosette" x="18" y="156" transform="scale(.84)"/>
  <use href="#rosette" x="102" y="156" transform="scale(.84)"/>
  <use href="#rosette" x="18" y="268" transform="scale(.92)"/>
  <use href="#rosette" x="102" y="268" transform="scale(.92)"/>

  <use href="#bud" x="20" y="104"/>
  <use href="#bud" x="100" y="104" transform="translate(100 104) scale(-1 1)"/>
  <use href="#bud" x="20" y="216"/>
  <use href="#bud" x="100" y="216" transform="translate(100 216) scale(-1 1)"/>

  <path d="M38 14c7 6 11 14 22 14s15-8 22-14" stroke="#F6E8C0" stroke-opacity=".32" stroke-width="1.5" stroke-linecap="round"/>
  <path d="M38 306c7-6 11-14 22-14s15 8 22 14" stroke="#F6E8C0" stroke-opacity=".32" stroke-width="1.5" stroke-linecap="round"/>
</svg>
