<?xml version="1.0" encoding="UTF-8" standalone="no"?>
<!-- Created with Inkscape (http://www.inkscape.org/) -->
<svg xmlns:inkscape="http://www.inkscape.org/namespaces/inkscape" xmlns:rdf="http://www.w3.org/1999/02/22-rdf-syntax-ns#" xmlns="http://www.w3.org/2000/svg" xmlns:xlink="http://www.w3.org/1999/xlink" xmlns:ns1="http://sozi.baierouge.fr" xmlns:cc="http://creativecommons.org/ns#" xmlns:dc="http://purl.org/dc/elements/1.1/" xmlns:sodipodi="http://sodipodi.sourceforge.net/DTD/sodipodi-0.dtd" id="svg3090" sodipodi:docname="New document 7" viewBox="0 0 810.07 681.25" version="1.1" inkscape:version="0.48.4 r9939">
  <sodipodi:namedview id="base" bordercolor="#666666" inkscape:pageshadow="2" inkscape:window-y="24" fit-margin-left="0" pagecolor="#ffffff" fit-margin-top="0" inkscape:window-maximized="0" inkscape:zoom="0.35" inkscape:window-x="981" inkscape:window-height="415" showgrid="false" borderopacity="1.0" inkscape:current-layer="layer1" inkscape:cx="440.03683" inkscape:cy="334.91907" fit-margin-right="0" fit-margin-bottom="0" inkscape:window-width="472" inkscape:pageopacity="0.0" inkscape:document-units="px"/>
  <g id="layer1" inkscape:label="Layer 1" inkscape:groupmode="layer" transform="translate(65.037 -186.03)">
    <path id="path3058" style="stroke:#000000;fill:#ffffff" inkscape:connector-curvature="0" d="m-64.524 860.45v-6.1364l2.5222 2.5222c3.0502 3.0501 8.3442 5.739 10.028 5.093 1.4123-0.54192 2.4503-4.9245 2.4503-10.345 0-4.3244 0.7657-5.1122 9.3119-9.5806 3.4035-1.7795 6.3315-3.9403 6.5068-4.8019 0.2056-1.0108-2.1054-3.1346-6.5151-5.9872l-6.8337-4.4207-0.1575-8.2261c-0.087-4.5244-0.6296-8.6981-1.2065-9.2751-0.732-0.73201-3.324 0.34111-8.5775 3.5512l-7.5284 4.6002v-15.206c0-13.588 0.198-15.376 1.8602-16.799 1.3734-1.1759 2.1802-4.1343 3.0826-11.304 1.3489-10.716 0.7927-17.489-2.0568-25.048-1.0367-2.75-1.8852-5.1125-1.8855-5.25 0-0.99002 7.1779 0.14841 13.402 2.125 15.113 4.7993 26.11 17.032 30.539 33.971 0.9716 3.7158 2.1949 6.249 3.1021 6.4237 0.9224 0.17765 2.7944-1.9316 4.8732-5.4908 1.8565-3.1786 5.4115-8.8219 7.9001-12.541l4.5247-6.7614 14.735 0.56776c9.6484 0.37176 14.955 0.21172 15.372-0.4636 0.3506-0.56725-1.104-2.9551-3.2324-5.3063s-6.0159-7.7564-8.6388-12.012c-11.184-18.143-27.235-26.754-46.834-25.123-10.408 0.86575-22.326 6.0666-30.876 13.473l-5.8692 5.0846v-24.391-24.391l4.25-4.0666c2.3375-2.2366 6.428-5.5298 9.09-7.3182 6.3639-4.2753 5.1125-5.5472-5.3953-5.4835l-7.9447 0.0481v-29.425-29.425l5.0846 0.48857c6.5398 0.62839 7.2688-0.96299 2.7752-6.0584-8.2824-9.3915-7.8598-8.0817-7.8598-24.359v-14.749l3.75 2.157c2.0625 1.1864 4.8232 2.9712 6.1349 3.9663 1.3116 0.99509 3.2241 1.8092 4.25 1.8092 2.0892 0 2.4144-2.1336 1.941-12.736-0.2641-5.9171-0.1445-6.2872 2.3373-7.2307 1.4386-0.54696 3.8788-1.9284 5.4226-3.0697 2.7397-2.0255 2.8837-2.032 6.0079-0.26926 2.5825 1.4571 3.5902 3.0571 5.2157 8.2814 2.5731 8.2698 5.604 13.398 12.176 20.603 5.5778 6.1146 15.292 11.528 23.264 12.964 2.2 0.39634 4.84 1.1553 5.8667 1.6866 1.3627 0.70521 2.2982 0.53442 3.4653-0.63266 1.4649-1.4649 1.4464-1.9961-0.221-6.3476-6.2807-16.392-5.8343-21.541 3.5203-40.619 2.1424-4.3692 5.1369-8.4642 8.226-11.249 7.4274-6.6962 6.4876-7.3807-10.135-7.3807-9.5573 0-14.332-0.38682-15.431-1.25-0.8747-0.6875-3.2776-4.4-5.3397-8.25-6.1616-11.503-11.629-20.5-12.459-20.5-1.0322 0-1.993 2.6154-1.993 5.4252 0 3.2668-3.5101 13.046-7.4027 20.625-1.8504 3.6025-3.9441 9.2275-4.6527 12.5s-2.2019 7.2721-3.3185 8.888l-2.0301 2.9381-1.2816-3.1409c-1.2181-2.9851-7.5206-8.2352-9.886-8.2352-1.5949 0-3.4812-4.6502-4.1389-10.203-0.5394-4.5549-2.2583-6.2743-3.7918-3.793-0.3411 0.55202-1.6758 0.73876-2.9658 0.41497-1.2901-0.32379-3.2875-0.0846-4.4388 0.53151-2.0803 1.1134-2.0931 1.0297-2.0931-13.669 0-13.439 0.2363-15.429 2.587-21.785 2.3413-6.3316 2.5357-7.945 2.0474-16.996-0.4999-9.2662-2.151-17.35-3.9014-19.1-0.40311-0.40317-0.73301-12.017-0.73301-25.809v-25.076l7.5652-7.3001c8.6284-8.3261 9.2857-10.736 2.9129-10.681-2.1879 0.0191-5.4406 0.39231-7.2281 0.82945l-3.25 0.7948v-31.022-31.022l4.25-0.3075c3.8545-0.27888 4.2806-0.57567 4.5791-3.189 0.261-2.2846-0.5677-3.7947-4-7.2898l-4.3291-4.4083-0.31881-15.96c-0.2644-13.238-0.078-15.96 1.095-15.96 0.7776 0 2.1309 0.7875 3.0073 1.75 2.0449 2.2458 10.462 6.838 11.193 6.1068 0.3065-0.30654 0.8412-4.8789 1.1881-10.161 0.6223-9.4736 0.67-9.617 3.5273-10.613 4.9941-1.741 8.808-5.0327 8.808-7.6021 0-1.8923-1.3325-3.1282-6.4718-6.0022l-6.4718-3.6192 0.1884-8.3797c0.1037-4.6088-0.1312-8.6995-0.522-9.0902-0.3908-0.39078-1.5362 0.0367-2.5454 0.95002-1.0092 0.9133-2.1171 1.6605-2.4621 1.6605s-2.8971 1.3383-5.6713 2.974l-5.044 2.9741 0.013-17.724c0.011-14.868 0.3331-18.746 2-24.063 1.0929-3.4865 1.9871-7.424 1.9871-8.75v-2.4109h18.4 18.4l1.1871 5.25c1.9197 8.4906 2.025 8.7052 5.0336 10.261 1.5837 0.81896 3.0596 1.489 3.2797 1.489 0.5178 0 6.6891-9.9174 6.7307-10.816 0.017-0.37595 1.1208-1.921 2.452-3.4336l2.4205-2.75h19.835c19.379 0 19.839 0.0478 19.992 2.0822 0.086 1.1452 1.2837 3.5596 2.6609 5.3652 5.0116 6.5706 16.104 6.319 15.486-0.35125-0.5152-5.5601 0.5783-6.576 7.3611-6.8387 7.1443-0.27675 11.101 0.38338 10.278 1.7148-0.3106 0.50249 1.1335 2.606 3.2091 4.6745 3.8462 3.8332 6.9098 11.117 5.3372 12.69-0.4864 0.48641-1.1565-0.0544-1.5315-1.2359-0.5073-1.5981-1.4901-2.1007-4.1079-2.1007-3.1422 0-3.337-0.16665-2.2427-1.9188 1.436-2.2994-0.1578-4.7415-4.0635-6.2265-3.8382-1.4593-5.2575 0.62732-4.0533 5.9593 1.1909 5.2732 0.5194 6.5528-3.0626 5.8363-1.6307-0.32613-3.5202 0.028-4.6288 0.86745-2.5031 1.8956-6.0168 1.8534-6.7591-0.0812-0.33-0.85986-1.0544-1.2826-1.6097-0.93931-0.6767 0.41818-0.679 1.2422-0.01 2.4976 0.5514 1.0305 1.0027 2.7177 1.0027 3.7493 0 2.4187-6.446 15.508-10.166 20.643-3.799 5.2445-2.4002 6.8608 3.2093 3.708 3.0552-1.7171 6.7-2.5128 14.686-3.2063 9.2383-0.80218 11.713-1.4381 18.989-4.8795 4.6101-2.1805 9.8592-5.5403 11.692-7.4835 1.8291-1.9395 3.8351-3.5264 4.4577-3.5264 0.6225 0 1.1319-0.81885 1.1319-1.8197s1.125-2.7978 2.5-3.9934c1.5475-1.3456 2.5-3.2344 2.5-4.9578 0-1.5313 0.7302-3.8266 1.6227-5.1009 0.8925-1.2742 1.8541-5.1994 2.1369-8.7225l0.5142-6.4058h19.74 19.74l1.8447 7.1123c1.0146 3.9118 2.3924 7.8493 3.0617 8.75 1.1084 1.4915 1.36 1.4969 2.8195 0.0605 0.8814-0.86743 2.3714-2.9663 3.3111-4.6641 0.9398-1.6978 2.7303-4.9256 3.9789-7.1728l2.2704-4.0859h22.434 22.434l5.546 9.2935c3.0502 5.1114 5.5459 10.112 5.5459 11.112 0 1.8289-3.1423 7.9569-10.933 21.322-2.3172 3.9749-3.9279 7.6884-3.5794 8.2522 0.8529 1.3801 8.5513 0.15551 10.689-1.7003 2.3235-2.0171 13.328-2.935 15.325-1.2782 1.2651 1.05 1.8801 0.96447 3.4806-0.48401 1.1018-0.99711 2.6525-1.4874 3.5794-1.1317 0.9945 0.3816 2.8029-0.35474 4.614-1.8787 1.6382-1.3785 4.0192-2.5063 5.2911-2.5063 1.5563 0 5.047-2.7044 10.673-8.2689 9.1903-9.0893 15-19.073 16.297-28.003l0.6928-4.7718 18.577 0.27183 18.577 0.27183 2.0967 6c1.1533 3.3 2.5277 6.3061 3.0544 6.6802 2.0866 1.4822 5.3166-1.9023 10.37-10.866 1.2999-2.3059 1.38-2.3141 22.677-2.3141h21.372l1.4157 2.75c0.7787 1.5125 3.2866 6.202 5.5733 10.421 4.4278 8.1698 5.2387 13.16 2.781 17.114-6.1713 9.9293-11.106 17.27-11.797 17.548-0.4547 0.18334-0.8268 1.1778-0.8268 2.2099 0 1.3514-1.1893 2.2148-4.25 3.0852-2.3375 0.66479-4.6348 1.5401-5.1051 1.9452-0.4703 0.40507-2.3683 0.10421-4.2178-0.66858-1.8496-0.77279-6.8648-1.4583-11.145-1.5234-12.005-0.18252-13.235-0.65545-15.3-5.8817-2.1245-5.3764-8.5383-16.911-10.542-18.957-1.8858-1.9267-2.8888-0.69687-4.3511 5.3349-0.6504 2.6828-3.3478 10.108-5.9942 16.5-6.6603 16.087-7.3237 19.301-6.1384 29.732 1.2302 10.827 3.7226 16.098 11.483 24.284 4.5788 4.83 7.8856 7.2316 13.525 9.8225 8.4724 3.8925 15.586 5.1306 18.994 3.3063 1.8338-0.98146 2.9851-0.93235 5.9092 0.25212 1.9975 0.80907 6.5869 2.1918 10.199 3.0727 17.586 4.2888 27.702 13.271 34.047 30.228 3.2489 8.6836 6.0191 9.2706 9.4602 2.0048 2.4639-5.2027 8.9682-16.522 10.204-17.758 0.643-0.643 5.2499-1.4634 10.238-1.8232 6.3208-0.45592 9.5568-1.1425 10.68-2.2661 2.5256-2.5256 1.8279-7.3503-1.6668-11.526-4.2162-5.0376-13.026-15.054-15.779-17.939-1.2375-1.2971-2.25-2.4923-2.25-2.6559 0-0.43347 13.203-8.1639 15.159-8.8754 0.9574-0.34835 3.4943 0.55947 6 2.1471 3.5621 2.257 9.9839 5.1167 11.49 5.1167 0.193 0 0.3508-3.6296 0.3508-8.0657 0-4.4362 0.4345-8.8776 0.9655-9.8699 0.5311-0.99227 3.5686-2.8305 6.75-4.0849 3.1815-1.2544 6.3635-2.8081 7.0712-3.4526 1.609-1.4652 0.618-4.2636-1.7793-5.0245-0.9943-0.31558-4.5127-2.322-7.8185-4.4587l-6.0107-3.8848 0.5522-8.0566c0.7048-10.282-0.2748-10.844-8.799-5.0557l-6.1998 4.2102-5.1158-2.0388c-5.5182-2.1992-11.342-2.6904-13.238-1.1167-0.7823 0.6492-1.0015 2.9594-0.6494 6.8428l0.5317 5.8627-5.3802 3.4445c-2.959 1.8945-6.6455 4.2166-8.1922 5.1604-3.5513 2.1669-3.1194 3.4437 1.8582 5.4925 2.1747 0.8951 5.5261 2.6272 7.4478 3.8491 3.4916 2.2202 3.4936 2.2259 3.1899 8.9842-0.2401 5.3431-0.7344 7.1299-2.3546 8.5126-2.5244 2.1542-6.9203 2.2114-12.793 0.16659-5.5663-1.938-18.449-1.2381-25.036 1.3601-7.2749 2.8697-14.616 7.9865-19.363 13.496-3.6324 4.2162-4.6917 4.9272-5.8763 3.944-0.7948-0.65963-1.6798-0.96459-1.9667-0.67769-0.2869 0.28689-0.5217-1.3657-0.5217-3.6724 0-2.6878-0.5737-4.6136-1.5976-5.3623-4.1652-3.0456-2.6989-20.244 2.5155-29.504 4.7195-8.3818 10.929-15.846 14.102-16.952 1.5685-0.54677 4.6972-2.4557 6.9527-4.2421 2.7261-2.1591 4.9829-3.1555 6.7315-2.9721 1.4469 0.15176 4.6315-0.38681 7.0769-1.1968 2.4455-0.81002 7.5963-1.9528 11.446-2.5396 8.2783-1.2617 17.397-4.4964 19.5-6.9176 0.825-0.94971 3.6565-2.9837 6.2922-4.52 4.5782-2.6686 10.708-9.6264 10.708-12.155 0-0.65724 0.9114-2.0197 2.0252-3.0278 2.4861-2.2498 6.3822-14.618 5.4901-17.429-0.6395-2.0151-0.3436-2.0483 18.243-2.0483 18.456 0 18.943 0.0536 21.067 2.3144 1.1959 1.273 2.1743 2.8621 2.1743 3.5316 0 0.6694 0.8975 3.8814 1.9945 7.1377 1.9646 5.8319 1.9661 5.97 0.095 9.2184-3.5478 6.1588-10.695 32.232-11.661 42.541-0.2244 2.393-0.9047 5.2791-1.5119 6.4136-0.8526 1.5932-0.7053 3.1192 0.647 6.703 5.0499 13.383 15.984 26.162 26.663 31.159 10.916 5.1084 19.774 5.6985 19.774 1.3173 0-0.87661-1.1709-4.7983-2.6021-8.7148-2.2822-6.2456-2.5375-8.1659-2.0768-15.621 0.3358-5.433 1.2916-10.283 2.6489-13.442 2.1128-4.9172 10.96-16.142 15.598-19.79 1.3376-1.0522 2.4321-2.4076 2.4321-3.0118 0-0.60427 0.7472-1.9244 1.6605-2.9336 2.4761-2.736 1.0367-3.2423-5.3857-1.8944-9.0147 1.892-21.569 2.8898-23.563 1.8729-0.9832-0.50152-2.6593-0.63525-3.7245-0.29717-1.5402 0.48887-2.656-0.50973-5.4506-4.8784-1.9326-3.0212-3.9336-5.7525-4.4467-6.0696-1.7857-1.1036-4.5113-9.6777-3.3121-10.419 0.7245-0.44779 0.7892-1.2068 0.1842-2.1634-1.8151-2.8703-0.9158-7.602 2.8494-14.992l3.8118-7.4816 24.305-0.26804c23.261-0.25653 24.375-0.18216 25.938 1.7308 3.6807 4.5054 5.6862 7.6894 6.6347 10.533 0.6677 2.002 1.6682 3.0038 3 3.0038 2.5043 0 3.3867 4.2218 1.0683 5.1115-0.8635 0.33138-1.5701 0.94781-1.5701 1.3698 0 0.42202-1.575 2.4868-3.5 4.5884s-3.5 4.39-3.5 5.0854c0 0.69535-1.821 2.9492-4.0467 5.0085-3.0227 2.7966-3.9717 4.3885-3.75 6.2903 0.1966 1.6876 0.8025 2.4158 1.7967 2.1598 0.825-0.21246 6.675-1.4295 13-2.7046 19.218-3.874 21.309-4.3304 26.701-5.8272 6.0166-1.67 14.153-7.4883 19.582-14.002 4.5364-5.4436 9.7152-16.013 9.7163-19.83l0.0008-2.75h20.441c14.222 0 20.655 0.34682 21.146 1.14 0.3875 0.62702 1.4552 4.1145 2.3727 7.75 1.0838 4.2946 2.17 6.61 3.1008 6.61 0.788 0 3.0093-3.2231 4.9363-7.1624 2.1601-4.4158 4.2705-7.3825 5.5036-7.7364 1.1-0.31567 11.98-0.5801 24.177-0.58761l22.177-0.0136 3.3234 5.5616c1.8279 3.0589 4.3739 7.4403 5.6578 9.7365l2.3344 4.1748-2.1447 4.0135c-1.1795 2.2074-3.355 6.1058-4.8343 8.6629-1.4794 2.5572-3.7162 6.504-4.9707 8.7708l-2.2809 4.1214 2.2809 0.85114c1.5313 0.57144 2.9291 0.40029 4.2534-0.52078 1.0849-0.75456 3.04-1.3719 4.3448-1.3719 1.3047 0 5.3671-0.86504 9.0275-1.9223 3.6603-1.0573 8.7927-2.1737 11.405-2.4809l4.75-0.55857v12.329 12.329l-4 1.5712c-5.344 2.0992-5.4423 5.0379-0.25 7.4805l3.75 1.764 0.2374 12.994c0.1908 10.441-0.01 12.699-1 11.494-1.3724-1.6636-7.352-4-10.237-4-1.0219 0-3.3498-0.53944-5.1731-1.1987-2.8286-1.0228-4.3168-0.87611-10.142 1-3.7548 1.2093-7.3626 2.1987-8.0173 2.1987-3.9867 0-22.168 16.202-22.168 19.754 0 1.4868 1.9823 2.3557 11 4.8216 18.523 5.0652 27.589 13.666 31.57 29.95 0.9378 3.8355 2.0931 7.4011 2.5673 7.9236 2.0833 2.2952 0.7294 12.214-3.2144 23.55-2.2005 6.325-4.9159 14.65-6.0342 18.5-1.1182 3.85-2.7101 7.7484-3.5375 8.6631-1.3874 1.5339-1.9931 1.3214-7.7941-2.7337-5.6342-3.9386-6.3611-4.8416-6.9742-8.6631-0.3765-2.3464-0.6386-6.6288-0.5825-9.5162 0.058-2.9706-0.3411-5.25-0.9186-5.25-1.3889 0-9.0336 3.9505-11.967 6.1841-3.5876 2.7318-5.7757 2.2606-13.265-2.8566-3.7612-2.5699-7.1009-4.4101-7.4215-4.0895-0.3207 0.32067-0.9291 4.3792-1.352 9.019s-1.0717 8.926-1.4419 9.5249c-0.8104 1.3112-11.296 6.2181-13.287 6.2181-0.7758 0-1.6946 0.74007-2.0417 1.6446-0.9007 2.3473 2.314 4.3814 5.8171 3.6807 2.2235-0.4447 2.8768-0.20687 2.8768 1.0473 0 0.89247 1.611 3.3112 3.58 5.375 3.1731 3.3257 3.5297 4.2211 3.1371 7.8758-0.4855 4.5201 1.4362 10.308 3.4846 10.495 2.6179 0.23891 3.9365-0.27942 8.4356-3.3158 4.0269-2.7178 5.0278-2.9887 8.1295-2.201 1.9455 0.49408 4.0314 1.7662 4.6352 2.8269 1.4902 2.6174 5.6832 6.3788 7.9729 7.1522 2.7484 0.92831 3.5903-1.1795 3.6269-9.0808l0.032-7 7.0763-3.7513c3.8919-2.0632 7.439-3.5271 7.8823-3.2531 0.4434 0.27402 1.3555 2.8621 2.0269 5.7513 2.018 8.6842 6.4618 17.395 9.6543 18.926 1.5521 0.7439 3.6194 3.046 4.594 5.1157 1.1258 2.391 3.0506 4.373 5.2789 5.4355l3.5069 1.6724-0.2769 13.481-0.2769 13.481-3 0.84126c-5.1154 1.4344-16.643 1.3666-24.754-0.14573-5.7582-1.0736-8.0448-1.1552-8.8828-0.31722-1.2257 1.2257-1.0397 1.7755 2.6259 7.7629 1.3468 2.2 3.3839 6.025 4.5267 8.5s2.702 5.6225 3.4647 6.9944c1.2642 2.2738 1.1142 2.9813-1.696 8-1.6956 3.0281-4.0912 6.6306-5.3236 8.0056-2.3751 2.6501-6.4606 10.213-6.4606 11.96 0 0.57191 1.552 1.0398 3.4488 1.0398 6.3951 0 26.736-3.0446 29.405-4.4011 7.393-3.7586 7.1485-4.07 7.1295 9.0837l-0.017 11.817-5.4829 2.3736c-6.3547 2.751-6.9424 4.6968-2.3033 7.6264 8.5567 5.4036 7.8166 4.001 7.8186 14.817 0 8.8783-0.1656 9.7685-1.7482 9.3066-12.237-3.5717-13.96-3.8452-20.436-3.2434-8.1776 0.76002-13.432 2.7051-20.954 7.7569-6.3582 4.2699-13.066 11.562-12.642 13.742 0.174 0.89349 2.5869 1.9161 6.3148 2.6761 13.091 2.6691 24.234 10.666 29.909 21.465 1.957 3.7242 3.5649 7.6054 3.5732 8.625 0.028 3.4596 2.7848 9.8522 4.3887 10.177 0.9213 0.18662 1.5963-0.3407 1.5963-1.2471 0-0.86374 1.4955-3.2592 3.3233-5.3233s4.0778-4.8655 5-6.2254c1.5917-2.3472 1.6767-1.2923 1.6767 20.81v23.283l-4.3614-8.8104c-2.3987-4.8458-4.9665-10.16-5.7061-11.81l-1.3447-3-0.3758 2.9101c-0.2066 1.6006-0.9697 3.8506-1.6957 5s-1.6411 3.6649-2.0336 5.5899-1.067 3.95-1.499 4.5c-0.4319 0.55-2.2162 4.825-3.9652 9.5s-3.8268 10.217-4.6175 12.316c-0.7906 2.0988-1.2019 4.1972-0.9139 4.6632 0.288 0.46598 0.9087 4.647 1.3795 9.291 0.5416 5.3438 1.7728 10.447 3.3535 13.899 3.0854 6.7395 13.342 17.893 18.212 19.804l3.6209 1.4208-0.2762 14.053c-0.1703 8.6605-0.66 13.99-1.2763 13.888-0.55-0.0907-1.45 0.19178-2 0.62781-0.55 0.43602-5.5 1.3436-11 2.0169-9.7294 1.191-10.213 1.1539-17.857-1.371-11.693-3.8622-12.227-2.6602-4.2688 9.6068 2.9561 4.5564 6.371 10.257 7.5888 12.669l2.2142 4.3842-2.0888 2.8253c-1.1488 1.5539-2.0888 3.1596-2.0888 3.5682 0 0.40859-1.29 2.1143-2.8666 3.7905-1.5767 1.6762-4.0154 5.6102-5.4193 8.7422-3.4231 7.6364-2.3066 8.7487 6.5595 6.5348 6.4814-1.6184 12.71-2.8732 23.726-4.7798 3.575-0.61871 7.0625-1.5906 7.75-2.1597 0.9871-0.8171 1.25 1.3017 1.25 10.073v11.108l-6 3.0288c-3.3408 1.6864-6 3.697-6 4.5364 0 1.5769 8.436 7.4636 10.696 7.4636 0.9967 0 1.3042 2.7117 1.3042 11.5 0 11.254-0.5148 12.995-2.9687 10.038-2.5406-3.0612-12.176-5.6976-20.598-5.6358-10.428 0.0765-21.433 3.7512-21.433 7.1566 0 1.542-1.2994 1.7527-11.543 1.8721-6.3484 0.074-11.881-0.0747-12.295-0.33037-0.7233-0.44701-0.048-9.1814 1.4381-18.6 0.3905-2.475 1.7209-5.85 2.9564-7.5 1.2356-1.65 2.9379-4.676 3.7831-6.7244 0.8451-2.0484 3.3697-5.6322 5.6103-7.964s3.9205-4.7058 3.7332-5.2756c-0.3901-1.1867-9.5223-2.2389-21.184-2.4407l-8-0.13846-4.034-7.235c-2.2188-3.9793-5.3238-10.27-6.9001-13.978-3.8208-8.9901-5.6054-8.9887-8.3377 0.007-1.1277 3.7125-2.2704 7.875-2.5394 9.25s-1.491 4.975-2.7155 8c-4.3864 10.835-6.1538 19.081-5.573 26 0.8039 9.5774 5.5945 21.72 9.953 25.228 2.0448 1.6457 0.6073 1.7288-30.278 1.75l-32.424 0.0218 2.1324-2.2699c1.1729-1.2484 4.6832-3.5614 7.8007-5.14l5.6681-2.8701 6.3688 3.2665c7.954 4.0796 9.5604 3.3443 8.6931-3.9789-0.8994-7.5946-0.025-9.41 6.0052-12.461 2.9395-1.4873 6.6576-3.799 8.2624-5.1372 2.875-2.3973 2.8885-2.4559 0.9179-3.9818-1.1-0.85178-4.475-2.9864-7.5-4.7437l-5.5-3.195-0.3032-6.4562c-0.1668-3.5509-0.7844-7.036-1.3725-7.7446-2.2974-2.7683-8.7724-0.94404-10.029 2.8256-0.2815 0.84427-1.9653 0.75982-6.3393-0.31792-5.8171-1.4333-5.9781-1.5648-6.8982-5.6318-1.02-4.509-1.641-4.974-3.5579-2.6642-0.6847 0.825-2.5002 1.5-4.0345 1.5-2.4588 0-2.8552 0.44481-3.342 3.75-0.3037 2.0625-0.5314 5.775-0.5059 8.25 0.025 2.475 0.01 5.175-0.046 6-0.051 0.825-3.2326 3.525-7.0704 6-3.8377 2.475-6.8397 4.95-6.671 5.5 0.1688 0.55 2.751 2.4241 5.7385 4.1647 8.8218 5.1399 9.2178 5.7026 8.7326 12.41-0.2592 3.5838-1.0775 6.5735-2.1121 7.7167-1.8235 2.015-2.3261 4.7206-0.6889 3.7087 0.55-0.33992 1-0.14148 1 0.44098 0 1.5811-4.1006 1.2779-6.0032-0.44386-4.0818-3.6941-23.896-3.9023-26.132-0.27467-0.5744 0.93156-5.2667 1.3635-17.326 1.5948l-16.538 0.3173 0.011-6.8173c0.022-13.583 7.1671-28.012 17.573-35.485 4.2712-3.0673 5.7395-5.7905 3.1664-5.8722-0.6875-0.0218-3.725-0.26687-6.75-0.54452s-9.7385-0.82228-14.919-1.2103l-9.4189-0.70548-7.5587-14.75c-4.1573-8.1125-8.0288-14.75-8.6032-14.75-0.5745 0-1.7664 3.4875-2.6487 7.75-0.8824 4.2625-2.9162 10-4.5197 12.75-3.8083 6.5314-8.332 17.129-8.332 19.519 0 2.1423-2.0184 6.9822-2.9105 6.979-1.0877-0.004-12.57-6.2327-14.34-7.779-1.423-1.2431-1.75-3.205-1.75-10.499v-8.97l-2.9149 0.58298c-1.6032 0.32064-5.4066 2.1769-8.452 4.125-6.6058 4.2257-8.5024 4.3791-11.709 0.94701-5.0528-5.4086-11.855-7.1952-12.012-3.155-0.048 1.2375-0.1606 5.7932-0.25 10.124l-0.1626 7.8737-6.75 3.5873c-3.8693 2.0563-6.7473 4.2441-6.7437 5.1263 0.01 1.435 2.5725 3.3124 9.2492 6.7658 3.7254 1.9268 4.4593 3.6076 5.2999 12.138 0.4682 4.7523 1.2018 7.4884 2.1001 7.8331 2.4801 0.95173 7.7428-2.0331 13.117-7.4398 6.2141-6.2514 8.0693-6.0373 9.9925 1.1533 1.3034 4.8734 2.3507 5.4041 6.728 3.4097 2.0813-0.94828 2.4802-1.6817 2.0397-3.75-0.3012-1.4142-0.1985-4.5962 0.2282-7.0712 0.7656-4.4413 0.8831-4.5534 9.0132-8.5954 5.6893-2.8286 8.5038-3.7566 9.0986-3 0.4736 0.6025 1.1665 3.496 1.5398 6.43 0.8738 6.8676 4.0837 15.413 7.1651 19.075 1.3323 1.5833 2.4223 3.1513 2.4223 3.4844s-14.175 0.60564-31.5 0.60564c-21.047 0-31.5-0.34351-31.5-1.0352 0-0.71358-0.6009-0.71358-1.9343 0-2.5626 1.3715-3.0657 1.308-3.0657-0.38727 0-5.3532-30.556-4.896-36.45 0.54537-0.5225 0.48239-7.1396 0.87708-14.705 0.87708h-13.755l-0.6491-3.4603c-2.2687-12.093 4.6511-28.524 16.499-39.176 7.772-6.9877 7.3776-7.2829-9.1906-6.881-7.8375 0.19013-15.15 0.11512-16.25-0.16667-1.2599-0.32276-3.2951-3.1471-5.5-7.6328-6.014-12.235-10.451-19.664-11.75-19.674-0.6875-0.005-1.2746 0.55324-1.3046 1.2407-0.3138 7.186-1.0306 9.9433-3.7808 14.544-1.8445 3.0856-3.1646 6.671-3.1646 8.595 0 1.9961-0.7663 3.9945-1.9384 5.0552-2.2779 2.0615-4.0686 9.5241-4.0445 16.855 0.032 9.6656 4.4222 22.632 9.8028 28.951 1.4144 1.6612-0.1087 1.75-30.005 1.75-29.651 0-31.958-0.13173-39.405-2.25-10.041-2.8562-27.439-2.8714-32.681-0.0285-2.5683 1.393-6.3197 1.8233-18.325 2.1018l-15.096 0.35028-0.6123-7.3368c-0.3367-4.0353-0.1709-9.2842 0.3684-11.664 1.2361-5.4549 5.0915-13.117 8.7476-17.385 1.5486-1.8078 3.8751-4.8126 5.17-6.6774 3.6704-5.2857 1.719-6.0769-13.419-5.4403l-12.265 0.51572-2.8864-4.8425c-1.5876-2.6634-3.3422-5.6012-3.8993-6.5285-0.557-0.92734-2.479-4.1898-4.2712-7.25-1.7922-3.0601-3.8752-5.5639-4.6287-5.5639-1.5358 0-1.9028 0.84055-7.4228 17-5.5408 16.22-6.7832 23.966-5.2328 32.622 1.3565 7.5738 6.3317 19.168 8.5987 20.038 4.869 1.8684-2.1258 2.3402-34.698 2.3402-33.776 0-36.602-0.13707-43.172-2.0937-7.5927-2.2612-13.063-2.1017-22.197 0.64724-3.3455 1.0068-9.7726 1.4464-21.147 1.4464h-16.341v-4.1898c0-5.9657 1.8964-15.619 4.0058-20.391 0.9922-2.2445 4.2957-7.0181 7.3412-10.608 4.1507-4.8926 5.2512-6.8129 4.3951-7.669-0.7315-0.73144-5.534-1.1421-13.357-1.1421h-12.215l-4.085-5.1306c-2.2468-2.8218-4.0851-5.7581-4.0851-6.525 0-2.5146-7.066-15.489-8.2251-15.103-0.6224 0.20748-1.7345 3.3598-2.4712 7.0052-0.7368 3.6454-2.6928 9.808-4.3467 13.695-1.7169 4.0346-3.6103 11.085-4.413 16.432-1.2275 8.1772-1.2165 10.195 0.086 15.906 0.8207 3.5978 3.0067 9.0567 4.858 12.131l3.3658 5.5895h-22.427-22.427v-6.1364zm158.48 0.62585c3.2892-2.4692 6.1117-4.4895 6.2722-4.4895 0.1606 0 3.8921 1.8102 8.2924 4.0226 9.0846 4.5676 9.6254 4.3284 8.6705-3.8369-0.9473-8.1004-0.1677-9.6639 7.3953-14.831 3.7891-2.589 6.8893-5.0876 6.8893-5.5525 0-0.46488-3.4875-2.5395-7.75-4.6102l-7.75-3.765-0.2965-7.9597c-0.1631-4.3778-0.6266-8.2899-1.0301-8.6934-0.4035-0.40349-3.6451 1.0572-7.2035 3.2459-3.5585 2.1888-7.0436 3.9798-7.7449 3.9801-0.7012 0.00031-4.4323-1.5895-8.2914-3.5329-3.859-1.9434-7.5007-3.2341-8.0926-2.8683-0.7167 0.44295-0.8484 3.2772-0.3942 8.4842l0.6821 7.8191-6.5714 4.2992c-8.2885 5.4226-8.2365 6.8355 0.4318 11.725l6.4893 3.6607 0.1993 7.3254c0.3248 11.935 0.8985 12.261 9.8024 5.5772zm166.52-1.4895c3.2396-2.2 6.9275-3.9959 8.1951-3.9909 1.2677 0.005 4.5549 1.116 7.3049 2.4687 2.75 1.3528 6.0125 2.4737 7.25 2.4909 1.9739 0.0274 2.2591-0.49022 2.3241-4.2187 0.041-2.3375 0.3783-6.1967 0.75-8.5761 0.6471-4.1418 0.9741-4.4826 7.6759-8 3.9227-2.0588 7-4.3333 7-5.1739 0-0.87901-3.6449-3.363-8.8042-6-8.0906-4.1352-8.7589-4.7026-8.2452-7 1.6709-7.4729 1.7554-12.584 0.229-13.851-1.3091-1.0865-2.6215-0.64705-8.3041 2.7803-6.7286 4.0582-9.7312 4.9222-10.845 3.1205-1.0338-1.6727-12.623-7.111-13.715-6.4359-0.6597 0.40775-0.8891 3.7634-0.6147 8.9917l0.4378 8.3412-6.8194 4.5346c-4.1239 2.7423-6.8118 5.2231-6.8003 6.2766 0.012 1.1159 2.6159 3.1845 7.2445 5.7556l7.2256 4.0135-0.3315 7.1749c-0.3477 7.5271 0.308 11.298 1.9647 11.298 0.5431 0 3.6381-1.8 6.8777-4zm-214.12-43.934c1.9888-0.51381 6.991-1.4394 11.116-2.0568 9.819-1.4697 16.448-3.6125 22.088-7.1397 2.5231-1.5781 4.9194-2.8693 5.3251-2.8693 0.4058 0 3.1869-1.9125 6.1805-4.25 4.3497-3.3965 6.2611-5.9018 9.5178-12.475 3.705-7.4783 4.1226-9.1126 4.5991-18 0.469-8.7473 0.2689-10.405-1.9038-15.773-1.341-3.3126-3.1416-6.1354-4.0218-6.305-0.8766-0.16882-4.4492 2.3185-7.9392 5.5274-12.753 11.726-21.163 14.978-36.008 13.925-5.0645-0.35949-10.688-1.1889-12.498-1.8432-1.8093-0.65426-3.5937-0.88554-3.9652-0.51395-0.3716 0.37158 2.3171 6.7114 5.9748 14.088 3.6578 7.3771 6.6365 14.022 6.6193 14.766-0.017 0.74433-1.1399 3.1533-2.4949 5.3533s-2.466 4.6205-2.4688 5.3788c0 0.75834-1.5801 3.1221-3.5051 5.2529-3.3962 3.7592-4.2093 5.8257-2.8333 7.2016 0.8869 0.88696 1.9208 0.84247 6.2173-0.26753zm329.66-2.4608c1.0954-0.76725 4.5705-1.9946 7.7225-2.7274 4.9307-1.1464 5.7308-1.6541 5.7308-3.6364 0-3.2556 2.9922-4.1386 4.7997-1.4164 1.835 2.7637 3.3414 2.7298 12.901-0.29001 12.52-3.955 28.056-16.673 26.746-21.894-0.4417-1.76 0.038-2.7284 1.9857-4.0043 1.5914-1.0427 2.5683-2.6071 2.5683-4.1127 0-1.3364 0.5224-3.5765 1.161-4.978 1.3706-3.0083-0.3363-16.655-3.1754-25.387-1.5766-4.8487-1.8634-5.1764-3.1111-3.5546-0.756 0.98253-4.4058 4.827-8.1107 8.5432-6.0942 6.1128-7.5239 7.0097-15 9.41-7.793 2.502-9.0391 2.6201-21.872 2.073-7.4846-0.3191-13.896-0.29224-14.248 0.0597-0.3519 0.35192 0.4356 2.4781 1.75 4.7249 1.3145 2.2468 4.2081 7.4798 6.4303 11.629l4.0404 7.5441-1.854 4.1409c-1.0196 2.2775-2.7301 5.4077-3.8011 6.9559-3.7459 5.4153-11.209 17.255-11.209 17.783 0 1.0918 4.6267 0.48204 6.5467-0.86276zm175.95-1.107c1.65-0.73099 5.1545-1.6222 7.7877-1.9805 6.0665-0.82537 16.376-4.5469 22.489-8.118 6.3033-3.6824 15.814-12.848 19.037-18.345 5.3601-9.1439 6.5728-28.246 2.3793-37.482-1.2823-2.8241-1.8631-5.302-1.3606-5.8046 1.4965-1.4964 13.768 1.2525 20.906 4.6833 10.951 5.263 19.626 16.597 22.92 29.945 0.8963 3.632 1.9808 6.6037 2.4101 6.6037 0.4294 0 3.7111-4.8375 7.2928-10.75s7.1485-11.63 7.9264-12.707c1.318-1.8234 2.5064-1.9376 17.461-1.6788 11.028 0.19089 16.262-0.072 16.738-0.84062 0.3922-0.6346-1.2936-2.9666-3.897-5.3911-2.5235-2.35-4.5882-4.7922-4.5882-5.4271 0-0.63494-1.3424-1.8486-2.9831-2.697-1.6407-0.84843-3.6436-2.7725-4.4509-4.2757-1.609-2.9957-8.2585-9.9304-14.306-14.919-7.1295-5.8818-16.833-8.515-28.26-7.6689-12.742 0.94348-21.203 4.8896-32.207 15.021-2.5889 2.3838-5.3316 4.3341-6.095 4.3341-3.7841 0-6.1304-6.4265-7.1196-19.5-1.0151-13.417 3.3871-23.581 15.674-36.187l7.9797-8.187-3.3659 0.0827c-12.271 0.30162-29.054-0.62564-30.503-1.6853-0.9119-0.66683-4.6291-7.0199-8.2605-14.118-7.2476-14.167-9.1672-15.744-10.228-8.4055-0.3579 2.475-3.2884 10.575-6.5124 18l-5.8617 13.5 0.1311 9.5852c0.074 5.4172 0.8255 11.974 1.728 15.078 1.5385 5.2922 10.873 20.837 12.513 20.837 0.4398 0 2.8052 1.5626 5.2566 3.4724 2.525 1.9672 8.5565 4.9148 13.914 6.7999l9.4571 3.3275-0.3282 3.4501c-0.3579 3.763-4.3621 8.554-11.327 13.553-2.2205 1.5936-5.4565 4.0578-7.1911 5.476-2.7108 2.2163-4.2386 2.6086-10.878 2.7935-4.248 0.11831-11.385-0.47948-15.86-1.3284-4.4753-0.84891-8.5371-1.5435-9.0264-1.5435-2.1524 0-0.5143 6.0541 4.1105 15.192 2.75 5.4335 5 11.038 5 12.454 0 2.6854-6.1066 16.105-9.2098 20.239-0.9846 1.3117-1.7902 3.5003-1.7902 4.8635 0 2.3886 0.1726 2.4532 4.75 1.7787 2.6125-0.38501 6.1-1.2981 7.75-2.0291zm-326-1.5629c4.4-0.56504 9.7887-1.5012 11.975-2.0803 17.746-4.7013 33.939-22.679 35.261-39.15 0.6946-8.6526-1.4272-23.122-3.809-25.975l-1.8611-2.2297-6.6835 6.8502c-6.4797 6.6413-9.5505 8.5213-20.868 12.776-6.8204 2.5639-20.04 2.5034-27.514-0.12576-6.3312-2.2271-8-2.4234-8-0.94081 0 0.58256 3.15 6.6937 7 13.58 3.85 6.8866 7 13.19 7 14.007 0 1.9266-1.2729 4.2692-7.1601 13.177-2.662 4.0279-4.8399 7.8587-4.8399 8.5129 0 1.9252 4.2255 3.5462 8 3.0688 1.925-0.24345 7.1-0.90493 11.5-1.47zm261.73-28.685c0.8451-0.9625 2.9314-4.45 4.6362-7.75s4.5764-8.25 6.3813-11l3.2816-5 16.237-0.27477c11.236-0.19015 16.237-0.62261 16.237-1.4042 0-0.62119-2.606-3.4878-5.7912-6.3702s-7.1163-7.2005-8.736-9.5958c-14.101-20.854-25.492-26.191-50.684-23.748-7.6544 0.74241-17.614 5.909-25.073 13.007-6.3698 6.0613-7.24 9.1661-2.7059 9.6538 1.3694 0.14729 5.1898 0.82228 8.4898 1.5 13.235 2.718 28.466 19.639 31.074 34.52 0.69 3.938 2.9248 8.2118 4.294 8.2118 0.452 0 1.5134-0.7875 2.3585-1.75zm-162.31-10.108c3.351-5.4221 6.572-11.233 7.1578-12.913l1.0649-3.0549 11.182-0.33668c6.1503-0.18517 13.571-0.0851 16.491 0.2225 2.9199 0.30755 5.5246 0.21029 5.7881-0.21614 0.2636-0.42642-1.3222-2.0802-3.524-3.6752-3.569-2.5854-6.4412-5.7113-14.281-15.542-10.146-12.724-23.389-19.615-38.237-19.899-5.7348-0.1097-8.8503 0.49547-16.206 3.1479-8.2528 2.9758-9.7743 3.9527-16.228 10.419-6.968 6.9818-8.3867 9.4249-5.8709 10.11 0.6875 0.18727 4.5781 1.1454 8.6458 2.1292 10.666 2.5797 16.06 5.5348 23.277 12.752 6.3666 6.3666 10.454 14.145 12.331 23.466 0.36 1.7875 1.0282 3.25 1.4849 3.25s3.5721-4.4363 6.9232-9.8584zm-170.83 2.3584c1.7072-3.025 3.467-5.5 3.9107-5.5s1.2403-1.2436 1.7701-2.7634c1.5561-4.4638 6.1253-9.2366 8.8426-9.2366 1.6243 0 2.8111-0.83066 3.5717-2.5 1.6201-3.5558 4.681-3.1157 6.1617 0.88596 0.6259 1.6913 1.3924 1.8149 7.4271 1.1977 3.7011-0.37854 7.124-1.082 7.6065-1.5632 1.8993-1.8943-19.5-24.2-29.297-30.537-8.8169-5.7036-13.824-6.8983-26.082-6.2228-8.905 0.49069-10.506 0.89767-17.042 4.3324-8.3279 4.3762-17.687 12.489-18.599 16.122-0.7417 2.9552 0.7929 4.2365 5.1433 4.2943 7.229 0.0961 21.246 6.4142 26.375 11.888 4.1905 4.4724 11.125 14.938 11.125 16.79 0 2.7968 2.9465 8.3128 4.4404 8.3128 0.8484 0 2.9393-2.475 4.6465-5.5zm-59.483-36.91c0.2976-0.77536-0.1127-2.6879-0.9118-4.25-0.799-1.5621-1.9933-6.0795-2.654-10.039-2.2071-13.227 2.4101-26.983 13.636-40.628 1.2791-1.5547 2.3256-3.4097 2.3256-4.1222 0-1.6089-6.9944-3.0471-12.896-2.6516-2.4176 0.16202-6.845-0.0114-9.8386-0.38546l-5.4429-0.68005-5.4521-11.383c-2.9986-6.2607-5.8475-11.627-6.3308-11.926-1.0878-0.67232-3.7408 1.8823-4.394 4.2312-2.2954 8.2537-5.0675 17.351-6.1688 20.244-2.0866 5.4821-2.6069 8.7737-3.0012 18.986-0.4651 12.047 1.3286 18.249 7.7909 26.937 5.6727 7.6264 8.611 9.743 19.233 13.855 8.7827 3.4 13.273 3.977 14.104 1.8123zm168.39-3.8403c-0.01-1.2375-0.6544-4.3707-1.441-6.9628-2.2017-7.2554-2.6304-18.051-0.97-24.426 1.5764-6.0522 7.8213-16.296 14.225-23.335 6.0748-6.6767 5.0527-7.2164-12.495-6.5969-14.15 0.4995-14.396 0.47199-15.24-1.7109-0.4723-1.2202-2.4126-4.9536-4.3117-8.2964s-3.7596-7.2996-4.1344-8.7928-1.3191-2.9597-2.0986-3.2588c-1.9561-0.75062-6.4534 2.7171-6.4918 5.0055-0.017 1.0318-1.5754 5.7568-3.4626 10.5-4.5145 11.347-6.7772 23.523-5.9542 32.041 1.3795 14.277 16.23 34.063 25.586 34.09 1.2649 0.004 3.6497 0.90066 5.2997 1.9934 1.8055 1.1958 4.6922 1.9894 7.25 1.9934 3.7459 0.006 4.2487-0.26029 4.2392-2.2434zm165.27-1c0.2344-0.6875-0.1621-3.725-0.881-6.75-2.665-11.213-1.2264-24.32 3.7472-34.14 1.2146-2.3982 4.8333-7.3595 8.0414-11.025 3.2082-3.6657 5.833-7.2057 5.833-7.8666 0-0.70921 0.8193-0.98749 1.999-0.67899 1.0995 0.28751 2.2289 0.15076 2.5099-0.30389 0.281-0.45466-6.7576-0.86048-15.641-0.90183-11.375-0.053-16.604-0.44613-17.68-1.3295-0.84-0.68986-4.2064-6.7891-7.4809-13.554-4.0215-8.3078-6.4256-12.202-7.4077-12-0.7997 0.16476-3.3625 5.0246-5.695 10.8-2.3325 5.775-4.9414 11.85-5.7975 13.5-2.6749 5.1554-4.5175 13.755-4.2854 20 0.2319 6.2405 4.7986 19.638 9.0326 26.5 4.5346 7.3489 14.235 14.329 25.446 18.31 2.8697 1.019 7.8361 0.68253 8.2594-0.5595zm-420.22-15.23c2.9996-1.9109 6.4022-3.4859 7.5615-3.5 1.1594-0.0141 5.1607 1.5656 8.8919 3.5104s7.2826 3.3716 7.8921 3.1706c0.6461-0.21308 1.3167-4.0417 1.6082-9.182 0.4179-7.3692 0.8187-8.9978 2.4416-9.9206 8.8323-5.0223 12.646-7.9125 12.365-9.3713-0.1725-0.89597-3.1502-3.2691-6.617-5.2736-9.1973-5.3179-9.5778-5.8519-9.3764-13.16 0.1853-6.724-0.3987-9.7994-1.8609-9.7994-0.5022 0-3.2844 1.5124-6.1826 3.361-8.063 5.1428-8.7308 5.1872-16.809 1.1191-3.9453-1.9868-7.72-3.4025-8.3883-3.1461-0.829 0.31811-1.1726 2.9955-1.0812 8.4255 0.074 4.3776-0.1191 8.6666-0.4285 9.5312-0.3093 0.86462-3.456 3.5154-6.9926 5.8907-3.5366 2.3752-6.5886 4.812-6.7821 5.415-0.1936 0.603 3.2368 3.1816 7.6231 5.7302l7.9751 4.6338-0.4893 7.0402c-0.7248 10.428 0.1135 10.963 8.6497 5.525zm333.57-1.52c7.0964-4.8205 9.9262-4.9772 17.385-0.96293 8.8697 4.7736 9.2691 4.5163 8.8495-5.7015l-0.3557-8.662 7.2531-5.4591c3.9892-3.0025 7.2531-6.0099 7.2531-6.683 0-1.8566-2.979-4.0027-8.2614-5.9514-5.4019-1.9928-6.7339-3.8215-6.7496-9.2667-0.018-6.3762-1.1543-11.316-2.6022-11.316-0.7434 0-4.2924 1.8-7.8868 4s-6.95 4-7.4569 4-3.9865-1.5728-7.7324-3.4951-7.3732-3.4973-8.0607-3.5c-0.9019-0.004-1.25 2.3517-1.25 8.4579v8.4627l-6 4.0745c-6.2247 4.2271-7.5872 7.0722-4.25 8.875 0.9625 0.51995 3.6625 2.7167 6 4.8816 3.791 3.5111 4.25 4.4237 4.25 8.4503 0 7.3475 1.1687 13.793 2.501 13.793 0.676 0 3.8773-1.7989 7.114-3.9976zm-141.46-8.1438c-0.3263-9.1098-0.223-9.698 1.9726-11.236 1.2742-0.89253 3.316-1.6228 4.5372-1.6228 2.3637 0 9.3346-3.6919 9.3346-4.9438 0-1.2143-3.1504-3.5784-8.7672-6.579-2.897-1.5476-5.8153-3.4742-6.4852-4.2814-0.6713-0.80886-1.2783-4.6605-1.3524-8.5817-0.1218-6.4508-0.3338-7.1441-2.2731-7.4348-1.1762-0.17635-4.6898 1.0612-7.8079 2.75-3.1182 1.6888-6.3769 3.0695-7.2418 3.0681-0.8648-0.001-4.2185-1.5981-7.4526-3.5482-8.5744-5.1703-9.1119-4.7964-9.1586 6.3708l-0.039 9.2816-4.7112 4.027c-5.3228 4.5498-5.8656 6.9686-2.1487 9.5747 8.3808 5.8763 8.4375 5.9655 8.4375 13.263 0 9.6331 1.0634 10.22 9.8809 5.4579l6.9568-3.7575 6.8312 4.1394c9.6444 5.8442 9.9034 5.6819 9.4868-5.9476zm334.06-0.60862 0.2862-9.75 6.8871-3.6193c7.8225-4.1109 9.3914-5.9593 7.0477-8.303-0.8677-0.86771-2.108-1.5784-2.7562-1.5793s-3.6383-1.7083-6.6446-3.7941l-5.4661-3.7925 0.2944-8.5184c0.3692-10.682-0.7334-12.149-6.2957-8.374-2.0467 1.3889-5.8515 3.6048-8.4551 4.9241l-4.7338 2.3988-4.9389-3.3858c-2.7163-1.8622-5.23-3.4017-5.586-3.4212-0.3559-0.0194-2.0434 1.1899-3.75 2.6873-2.883 2.5298-3.1028 3.191-3.1028 9.3342v6.6115l-6.5 4.4078c-3.8293 2.5967-6.5 5.1242-6.5 6.1514 0 1.1215 2.0729 2.79 5.8098 4.6763 3.1954 1.613 6.4579 3.7116 7.25 4.6635 0.8148 0.97918 1.6573 4.8101 1.9402 8.8222 0.6134 8.7002 1.3281 8.9988 10.937 4.5696l6.9216-3.1904 7.3205 4.0915c4.0263 2.2503 7.8668 4.1023 8.5344 4.1155 0.8512 0.0168 1.2993-2.8883 1.5-9.726zm139.72 7.2905c2.1429-1.3527 4.1855-2.9277 4.5392-3.5 1.0831-1.7525 4.6336-1.1669 9.2192 1.5204 2.8411 1.665 5.4958 2.4522 7.5879 2.25l3.2179-0.31096 0.5-7.4496c0.489-7.2859 0.5769-7.492 4-9.381 5.6475-3.1166 12.996-8.1143 12.998-8.84 0-0.3688-1.2391-0.94311-2.7558-1.2762-1.5168-0.33313-5.1339-1.9628-8.0381-3.6214l-5.2803-3.0157 0.1716-8.0388c0.2426-11.362-0.5942-11.971-9.8485-7.1603l-7.1712 3.7275-7.6011-3.859c-9.3622-4.7531-9.9696-4.3752-9.9883 6.2153l-0.014 7.6992-5.2835 2.5828c-2.9059 1.4206-5.9608 3.2602-6.7887 4.0881-2.3092 2.3092-0.1339 5.8627 5.5085 8.9984 5.2174 2.8996 6.0559 4.9519 6.0799 14.881 0.018 7.3214 2.4938 8.5641 8.9469 4.4905zm-698.27-45.39c16.166-3.3508 30.054-10.762 36.214-19.323 9.3989-13.064 12.221-24.944 9.1723-38.619-0.9493-4.2588-2.2641-8.7487-2.9218-9.9776-1.5979-2.9857-4.6225-2.8259-6.8287 0.36095-6.2426 9.0172-16.672 15.616-28.75 18.193-2.9967 0.63914-7.5373 0.63091-13.155-0.0239-9.7969-1.1419-13.98-0.12156-13.112 3.1984 0.2742 1.0482 3.0897 6.2484 6.2569 11.556l5.7585 9.6502-4.3184 8.1656c-2.3751 4.4911-5.3666 9.7326-6.6477 11.648-5.6657 8.4701-2.2403 9.4365 18.332 5.1723zm154.84-0.0792c2.75-0.53278 8.375-1.481 12.5-2.1072 13.457-2.0429 20.372-4.691 26.692-10.222 7.3706-6.4498 9.3076-8.9702 9.3076-12.111 0-1.5773 1.4977-4.1708 3.9294-6.8043 2.2018-2.3845 4.4612-6.1549 5.139-8.5756 2.0622-7.3656-0.5457-30.256-3.4471-30.256-1.4354 0-4.6213 3.1281-4.6213 4.5375 0 3.0199-22.262 14.956-29.753 15.952-3.2874 0.43729-5.6018 1.3183-6.185 2.3545-0.8385 1.4896-1.1431 1.43-3.0359-0.59426-1.2141-1.2984-3.2901-2.25-4.9084-2.25-1.5425 0-5.4204-0.9-8.6176-2-6.9956-2.4068-7.5-2.4367-7.5-0.44335 0 2.0284 7.5182 16.77 11.26 22.079l2.9152 4.1361-5.6809 9.3639c-3.1245 5.1502-6.5389 10.293-7.5877 11.428-3.2557 3.5249-1.5604 8.1067 2.5932 7.0083 1.1-0.29088 4.25-0.96477 7-1.4975zm174.86-2.462c5.5748-1.3127 12.666-2.9071 15.758-3.5431 14.972-3.0794 30.833-19.808 33.921-35.777 2.2445-11.608-1.423-29.165-6.2878-30.102-1.0904-0.20998-3.8593 1.9715-7.4924 5.9028-6.6258 7.1697-14.212 12.377-19.263 13.222-1.925 0.32228-6.1294 1.0248-9.343 1.561-3.2137 0.53629-6.0853 1.2173-6.3814 1.5134-0.2961 0.29608-1.4793-0.12078-2.6295-0.92637-1.1501-0.80558-4.2568-1.4647-6.9038-1.4647-2.771 0-5.8716-0.69382-7.3087-1.6355-3.1224-2.0459-4.0198-1.2671-2.2745 1.974 0.7375 1.3695 2.7782 5.1926 4.535 8.4956 1.7567 3.303 4.8083 8.2525 6.7813 10.999l3.5873 4.9932-6.2814 12.116c-6.0833 11.734-6.2201 12.163-4.3402 13.587 2.465 1.8673 1.9609 1.9005 13.923-0.91629zm155.05-0.14576c1.2865-0.84291 7.4341-2.3892 13.662-3.4361 15.931-2.6784 27.249-8.3389 36.37-18.19 8.5551-9.2402 11.75-15.999 12.356-26.139 0.3944-6.6009 0.044-9.0957-2.2834-16.25-1.5122-4.6486-3.2622-8.4519-3.8889-8.4519s-3.9407 2.9094-7.3644 6.4653-7.5282 7.1392-9.1212 7.963c-1.593 0.82376-3.1617 2.1894-3.4861 3.0347-0.3244 0.84535-1.6585 1.537-2.9647 1.537-1.3061 0-5.0327 0.92607-8.2813 2.0579-6.587 2.295-9.1218 2.1796-20.783-0.94646-9.4163-2.5242-8.6234-2.4813-8.6234-0.4666 0 1.8804 10.568 21.97 12.034 22.876 2.1044 1.3006 0.783 6.3516-3.2841 12.553-6.3657 9.7066-9.159 15.417-8.4477 17.271 0.7817 2.0371 1.1668 2.0486 4.107 0.122zm175.48-0.43548c1.5742-0.45147 3.5291-0.3778 4.5077 0.16988 1.2066 0.67525 2.7356 0.48895 5.0671-0.61739 1.8364-0.87145 3.8368-1.5845 4.4452-1.5845s3.2404-1.0767 5.8488-2.3926c2.6085-1.316 6.7677-3.1961 9.2427-4.1782 8.4358-3.3472 18.758-15.42 23.173-27.103 1.7036-4.5083 2.1538-7.6358 1.9902-13.826-0.3169-11.989-1.9508-16.495-7.0081-19.325-3.7361-2.0906-4.1548-2.7078-4.1548-6.1243 0-2.0896-0.72-5.7684-1.6-8.1751-2.677-7.3208-2.2108-19.181 1.1198-28.493 2.5839-7.2237 3.5663-8.621 11.745-16.705 4.909-4.8518 8.7701-8.9534 8.5803-9.1146-2.1947-1.8632-7.0334-2.8102-18.115-3.5451-12.824-0.85044-13.27-0.95704-15.466-3.6973-2.12-2.6442-8.2205-17.093-8.2997-19.657-0.062-2.0204-4.6922-6.9506-5.8532-6.233-0.6109 0.37758-1.111 1.6724-1.1113 2.8775-0.0007 3.1001-3.3083 11.7-8.5348 22.191-11.654 23.393-9.4088 40.625 7.4982 57.54 6.1929 6.1958 17.253 12.803 25.037 14.957 2.0895 0.57819 2.4717 1.2476 2.3276 4.0766-0.144 2.8277-1.4268 4.5643-7.7942 10.551-5.2519 4.9382-8.6186 7.3229-10.828 7.6695-1.7632 0.27667-6.2525 1.0666-9.9762 1.7555-5.1563 0.95383-7.3728 0.97796-9.2971 0.10121-1.3896-0.63317-3.5179-1.171-4.7295-1.1951-1.2117-0.0241-3.9969-0.68271-6.1895-1.4635-2.2521-0.80194-4.364-1.0421-4.8541-0.552-0.4901 0.49011 0.6208 3.411 2.5534 6.7135 5.0179 8.5746 8.7872 17.226 8.7872 20.168 0 1.419-3.15 7.83-7 14.247-3.85 6.4166-7 12.004-7 12.416 0 0.83949 11.592-0.2199 15.888-1.452zm-396.64-33.282c2.8788-4.3941 5.8836-9.8846 9.6429-17.62 0.5172-1.0642 4.1541-1.3988 16.306-1.5 8.6022-0.0717 15.93-0.42031 16.284-0.77478 0.3541-0.35446-1.7461-3.1307-4.6673-6.1693-5.8588-6.0946-13.565-14.624-14.629-16.192-0.3753-0.55313-2.4824-2.3456-4.6824-3.9832s-5.0247-4.1895-6.277-5.6708c-1.2524-1.4813-3.6618-2.9974-5.3543-3.3692-1.6925-0.37173-4.9943-1.5239-7.3373-2.5603-5.0811-2.2476-12.83-2.7382-14.986-0.94881-1.1275 0.9358-1.901 0.988-2.8589 0.19297-1.6503-1.3696-8.259-0.37542-9.7932 1.4732-0.6262 0.75447-2.121 1.3718-3.3218 1.3718-4.3038 0-20.515 14.79-20.551 18.75-0.018 2.0005 0.4745 2.25 4.4444 2.25 13.647 0 29.97 11.998 37.069 27.246 1.3453 2.8895 2.4504 5.7869 2.4557 6.4386 0.021 2.5609 2.0351 6.3151 3.3878 6.3151 0.7851 0 2.9753-2.3625 4.867-5.25zm332.89-3.5211c1.7936-3.1509 5.218-8.7664 7.6098-12.479 4.9584-7.6963 2.9234-7.1105 23.502-6.7653 7.7613 0.13018 11.75-0.16411 11.75-0.86691 0-1.2692-9.1392-12.301-21.33-25.748l-8.8301-9.7399 2.2965-1.7323c1.2631-0.95275 5.0867-3.223 8.4969-5.0451 5.9185-3.1622 6.2873-3.2341 8.1124-1.5825 1.0516 0.95168 2.7071 1.7303 3.6789 1.7303s3.1204 0.96377 4.7746 2.1417c3.8591 2.7479 5.0963 1.2562 4.4054-5.3116-0.6669-6.3408 0.9699-10.163 5.313-12.406 6.2002-3.2027 11.033-7.3888 10.409-9.0157-0.3168-0.82556-2.6616-2.5579-5.2107-3.8496-8.9565-4.5386-9.3768-5.1767-9.6042-14.582-0.1275-5.276-0.6295-8.5158-1.3569-8.7583-0.635-0.21165-4.0026 1.0027-7.4836 2.6985s-7.3555 3.0833-8.61 3.0833c-1.2546 0-4.9493-1.4222-8.2106-3.1604-4.3881-2.3388-6.2217-2.8683-7.0532-2.0368-0.618 0.61802-1.3326 4.7327-1.588 9.1438-0.5181 8.9512-0.5366 8.9787-9.0889 13.553-3.0847 1.65-5.746 3.732-5.914 4.6266-0.2048 1.0908 1.6047 2.6937 5.4942 4.8667 9.4433 5.2758 9.2995 5.0321 9.2995 15.769 0 8.6072-0.1564 9.3882-1.75 8.7381-19.11-7.7953-29.64-7.424-45.802 1.615-7.1018 3.9719-17.484 14.748-15.318 15.899 0.7535 0.40051 3.845 1.2874 6.87 1.971 9.3913 2.122 17.93 6.8819 25.08 13.981 5.6103 5.5703 7.0474 7.7618 9.75 14.869 1.7433 4.5845 3.1697 9.0016 3.1697 9.8157 0 2.251 1.9851 5.476 2.9889 4.8557 0.4887-0.30203 2.356-3.1271 4.1495-6.278zm-500.93 2.0211c1.3663-2.0625 4.6275-7.2664 7.2471-11.564 3.5509-5.8257 5.1689-7.6586 6.358-7.2023 0.8772 0.33663 6.5647 0.86123 12.639 1.1658 8.9893 0.4507 11.416 0.26923 13.044-0.97549 1.9497-1.4908 1.8821-1.6504-2.6937-6.3514-26.685-27.416-29.476-29.699-39.146-32.021-7.3459-1.7639-18.766-1.1894-26.161 1.3159-7.5454 2.5563-23.5 14.484-23.5 17.569 0 1.0025 1.8927 1.9205 5.75 2.7888 8.3593 1.8819 14.201 3.8694 18.538 6.3072 5.2983 2.9778 12.338 11.806 16.519 20.718 3.3255 7.0877 6.6951 12 8.2312 12 0.3793 0 1.8076-1.6875 3.1739-3.75zm334.92-5.2511c1.5192-2.4744 3.6452-6.2989 4.7244-8.4989 1.0791-2.2 3.0462-5.301 4.3713-6.891l2.4091-2.891 11.89 0.17434c6.5397 0.0959 12.917 0.43208 14.172 0.74707 5.1913 1.3029 3.3815-2.4068-5.5546-11.385-4.9322-4.9557-9.7019-10.43-10.599-12.166-0.8975-1.7356-4.3619-5.1654-7.6987-7.6218-4.7562-3.5014-6.9157-4.4661-9.9966-4.4661-2.1614 0-5.8068-0.95752-8.1007-2.1278-3.5685-1.8205-5.3319-2.0525-12.21-1.6066-9.6095 0.62303-16.69 3.229-25.018 9.2083-7.1515 5.1342-11.049 9.1926-11.793 12.28-0.5805 2.4091-0.2248 2.5789 7.6036 3.6315 6.2915 0.84588 22.978 9.8134 25.106 13.493 0.516 0.89195 2.4285 2.942 4.25 4.5557 1.8214 1.6137 3.3117 3.3291 3.3117 3.8119 0 1.1426 4.9922 11.87 6.3045 13.547 1.6957 2.1672 3.9292 0.92605 6.8273-3.794zm-225.72-31.862c0.2934-0.47473-0.5683-4.1872-1.9149-8.25-2.8736-8.6696-3.1791-16.86-0.9485-25.427 1.8925-7.2675 4.9516-12.634 11.409-20.013 2.821-3.2237 4.6808-6.2167 4.3686-7.0303-0.6009-1.5658-0.9721-1.6044-17.174-1.7881-11.342-0.1286-11.345-0.1293-13.745-3.1286-1.3203-1.65-2.4028-3.3622-2.4055-3.8048-0.014-2.3204-8.3226-14.263-10.287-14.786-2.7731-0.73902-4.7169 0.68636-4.7233 3.4636 0 1.1702-1.4166 5.9526-3.142 10.628-1.7254 4.675-3.8142 11.2-4.6419 14.5-0.8276 3.3-1.6582 6.585-1.8458 7.3001-0.2386 0.90966-2.8222 0.009-8.6032-3l-8.2622-4.3001-0.2925-8.9925c-0.1608-4.9459-0.6748-9.3749-1.1422-9.8422-0.4674-0.46738-4.112 1.2994-8.0991 3.9261l-7.2494 4.7759-5.3681-2.9038c-2.9525-1.5971-6.6012-3.8912-8.1084-5.098l-2.7403-2.1942 5.8172-5.782c6.7626-6.7218 11.962-15.103 14.248-22.967 1.6288-5.6027 2.0505-17.021 0.818-22.147-0.8804-3.6614-4.0644-9.9602-5.4758-10.833-0.6503-0.40194-4.1189 2.4361-8.2642 6.7618-5.6084 5.8524-8.8629 8.2811-15.144 11.301-6.9027 3.319-8.9601 3.8499-15 3.8702-3.85 0.013-10.15-0.74138-14-1.6763-3.8498-0.93493-7.1123-1.6999-7.25-1.6999-1.2697 0 0.6718 5.4271 5.3253 14.886 6.2455 12.695 6.2509 13.297 0.1889 20.895-3.4166 4.2826-7.7646 12.468-7.7646 14.618 0 2.3007 3.0692 2.6961 8.4089 1.0833 2.6999-0.81547 6.7959-1.4827 9.1021-1.4827 2.3063 0 8.7984-1.1613 14.427-2.5807s10.533-2.2828 10.898-1.9186c0.3652 0.36413 0.8945 4.3379 1.1762 8.8307 0.5923 9.4466-0.026 10.46-8.9345 14.632-6.6591 3.119-6.623 5.0846 0.1723 9.379 2.8875 1.8248 6.0375 3.605 7 3.9562 1.4391 0.52501 1.75 1.8815 1.75 7.6346 0 5.8935 0.3049 7.1594 1.9343 8.0314 3.3165 1.7749 6.5123 1.1524 10.991-2.141l4.3189-3.1762 7.339 3.9262c7.0427 3.7677 7.4113 3.8542 9.1281 2.1435 1.2653-1.2608 1.9354-3.8956 2.289-9 0.4712-6.8019 0.6727-7.3054 3.5-8.747 1.65-0.84131 4.2177-2.3426 5.706-3.3362 3.2817-2.1908 4.4347-1.6193 5.3001 2.6273 0.995 4.8825 9.3474 21.847 12.352 25.088 4.157 4.4842 10.806 8.695 18.529 11.734 6.966 2.7413 14.969 3.7663 16.028 2.0528zm166.81-1.6948c0.3069-0.30687 0.1833-1.7694-0.2747-3.25-5.1271-16.577-5.3095-27.596-0.6241-37.692 3.3683-7.2576 9.3476-16.309 12.434-18.821 1.2428-1.0116 2.0036-2.2535 1.6907-2.7597-0.3204-0.51851-6.8739-0.76747-15.01-0.57021-13.594 0.3296-14.441 0.23982-14.441-1.531 0-1.0346-0.6942-2.1475-1.5426-2.473-0.8484-0.32557-2.3822-2.224-3.4084-4.2186-1.0262-1.9947-3.2352-4.9274-4.9088-6.5172-1.6737-1.5898-3.3256-4.1773-3.6711-5.75-0.4201-1.9128-1.2522-2.8595-2.5134-2.8595-2.3336 0-3.6138 2.3073-5.0842 9.1635-0.6272 2.9244-1.714 6.2214-2.4152 7.3268-0.7011 1.1053-2.2698 5.6063-3.4858 10.002-1.8187 6.574-2.1314 9.7838-1.7622 18.085 0.3847 8.6511 0.8862 11.009 3.5112 16.508 5.5053 11.532 18.201 22.245 29.562 24.945 3.9103 0.9293 11.175 1.1797 11.943 0.4117zm166.59-6.1329c0.1715-1.205-0.3884-3.2596-1.2443-4.5658-2.1332-3.2556-2.8778-17.432-1.4048-26.743 1.0737-6.7869 1.7318-8.2131 6.9214-15 3.1542-4.125 7.1096-8.8064 8.7898-10.403 1.6802-1.5967 2.8642-3.2117 2.631-3.589-0.2331-0.37727-7.035-0.77888-15.115-0.89247-14.765-0.20756-18.39-0.93005-18.39-3.6659 0-1.6176-5.2897-11.527-8.1861-15.335-0.9976-1.3117-1.8139-3.1544-1.8139-4.095 0-0.94059-0.8465-2.4762-1.8811-3.4126-1.7336-1.5688-2.0082-1.5754-3.5-0.0836-1.5711 1.5711-2.1366 4.584-1.7343 9.2404 0.1076 1.2454-0.4302 3.7204-1.1952 5.5-4.6562 10.833-8.2301 22.435-8.8512 28.736-0.61 6.1881 2.5648 17.192 6.7554 23.415 1.8735 2.782 3.4288 5.5142 3.4562 6.0716 0.073 1.4827 9.0636 8.5926 14.777 11.686 11.151 6.0368 19.388 7.3297 19.985 3.1367zm106.69-2.3091c0.3399-0.55 0.1415-1-0.441-1-0.5824 0-1.059 0.45-1.059 1s0.1984 1 0.441 1c0.2425 0 0.7191-0.45 1.059-1zm-368.14-9.8421c0.9169-1.0132 4.1482-3.5509 7.1806-5.6394l5.5134-3.7973 5.9891 3.1394c3.294 1.7267 7.1738 3.1394 8.6219 3.1394h2.633l-0.6566-8.5413-0.6565-8.5413 3.1567-1.7087c4.9747-2.6926 9.8613-7.2491 9.8613-9.1949 0-1.1595-1.8795-2.6986-5.3966-4.4194-6.3-3.0823-7.3404-4.1416-7.8571-7.9997-0.2103-1.5705-1.0868-3.3705-1.9477-4-0.8609-0.62951-1.7354-2.0282-1.9434-3.1082-0.5888-3.0576-3.3914-2.9017-8.2779 0.46027l-4.4801 3.0824-6.5205-3.2154-6.5204-3.2154-2.4194 2.2729c-1.8413 1.7299-2.578 3.7488-3.0833 8.4508l-0.664 6.1779-6.1948 4c-3.4071 2.2-6.1948 4.675-6.1948 5.5s2.475 2.7946 5.5 4.3769c10.16 5.3146 9.8532 4.9773 8.9356 9.8151-0.7092 3.7389-0.1746 8.3194 1.5824 13.558 0.5893 1.7569 1.8956 1.5554 3.8391-0.59212zm-294.72-1.6579c0.3166-0.825 0.2859-2.2549-0.068-3.1775-0.59-1.5378-0.777-1.5442-2.2437-0.0775-1.6493 1.6492-1.2094 4.755 0.6735 4.755 0.5845 0 1.3218-0.675 1.6384-1.5zm467.71-7.5c5.8787-3.3177 8.6254-3.6886 11.939-1.6122 1.2181 0.76327 3.8986 1.683 5.9566 2.0438 2.058 0.36081 4.083 0.74882 4.5 0.86224 0.417 0.11343 0.9832-3.1646 1.2582-7.2845l0.5-7.4908 6.5-3.5238c8.7594-4.7487 8.6625-6.2965-0.7195-11.495l-7.2194-4-0.031-4.625c-0.042-6.3724-1.0711-10.953-2.5916-11.537-0.7022-0.26944-4.0746 1.289-7.4942 3.4632l-6.2176 3.9531-3.1427-2.1273c-1.7286-1.17-5.253-3.244-7.8321-4.6088-6.5136-3.447-7.2238-2.485-6.0076 8.1369 1.0221 8.9274 0.798 10.845-1.2678 10.845-1.4537 0-7.477 7.1578-7.477 8.8854 0 0.60365 2.475 2.4943 5.5 4.2016l5.5 3.104 0.014 5.6545c0.015 6.4058 0.7974 10.155 2.1181 10.155 0.4942 0 3.2906-1.35 6.2143-3zm41.111-7.9309c0.3164-0.512 0.114-1.216-0.4499-1.5646-1.3149-0.81265-5.0074 0.3398-5.0074 1.5628 0 1.2136 4.7074 1.2151 5.4573 0.002zm-165.46-13.01c0-0.51754-0.45-1.2191-1-1.559-0.55-0.33992-1 0.0835-1 0.94098 0 0.85746 0.45 1.559 1 1.559s1-0.42344 1-0.94098zm-91.399-15.965c1.5946-0.49818 6.9492-2.09 11.899-3.5373 15.423-4.5096 21.854-6.7836 26.144-9.245 6.571-3.77 13.07-11.525 17.638-21.044 3.8868-8.1004 4.1788-9.2995 4.1971-17.237 0.013-5.5274-0.6212-10.555-1.8006-14.28-3.4329-10.843-6.8713-11.494-14.179-2.6871-5.4867 6.6127-16.889 13.9-21.785 13.923-1.5318 0.007-3.8952 0.74052-5.2518 1.6294-1.6234 1.0637-3.4062 1.3883-5.2148 0.94949-6.1549-1.4933-14.51 0.0695-15.604 2.9184-0.4574 1.1918 6.2018 12.899 10.393 18.272 1.724 2.2099 1.6198 2.5173-5.1387 15.154-3.7941 7.0942-6.8984 13.617-6.8984 14.494 0 1.8147 1.4348 1.9915 5.6008 0.6899zm170.21-5.9836c2.577-1.0392 9.1304-2.3228 14.563-2.8525 7.4306-0.72453 10.106-1.3713 10.8-2.6106 0.5073-0.90647 2.1577-1.6475 3.6692-1.6475 1.862 0 3.5377-0.98485 5.2003-3.0564 6.5622-8.1762 8.146-9.7811 10.698-10.841 2.9662-1.2321 5.8128-5.2234 8.2746-11.602 0.8491-2.2 2.034-4.9 2.6332-6 1.4125-2.5928 0.039-22.283-1.8256-26.174-2.13-4.444-4.3182-4.0118-12.138 2.3973-9.1976 7.5388-12.599 9.5654-21.36 12.726-5.675 2.0471-7.6824 2.3672-9.7985 1.5627-3.6656-1.3937-12.87-1.2728-14.331 0.18817-2.7348 2.7348-0.2157 11.756 4.8312 17.3 2.9113 3.1983 3.3481 6.7435 1.1757 9.5433-3.1139 4.0133-7.2069 11.89-7.2069 13.87 0 1.0131-0.675 2.4023-1.5 3.087-2.016 1.6731-1.9694 6 0.065 6 0.8605 0 3.673-0.85021 6.25-1.8894zm171.69-3.3915c3.85-0.87714 9.5744-1.8139 12.721-2.0817 3.1465-0.26779 7.1965-0.93213 9-1.4763s4.6291-1.3746 6.2791-1.8454c1.977-0.56408 3.1069-1.6003 3.3134-3.0386 0.1723-1.2004 1.2973-2.4904 2.5-2.8667 1.2026-0.37626 3.4217-1.7164 4.9312-2.9782 1.5095-1.2617 3.5485-2.5492 4.5311-2.8611 1.0458-0.33194 2.3393-2.4394 3.12-5.0836 0.7335-2.4841 1.958-4.866 2.7212-5.2931 2.2735-1.2723 5.3831-11.676 5.3831-18.01 0-6.8064-3.37-20.984-5.4924-23.106-1.2734-1.2734-2.0201-0.90107-5.9811 2.983-2.4893 2.4409-4.7743 5.2032-5.0779 6.1384-0.6031 1.8583-8.5555 5.8021-17.856 8.8554-7.1339 2.3419-18.066 2.5374-24.959 0.44634-8.6358-2.62-8.7202-0.48088-0.5942 15.074l6.0395 11.561-1.9213 3.1819c-6.0493 10.019-11.158 19.853-11.158 21.481 0 2.7759 1.091 3.3698 3.4202 1.8618 1.1439-0.7406 5.2298-2.0642 9.0798-2.9414zm-564.75-25.48c1.0403-1.5125 4.3127-7.1001 7.2722-12.417l5.3808-9.6669 10.694-0.33306c8.8544-0.27577 11.06-0.66443 12.82-2.2594 1.6297-1.4768 2.4003-1.6518 3.3021-0.75 0.647 0.647 1.9864 1.1764 2.9764 1.1764 1.3366 0 1.8-0.7787 1.8-3.025 0-2.542-0.4658-3.1182-2.9169-3.6084-2.0684-0.41367-6.0503-3.97-13.688-12.225-11.998-12.967-16.097-15.523-30.738-19.168-7.4403-1.8518-8.5086-1.8883-15.572-0.53198-12.133 2.3295-22.404 8.1679-28.565 16.237-1.9355 2.535-3.5192 4.9358-3.5192 5.3352 0 0.39943 2.1375 1.2764 4.75 1.9487 8.8566 2.2794 18.881 7.138 24.903 12.07 6.5956 5.4015 10.232 11.18 12.881 20.468 2.9651 10.396 4.7214 11.838 8.2204 6.75zm171.2-7.838c3.4873-5.2734 6.9572-9.8246 7.7108-10.114 0.7536-0.28919 1.2498-1.2621 1.1025-2.162-0.2321-1.4184 1.3962-1.7085 12.232-2.1795 6.875-0.29881 13.043-0.14757 13.706 0.33609 0.6634 0.48366 1.6646 0.5961 2.2248 0.24986 2.8945-1.7889-21.762-30.159-27.148-31.236-1.8061-0.36122-3.3877-1.5394-4.0665-3.0291-1.9094-4.1908-8.1201-6.5962-18.262-7.073-11.056-0.51973-18.608 1.2176-26.823 6.1699-3.2276 1.9457-6.1607 3.6699-6.5181 3.8316-1.0074 0.45565-7.1137 10.339-7.1137 11.514 0 0.85419 15.103 6.2803 17.481 6.2803 1.6824 0 12.392 9.3773 15.664 13.715 4.6258 6.1328 6.4621 9.803 7.9469 15.884 2.4599 10.074 3.9339 9.8022 11.862-2.1869zm159.22 3.838c0.815-0.9625 4.0663-6.3732 7.225-12.024l5.7432-10.274 14.18 0.55051c14.588 0.56635 18.155-0.0648 16.18-2.8632-3.1516-4.4665-19.643-21.991-25.33-26.917-9.1373-7.9141-14.203-10.115-27.079-11.765-8.7175-1.1171-11.684-0.48433-23.551 5.0234-6.9712 3.2355-9.1865 4.883-13.443 9.9981-2.8032 3.3683-5.0967 6.4958-5.0967 6.9499 0 1.4903 2.4328 2.7982 6.5 3.4946 11.524 1.9732 22.115 7.9503 29.106 16.426 2.9666 3.5966 5.3938 7.0694 5.3938 7.7175 0 0.64807 0.9252 3.373 2.0559 6.0554s2.4711 5.8896 2.9786 7.1271c1.1055 2.6959 3.1125 2.8912 5.1374 0.5zm345.83 0.25c0-0.825-0.4234-1.5-0.941-1.5-1.261 0-2.1641 1.5616-1.3651 2.3605 1.1261 1.1262 2.3061 0.68589 2.3061-0.86052zm-9.25-3.9984c1.2375-1.9105 2.25-3.9502 2.25-4.5328 0-1.893 9.835-15.692 11.694-16.406 0.9935-0.38201 7.7067-0.38244 14.918-0.00095 9.4891 0.50196 13.309 0.37485 13.825-0.46004 0.4043-0.65425-1.2447-3.6315-3.8093-6.8776-10.532-13.331-17.628-23.505-17.628-25.276 0-2.0357-4.6044-4.9478-7.8232-4.9478-1.0574 0-3.8923-0.86145-6.2997-1.9143-2.4074-1.0529-8.4726-2.4039-13.478-3.0024-10.846-1.2966-17.301-0.34044-24.708 3.6603-5.8441 3.1566-21.037 16.88-21.502 19.422-0.4142 2.2648 2.1483 3.448 8.8994 4.1091 7.6826 0.75233 18.212 6.0281 24.566 12.308 5.3074 5.2463 10.533 14.258 11.84 20.417 1.6627 7.8386 3.7836 8.8621 7.2558 3.5016zm-162.79-7.655c1.5272-3.1093 3.0517-6.7487 3.3877-8.0875s1.5534-3.6323 2.7053-5.0967l2.0943-2.6625h15.427c8.4851 0 15.427-0.24427 15.427-0.54282s-3.7125-4.2401-8.25-8.7589c-4.5375-4.5189-10.5-11.025-13.25-14.458-2.75-3.4329-5.7848-6.4959-6.7441-6.8066-0.9592-0.3107-2.3092-1.0979-3-1.7494-1.569-1.4798-9.6594-4.5358-16.256-6.1404-11.96-2.9094-28.37 1.7599-37.622 10.705-4.1789 4.0402-4.7232 5.8044-2.3886 7.742 2.2359 1.8556 0.8638 3.0091-3.5794 3.0091-2.7198 0-4.1661 0.5048-4.5867 1.6009-0.9005 2.3466 1.1383 3.148 8.0339 3.1579 6.1419 0.009 13.222 2.7396 17.767 6.853 0.9447 0.85489 3.0782 2.3044 4.7413 3.2212 4.7423 2.6143 11.135 9.0485 11.135 11.207 0 1.0778 0.4481 1.9597 0.9958 1.9597s1.7594 2.7466 2.6927 6.1035c1.1848 4.2613 2.3179 6.3464 3.7542 6.9082 2.4883 0.97324 3.6429-0.2812 7.5152-8.165zm-393.33-28.312c0.3094-0.80616-0.4324-4.6804-1.6484-8.6094-1.7742-5.7323-2.1292-8.8542-1.797-15.802 0.5815-12.164 4.3929-20.166 13.973-29.337 3.8678-3.7026 6.8411-7.3068 6.6074-8.0093-0.6419-1.9295-4.9387-2.3415-17.164-1.6461-8.433 0.47971-11.612 0.30953-13.248-0.70922-1.1839-0.73721-3.7459-4.6972-5.6934-8.8-3.924-8.267-10.252-17.622-11.919-17.622-2.298 0-4.7349 3.4057-4.7349 6.6175 0 3.8622-3.3008 13.19-5.8562 16.55-1.855 2.4386-5.1438 14.731-5.1438 19.226 0 3.2355-1.237 3.2832-5.3167 0.20525-1.7508-1.3209-4.8708-3.098-6.9333-3.949l-3.75-1.5473v-8.492c0-4.7097-0.4556-8.7736-1.023-9.1242-0.5626-0.34772-4.2021 1.2007-8.0878 3.441-7.3196 4.22-9.3203 4.8027-10.414 3.0327-1.1304-1.829-8.3636-5.9595-10.436-5.9595-2.1346 0-2.4988 0.97691-3.5413 9.5-0.953 7.7922-1.2496 8.2505-7.489 11.576-3.2307 1.722-6.1593 3.8718-6.5079 4.7774-0.4519 1.1739 1.3948 3.5705 6.4327 8.3486 6.356 6.0281 7.0666 7.0868 7.0666 10.528 0 4.1381 2.2594 8.2704 4.522 8.2704 0.7747 0 3.5373-1.35 6.1391-3 2.6017-1.65 5.7991-3 7.1053-3 1.3356 0 4.5745 1.8548 7.4017 4.2387l5.0269 4.2387 2.0174-2.4887c1.6962-2.0923 1.9224-3.401 1.4203-8.2159-0.4132-3.9623-0.2175-6.0377 0.635-6.7349 7.3797-6.0353 10.909-8.038 14.167-8.038 0.7178 0 1.8829 2.1375 2.5893 4.75 1.7089 6.3204 6.1578 15.983 9.1973 19.975 2.9038 3.8144 10.851 10.264 15.778 12.806 8.3344 4.2985 19.504 5.9249 20.625 3.0033zm157.43-4.0636c2.7611-1.4278 2.9151-1.8095 2.3192-5.75-0.351-2.3214-1.2023-5.9103-1.8917-7.9753-1.0188-3.0515-0.9949-5.2453 0.1276-11.714 1.6938-9.7609 4.943-16.88 10.871-23.819 4.971-5.8189 5.0712-6.0802 3.267-8.5222-0.9654-1.3067-3.8273-1.8976-12.571-2.5958-6.2267-0.49713-11.402-1.0593-11.5-1.2492-0.098-0.18995-1.1491-2.1454-2.3352-4.3454s-4.023-7.701-6.3041-12.224c-5.7697-11.441-6.0522-11.491-8.6415-1.5376-0.8244 3.1691-3.4427 10.037-5.8184 15.262-2.3758 5.225-4.627 11.3-5.0028 13.5-1.5595 9.1294-2.4986 9.3859-12.652 3.4559-7.5608-4.4157-7.4943-4.2759-6.986-14.7 0.1976-4.0529-0.1089-5.384-1.3495-5.8601-2.4527-0.94119-7.7169 2.0972-11.396 6.5773-3.7298 4.5426-6.1935 5.2138-6.1935 1.6874 0-1.4093-0.8946-2.8094-2.25-3.5214-1.2375-0.65006-3.779-2.2973-5.6479-3.6605-1.8688-1.3632-4.2313-2.4786-5.25-2.4786-1.6519 0-1.8538 0.89175-1.8674 8.25-0.01 4.5375-0.4139 8.8796-0.9011 9.649-0.4872 0.76947-3.9358 3.2445-7.6636 5.5s-6.9211 4.551-7.0963 5.101 2.1836 2.3075 5.2417 3.9055c9.5775 5.0047 10.435 5.9988 10.435 12.102 0 9.0285 3.4078 14.211 6.47 9.8388 0.7383-1.0541 3.6294-2.9878 6.4246-4.297 4.626-2.1667 5.2403-2.2409 6.8438-0.82716 3.2704 2.8835 14.126 7.8065 14.802 6.7127 0.3541-0.5729 0.3783-3.6051 0.054-6.7383-0.3245-3.1332-0.2353-7.2695 0.1981-9.192 0.6726-2.9833 1.6089-3.8889 6.3915-6.1817 7.8252-3.7516 9.2555-3.8764 9.4271-0.82297 0.2356 4.1952 4.1786 13.975 7.8862 19.561 4.422 6.6621 9.8351 11.316 17.78 15.287 6.97 3.4836 10.444 3.8648 14.78 1.6224zm173.5 0.43429c0.3722-0.60228-0.2865-2.398-1.4639-3.9904-3.1054-4.2003-4.1189-22.16-1.6916-29.978 2.0882-6.7267 5.6797-14.169 7.3538-15.24 1.7196-1.0993 11.243-13.763 11.243-14.951 0-0.57928-4.63-0.77857-11.75-0.50574-6.4625 0.24763-12.875 0.0413-14.25-0.4585-3.659-1.33-8-5.8307-8-8.2943 0-1.1762-1.183-3.2295-2.6289-4.5629s-3.2728-3.7743-4.0599-5.4243-2.0725-4.125-2.8564-5.5-1.4544-4.525-1.4899-7l-0.065-4.5-2.9378 6c-1.6158 3.3-3.2185 7.575-3.5616 9.5-0.9608 5.3907-3.5416 13-4.409 13-1.4492 0-3.074 6.1128-5.3872 20.267-0.9802 5.9976-0.9998 8.1617-0.086 9.5 0.6507 0.95319 1.4722 3.9114 1.8256 6.5737 1.434 10.804 8.9453 22.658 18.163 28.664 9.7228 6.3347 24.055 10.131 26.052 6.9004zm168.82-2.7146c0.2752-0.4453-0.8057-3.3988-2.4019-6.5633-2.5211-4.998-2.9216-6.9602-3.05-14.94-0.1467-9.1117 1.9817-19.896 4.1968-21.265 0.5478-0.33859 1.4072-1.6969 1.9096-3.0185 0.5025-1.3216 1.5104-2.4029 2.2397-2.4029 0.7294 0 3.328-2.1017 5.7748-4.6705 6.6757-7.0086 12.243-10.304 27.746-16.423 1.2633-0.49866 4.8633-0.93347 8-0.96626 3.1366-0.0328 7.7279-0.44352 10.203-0.91274 2.475-0.46922 6.1645-1.1725 8.1988-1.5629 2.8624-0.5493 5.8021-2.7787 13-9.859 11.662-11.471 12.348-12.365 14.768-19.251 1.0905-3.1027 2.6691-6.3997 3.5081-7.3268 0.8389-0.92701 1.5186-3 1.5105-4.6067-0.039-7.752-6.8378-27.248-9.0295-25.894-0.5256 0.32487-0.9557 1.1775-0.9557 1.8948 0 1.3031-6.0126 7.1044-13.92 13.431-2.5086 2.007-6.3707 3.8598-9.6207 4.6153-2.9863 0.69419-6.0916 1.8115-6.9006 2.483-0.809 0.67144-1.9722 0.91106-2.5847 0.53248-0.6126-0.37858-4.5698-0.84527-8.7938-1.0371-4.2241-0.19182-9.6492-1.0458-12.056-1.8978-2.4067-0.85195-4.8254-1.549-5.375-1.549-1.7825 0 0.1173 5.957 3.6072 11.311 9.1579 14.05 10.018 16.777 6.7746 21.479-5.4491 7.9003-10.156 15.338-12.026 19.004-2.795 5.4786-8.9116 8.9451-15.105 8.5604-16.237-1.0083-22.224-1.7745-22.655-2.8991-0.2606-0.67901-1.3447-1.0068-2.4092-0.72843-1.0763 0.28147-1.9354 0.001-1.9354-0.63155 0-0.62572-1.3057-3.9407-2.9016-7.3666-4.5083-9.6781-5.8884-13.005-6.6321-15.988-0.7779-3.1207-2.0207-4.2706-2.9647-2.7431-0.3502 0.56654-1.5235 4.2306-2.6075 8.1422-1.084 3.9117-3.5111 10.093-5.3936 13.736-8.8647 17.156-8.6978 31.563 0.5474 47.263 6.0287 10.238 14.588 16.575 27.452 20.328 3.3 0.96251 6.45 1.8907 7 2.0627 1.7779 0.55595 2.3724 0.48602 2.8823-0.33904zm3.2494-50.977c-0.3412-0.55199 0.071-1.2689 0.9158-1.5931s2.1746-2.0588 2.9551-3.8548c0.9994-2.2998 1.42-2.674 1.4222-1.2653 0 2.4671-4.4367 8.099-5.2931 6.7132zm40.368-57.772c0-0.85746 0.45-1.2809 1-0.94098s1 1.0415 1 1.559c0 0.51754-0.45 0.94098-1 0.94098s-1-0.70156-1-1.559zm-304.07 89.985c7.6949-5.3006 8.2563-5.5193 11.459-4.4624 1.8521 0.61125 4.1294 1.9533 5.0607 2.9823 2.2481 2.4841 7.1141 4.4345 9.1319 3.6602 1.358-0.52111 1.5625-2.0049 1.2679-9.1979l-0.3512-8.5765 6-4.2011c4.4737-3.1324 6.0808-4.8947 6.3175-6.9275 0.2895-2.4857-0.264-2.9873-6.2685-5.6814-3.6223-1.6252-6.8773-3.7139-7.2333-4.6416-0.3559-0.92763-0.1639-3.4971 0.4267-5.71 0.6566-2.46 0.7316-4.9239 0.1929-6.3408-1.2849-3.3795-7.7616-2.9626-13.007 0.8374-4.0963 2.9674-6.3824 3.5247-7.4397 1.8139-0.9541-1.5437-10.151-5.981-12.396-5.981-2.7917 0-3.404 1.4932-3.2354 7.8899 0.2307 8.7559-0.6287 10.426-7.8547 15.262-3.5738 2.3917-6.6194 5.0235-6.7681 5.8485-0.1764 0.97922 2.4267 2.8888 7.4978 5.5 8.6922 4.4758 8.5801 4.1975 6.1267 15.215-0.9178 4.1218-0.8942 5.537 0.1125 6.75 0.7006 0.84416 1.6328 1.5348 2.0716 1.5348s4.439-2.5082 8.8892-5.5737zm168.73-1.1802c8.876-6.8846 9.713-7.0882 15.875-3.8622 2.9527 1.5459 6.8528 2.8795 8.6669 2.9635l3.2983 0.1527-0.3254-8.1531-0.3255-8.1531 7.8255-4.3859c4.304-2.4122 7.8254-4.9978 7.8254-5.7458 0-1.2275-8.4185-6.5613-14.335-9.0822-2.2457-0.95691-2.3101-1.2896-1.6902-8.7374 0.3544-4.2584 0.8833-9.0032 1.1753-10.544l0.531-2.8013-3.6802 1.5376c-2.024 0.84571-5.0438 2.6852-6.7106 4.0876-5.6393 4.7452-8.4116 5.7273-11.541 4.0884-1.5125-0.7922-4.2669-3.0188-6.1208-4.9479-2.2208-2.3109-3.9241-3.2952-4.9926-2.8852-0.892 0.34228 0.2509-1.3802 2.5397-3.8277 13.787-14.743 19.163-27.525 18.08-42.985-0.4443-6.3398-3.8954-14.845-6.3564-15.665-0.5534-0.18448-4.5822 3.0954-8.9528 7.2886s-10.168 8.7514-12.884 10.129c-4.6824 2.3762-7.5809 3.049-22.347 5.1869-11.869 1.7185-14.431 5.8777-8.8574 14.383 5.1209 7.815 5.1287 8.3203 0.2524 16.441-2.3873 3.9756-5.6389 9.9602-7.2257 13.299-2.2755 4.7876-3.4665 6.1924-5.6353 6.6466-1.5125 0.31681-2.75 0.99015-2.75 1.4963 0 1.1371 5.6542 0.19881 13.082-2.171 3.0704-0.97952 8.2454-2.3099 11.5-2.9564 3.2546-0.64648 9.6814-2.1015 14.282-3.2334 9.4153-2.3166 10.086-2.0389 10.129 4.1904 0.013 1.925 0.2684 5.75 0.5672 8.5l0.5433 5-7.1235 3.235c-6.0964 2.7685-7.0771 3.5615-6.8019 5.5 0.2319 1.6336 1.9926 3.1014 6.3161 5.265 3.4748 1.7389 6.5162 4.0509 7.2353 5.5 0.6823 1.375 1.2473 6.2125 1.2554 10.75 0.017 9.7365 0.5308 10.037 7.6749 4.496zm-544.66-40.74c0.6847-0.825 2.8773-1.5107 4.8724-1.5239 1.9952-0.0131 5.4276-0.50385 7.6276-1.0905 2.2-0.58666 6.25-1.4331 9-1.8809 10.008-1.6297 18.953-5.8326 25.248-11.863 10.392-9.9545 17.106-24.804 15.873-35.104-1.6846-14.067-1.7405-14.181-7.7784-15.828-3.4303-0.93585-3.9113-0.76791-7.75 2.706-2.4675 2.2331-4.0926 4.5924-4.0926 5.9416 0 1.2308-1.2031 3.3528-2.6735 4.7155-2.7229 2.5235-5.0741 2.7224-4.5201 0.38249 0.2452-1.0354 0.01-1.0466-1.1861-0.0556-1.0687 0.88699-2.0379 0.94674-3.4137 0.21047-1.3333-0.71357-3.1123-0.68406-5.8139 0.0965-2.141 0.61851-7.9427 1.0741-12.893 1.0125-8.8948-0.11082-14.5 1.0645-14.5 3.0404 0 2.2389 8.1636 17.866 9.6264 18.427 1.9688 0.7555 1.217 5.3192-1.507 9.1473-3.4532 4.8529-10.119 17.975-10.119 19.92 0 3.3769 1.9426 4.2247 4 1.7456zm14-30.5c0-0.55 0.8734-1 1.941-1 1.0675 0 2.2191 0.45 2.559 1 0.3505 0.56716-0.4896 1-1.941 1-1.4074 0-2.559-0.45-2.559-1zm157.23 30.084c3.4491-1.0539 8.971-2.4544 12.271-3.1121 12.186-2.4287 16.674-4.1464 24.189-9.2578 8.5942-5.8454 16.143-15.527 18.46-23.673 1.8311-6.4397 1.5359-21.874-0.6156-32.186-0.7281-3.4895-0.6281-3.6746 2.3366-4.3258 6.7274-1.4776 22.233 5.6591 29.751 13.693 5.3752 5.7442 9.2448 12.13 10.471 17.278 1.1615 4.8784 3.3324 8.5 5.095 8.5 0.482 0 1.159-0.7875 1.5044-1.75 0.3455-0.9625 3.1438-6.3793 6.2186-12.037l5.5906-10.287 13.752 0.23513c14.651 0.25048 16.902-0.35053 15.165-4.0488-0.5046-1.0745-6.9924-8.318-14.417-16.097-7.425-7.7787-13.658-14.587-13.85-15.13-1.0094-2.8438 2.3273-6.8993 8.1128-9.8604 6.4789-3.316 8.8969-3.3643 15.479-0.30923 1.783 0.82755 3.9071 1.2494 4.7202 0.93735 1.4998-0.57553 1.7139-1.2544 3.2018-10.153 0.8221-4.9162 0.945-5.0551 7.3361-8.2874 3.575-1.808 6.6363-3.8979 6.803-4.6442 0.3382-1.5148-3.1154-4.1999-9.6688-7.5173l-4.3658-2.21 0.412-9.4206c0.2266-5.1813 0.1045-9.4206-0.2713-9.4206s-4.4943 2.0273-9.1522 4.5052l-8.4688 4.5052-3.5202-2.7974c-1.936-1.5386-5.4274-3.6575-7.7586-4.7087-4.1863-1.8878-4.2551-1.8872-5.5898 0.0422-0.7432 1.0744-1.871 2.5552-2.5062 3.2907-0.8602 0.99588-0.8689 1.9649-0.034 3.7971 0.6164 1.353 1.1208 4.1835 1.1208 6.29 0 3.5926-0.4384 4.15-7.0712 8.9894-3.8891 2.8376-6.9266 5.5706-6.75 6.0733 0.1767 0.50267 3.2299 2.4588 6.785 4.347 4.915 2.6105 6.6554 4.1199 7.2637 6.2996 1.0652 3.8173 0.018 9.8412-2.1823 12.559-1.6407 2.0262-2.571 2.1845-11.894 2.023-8.7743-0.15197-11.224 0.20245-18.496 2.6758-4.6102 1.5681-9.9528 3.9215-11.872 5.2298-6.3395 4.321-15.783 13.725-15.783 15.718 0 1.2093-0.8923 2.1683-2.3601 2.5367-1.298 0.32579-3.395 2.1026-4.6598 3.9486-1.2649 1.8459-3.7174 4.3276-5.4501 5.5149s-4.0767 3.0217-5.2089 4.0764c-3.456 3.2198-11.546 6.8105-16.821 7.4655-2.75 0.3415-8.4378 0.26644-12.64-0.1668-9.7811-1.0085-12.86-0.0725-12.86 3.909 0 3.3125 2.7159 9.1216 7.0837 15.151 3.5963 4.9646 3.6201 6.2258 0.2122 11.241-5.1302 7.5497-11.415 19.733-10.887 21.107 0.7267 1.8939 4.4093 1.7261 11.82-0.53853zm159.57-2.4449c1.4852-0.74863 5.3359-1.6582 8.5571-2.0213 11.508-1.2971 29.485-8.6673 35.259-14.455 12.374-12.405 16.705-22.335 15.399-35.309-0.9383-9.3203-2.6306-14.87-5.639-18.494l-2.3734-2.8588-2.2509 2.8839c-8.0957 10.372-17.091 16.93-25.626 18.68-3.0938 0.63435-6.132 1.5635-6.7515 2.0648-0.6813 0.55133-4.435 0.48587-9.5-0.16566-4.6055-0.59244-9.2736-1.1639-10.374-1.2699-1.7486-0.1685-1.9751 0.35246-1.802 4.1447 0.1317 2.8842 1.053 5.4584 2.75 7.6833 1.4036 1.8402 2.552 3.5783 2.552 3.8624 0 0.28412 1.35 2.5169 3 4.9617s3 5.305 3 6.356-2.2358 5.3509-4.9685 9.5554c-5.1621 7.9424-6.652 11.684-5.6707 14.242 0.7067 1.8418 1.0437 1.8525 4.4389 0.1411zm-222.45-28.389c2.8984-6.5794 12.608-23.437 14.103-24.485 0.5764-0.40408 8.5855-0.74158 17.798-0.75 12.726-0.0116 16.75-0.31563 16.749-1.2653-0.0006-0.6875-2.9131-4.0958-6.4724-7.5739-3.5592-3.4782-8.472-9.3282-10.917-13-5.1156-7.6816-10.884-14.095-14.891-16.556-3.1753-1.95-2.8794-3.5652 0.5337-2.9127 1.535 0.29343 4.3279-0.91487 8.4-3.6341 3.3552-2.2405 6.5994-4.0737 7.2093-4.0737s3.2531 1.2997 5.8739 2.8882c5.9809 3.6252 8.8898 4.5278 9.8074 3.0433 0.3908-0.63244 0.8965-4.5882 1.1236-8.7907 0.4562-8.4396 1.1465-9.4747 7.4503-11.172 2.0229-0.54472 3.9493-1.6973 4.2809-2.5613 1.1427-2.978 0.6338-5.4062-1.1472-5.4738-0.9625-0.0365-3.775-1.5343-6.25-3.3284l-4.5-3.262-0.5-7.8182c-0.6558-10.255-2.0199-11.281-8.2303-6.1925-2.4616 2.0171-5.4642 3.6675-6.6723 3.6675-2.3526 0-7.6949-2.434-8.257-3.7619-0.6172-1.458-7.9736-5.2738-8.9746-4.6551-0.5716 0.35326-0.8031 4.0976-0.5549 8.9757 0.4909 9.6501 0.3122 9.9453-8.3449 13.784-3.0063 1.333-6.2571 3.3032-7.2241 4.3782-1.6775 1.8648-1.6775 2.0265 0 3.5238 0.967 0.86311 3.5991 2.0592 5.8493 2.6581 6.0643 1.6139 7.3518 3.5807 7.5234 11.492 0.217 10.01-0.4354 10.423-13.01 8.2218-7.7549-1.3573-11.143-1.522-15.284-0.74284-12.532 2.3577-19.794 6.2913-28.646 15.517-7.8318 8.1629-7.7886 9.6212 0.329 11.105 9.4018 1.7187 20.432 7.5546 26.128 13.823 5.1795 5.7004 9.4974 15.394 11.363 25.508 1.5658 8.4896 2.7796 9.2656 5.3537 3.4227zm505.15-20.485c3.3-4.7174 6.5033-9.4069 7.1185-10.421 1.0168-1.6764 2.4946-1.8263 16.25-1.6481 18.021 0.23343 18.342-0.0794 9.5755-9.332-3.0557-3.2252-7.345-8.6016-9.5316-11.948-2.4799-3.7947-5.4688-6.9228-7.9441-8.314-2.1956-1.234-3.9683-2.9904-3.9683-3.9317 0-1.5719 14.374-12.14 16.584-12.193 0.5039-0.0121 4.1548 1.6754 8.1131 3.75 4.6742 2.4498 7.5129 3.4214 8.0983 2.7719 0.5074-0.56287 0.5836-4.4971 0.1743-9-0.7918-8.7117-0.3255-10.04 3.8496-10.966 3.1018-0.68819 11.17-7.4383 9.6809-8.0994-0.55-0.24416-3.925-2.359-7.5-4.6996l-6.5-4.2557-0.2875-9.2396c-0.1582-5.0818-0.6774-9.2396-1.154-9.2396-0.4765 0-3.6528 1.575-7.0585 3.5s-7.2412 3.5-8.5234 3.5-5.3529-1.575-9.0461-3.5c-3.6931-1.925-7.6088-3.5-8.7015-3.5-1.7777 0-1.931 0.49953-1.457 4.75 0.2914 2.6125 0.2368 7.1716-0.1211 10.131l-0.6509 5.3814-6.5 3.6682c-3.575 2.0175-6.5 4.3129-6.5 5.1008 0 0.78798 3.0279 3.2536 6.7287 5.4792s7.1313 4.4836 7.6233 5.0178c0.4921 0.53422 1.1792 5.2655 1.527 10.514l0.6322 9.5426-5.9094-0.0426c-5.1334-0.037-6.244-0.40374-8.4578-2.7926-2.7196-2.9346-5.4168-3.3553-17.943-2.7988-8.1148 0.36051-17.356 5.0821-26.451 13.514-3.9875 3.697-7.2494 7.2422-7.2487 7.8782 0 0.99862 3.6899 2.0066 19.49 5.3258 5.349 1.1237 15.311 9.6282 19.591 16.725 2.1548 3.5728 3.9179 6.7287 3.9179 7.0132 0 2.2433 4.4252 11.618 5.3416 11.316 0.6371-0.20991 3.8584-4.2413 7.1584-8.9587zm-563.73-27.31c2.5874-1.8123 2.8678-5.2948 0.7552-9.3802-1.1219-2.1694-1.3681-5.5128-1.0456-14.2 0.4599-12.391 1.6066-15.956 7.5163-23.363 3.6259-4.5446 6.3713-9.4586 5.6741-10.156-0.9543-0.95427-22.792-0.96743-23.382-0.0141-0.3495 0.56547-1.0608 0.3497-1.6986-0.51526-0.6036-0.81848-2.0462-1.9934-3.2059-2.611-1.4913-0.79411-2.2941-2.477-2.7426-5.7485-0.7979-5.8218-3.9702-10.455-7.158-10.455-1.3051 0-2.6931-0.51817-3.0845-1.1515-1.0192-1.649-3.4064 1.8937-3.4064 5.055 0 1.5126-1.0332 3.3451-2.5826 4.5806-2.2917 1.8274-2.672 3.0702-3.3773 11.038-0.8264 9.3364-1.4789 11.953-3.6102 14.478-1.0319 1.2226-0.9435 2.1605 0.4779 5.0707 0.9593 1.9639 2.2601 6.1403 2.8909 9.281 0.6307 3.1406 2.37 7.3838 3.8652 9.4293 3.7386 5.1149 8.5453 10.219 9.6233 10.219 0.4922 0 2.7067 1.5508 4.9211 3.4463s5.3183 3.7301 6.8975 4.0769c1.5792 0.34685 3.128 1.046 3.4417 1.5537 0.9101 1.4726 6.8003 1.0682 9.23-0.63364zm169.65 0.68066c0.2978-0.48182-0.5757-4.0734-1.941-7.9812-2.9319-8.3917-3.26-17.721-0.9384-26.683 1.7637-6.8085 4.5294-11.39 12.116-20.071 5.053-5.7821 6.3726-8.6331 4.5245-9.7753-0.8806-0.54428-14.858-0.77437-22.184-0.36516-3.835 0.21422-4.6459-0.0811-5.4871-1.9986-0.5429-1.2375-1.7193-2.25-2.6142-2.25-1.0227 0-2.2929-1.7642-3.4198-4.75-2.0781-5.5059-7.2345-14.981-8.6181-15.836-1.6509-1.0203-3.5684 1.4661-4.9012 6.3551-0.7094 2.602-2.4955 7.431-3.9691 10.731s-3.221 8.198-3.8831 10.884c-0.6621 2.6864-2.078 6.5979-3.1464 8.6922-1.0685 2.0943-1.6611 4.5413-1.3171 5.4378 0.3563 0.92856-0.268 2.8386-1.4508 4.4384l-2.0763 2.8084 2.4126 2.2665c1.3269 1.2466 2.9328 3.8878 3.5686 5.8695 1.8167 5.6622 5.8958 11.865 12.402 18.859 6.6907 7.1922 10.218 9.317 20.179 12.157 7.7506 2.21 9.9722 2.4603 10.744 1.2109zm497.64-6.1591c2.0782-1.1122 2.6032-3.5752 0.8843-4.1482-1.2449-0.41497-1.5972-17.412-0.4833-23.317 0.415-2.2 1.6048-5.4882 2.644-7.3072 1.0391-1.8189 1.8893-3.9798 1.8893-4.8019 0-2.633 4.4208-9.2798 6.523-9.8074 1.1178-0.28055 3.3476-1.8829 4.9551-3.5607 2.5852-2.6983 2.7512-3.2222 1.4373-4.536-0.9092-0.90919-5.9328-2.0789-12.95-3.0153-11.808-1.5758-15.965-2.7189-15.965-4.3909 0-0.8773-6.3167-15.186-9.2706-21-0.6762-1.3309-1.7632-2.5964-2.4157-2.8121-1.6179-0.53501-4.3227 3.8258-5.4302 8.7549-0.5022 2.2349-1.9656 5.7315-3.2522 7.7702-1.2865 2.0387-2.6767 4.8318-3.0893 6.2068s-1.3266 3.4176-2.031 4.5391-2.0527 5.509-2.9962 9.75c-1.6146 7.257-1.6161 8.167-0.026 15.461 3.8111 17.48 13.32 29.383 27.786 34.781 7.1027 2.6504 9.0708 2.8898 11.791 1.4342zm64.046 68.244c-0.7635-1.8099-2.676-5.0685-4.25-7.2413-3.1153-4.3006-3.8178-9.6638-1.3879-10.596 0.8106-0.31107 2.7231-3.1094 4.25-6.2186l2.7761-5.653 0.2904 8.25c0.1598 4.5375 0.1598 11.962 0 16.5-0.2836 8.0578-0.3227 8.1733-1.6786 4.9593z"/>
  </g>
  <metadata>
    <rdf:RDF>
      <cc:Work>
        <dc:format>image/svg+xml</dc:format>
        <dc:type rdf:resource="http://purl.org/dc/dcmitype/StillImage"/>
        <cc:license rdf:resource="http://creativecommons.org/licenses/publicdomain/"/>
        <dc:publisher>
          <cc:Agent rdf:about="http://openclipart.org/">
            <dc:title>Openclipart</dc:title>
          </cc:Agent>
        </dc:publisher>
      </cc:Work>
      <cc:License rdf:about="http://creativecommons.org/licenses/publicdomain/">
        <cc:permits rdf:resource="http://creativecommons.org/ns#Reproduction"/>
        <cc:permits rdf:resource="http://creativecommons.org/ns#Distribution"/>
        <cc:permits rdf:resource="http://creativecommons.org/ns#DerivativeWorks"/>
      </cc:License>
    </rdf:RDF>
  </metadata>
</svg>
