<?xml version="1.0" encoding="UTF-8" standalone="no"?>
<svg
   width="210mm"
   height="297mm"
   viewBox="0 0 210 297"
   version="1.1"
   id="svg8"
   inkscape:version="1.2 (dc2aedaf03, 2022-05-15)"
   sodipodi:docname="Rosace.svg"
   xmlns:inkscape="http://www.inkscape.org/namespaces/inkscape"
   xmlns:sodipodi="http://sodipodi.sourceforge.net/DTD/sodipodi-0.dtd"
   xmlns:xlink="http://www.w3.org/1999/xlink"
   xmlns="http://www.w3.org/2000/svg"
   xmlns:svg="http://www.w3.org/2000/svg"
   xmlns:rdf="http://www.w3.org/1999/02/22-rdf-syntax-ns#"
   xmlns:cc="http://creativecommons.org/ns#"
   xmlns:dc="http://purl.org/dc/elements/1.1/">
  <title
     id="title376">Rosace pattern</title>
  <defs
     id="defs2">
    <pattern
       inkscape:collect="always"
       xlink:href="#pattern6259"
       id="pattern6314"
       patternTransform="matrix(0.13763883,0,0,0.13763883,110.40324,202.21429)" />
    <linearGradient
       inkscape:collect="always"
       id="linearGradient2828">
      <stop
         style="stop-color:#ffffff;stop-opacity:1;"
         offset="0"
         id="stop2822" />
      <stop
         style="stop-color:#ffffff;stop-opacity:1"
         offset="0.40000001"
         id="stop2824" />
      <stop
         style="stop-color:#85fff0;stop-opacity:1"
         offset="1"
         id="stop2826" />
    </linearGradient>
    <rect
       x="36.585816"
       y="9.0112848"
       width="72.33267"
       height="18.707253"
       id="rect3288" />
    <rect
       x="36.585816"
       y="9.0112848"
       width="72.33267"
       height="18.707253"
       id="rect4277" />
    <clipPath
       clipPathUnits="userSpaceOnUse"
       id="clipPath7523-0">
      <rect
         y="36.575569"
         x="19.297911"
         height="121.36075"
         width="144.48102"
         id="rect7525-4"
         style="opacity:0.2;vector-effect:none;fill:#ff0000;fill-opacity:1;stroke:none;stroke-width:0.5;stroke-linecap:butt;stroke-linejoin:miter;stroke-miterlimit:4;stroke-dasharray:none;stroke-dashoffset:0;stroke-opacity:1;marker:none;paint-order:normal" />
    </clipPath>
    <rect
       x="36.585816"
       y="9.0112848"
       width="72.33267"
       height="18.707253"
       id="rect6939" />
    <pattern
       patternUnits="userSpaceOnUse"
       width="232.07628"
       height="194.93876"
       patternTransform="translate(731.73796,512.37193)"
       id="pattern7144">
      <g
         id="use7142"
         clip-path="url(#clipPath7523-0)"
         transform="matrix(1.6062752,0,0,1.6062752,-30.997748,-58.750421)">
        <rect
           y="36.575569"
           x="19.297911"
           height="121.36074"
           width="144.48102"
           id="rect5358"
           style="opacity:1;vector-effect:none;fill:#036083;fill-opacity:1;stroke:none;stroke-width:1.5875;stroke-linecap:butt;stroke-linejoin:miter;stroke-miterlimit:4;stroke-dasharray:none;stroke-dashoffset:0;stroke-opacity:1;marker:none;paint-order:normal" />
        <path
           id="path5360"
           transform="scale(0.26458333)"
           d="m 107.41016,138.23828 1.99609,45.86524 -1.29883,70.44531 -0.13281,84.17578 1.36133,16.79492 -0.57032,13.05859 0.11329,3.69336 -1.17383,35.93164 h -0.004 L 106.47656,448 l 2.92969,67.34375 -1.29883,70.44531 -0.69726,11.13549 h 1.89069 l 0.6972,-11.11986 0.41797,-22.69531 0.52745,33.81517 h 4.43555 l 0.69327,-11.11986 1.30664,-70.48242 -2.22657,-51.0293 0.32227,-3.96485 -0.72852,-22.25585 0.91602,-29.69141 h 0.004 l 1.70507,-52.10156 -1.43164,-17.62696 0.13282,-84.08007 1.30664,-70.49024 -2,-45.84375 h -4.43555 l -0.67969,8.34375 0.0234,14.28516 -0.98633,-22.62891 z m 134.44726,0 -1.22265,39.70117 2.92968,67.34375 -1.29883,70.44532 -0.13281,84.17578 1.36133,16.79492 -0.57031,13.05859 0.11328,3.69336 -1.17383,35.93164 h -0.004 l -1.22461,39.79688 2.92968,67.34375 -1.70703,20.40111 h 1.89253 l 4.45903,-53.39916 -1.42396,32.99805 -2.6366,20.40111 h 5.67578 l 0.03,-20.4226 -0.54367,-51.02929 0.32226,-3.96485 -0.72851,-22.25586 0.91601,-29.6914 h 0.004 l 1.70508,-52.10157 -1.43164,-17.62695 0.13281,-84.08008 1.30664,-70.49023 -2.22656,-51.0293 0.32226,-3.96484 -0.72851,-22.25586 0.91992,-29.77344 h -1.89258 -3.7832 l 1.70508,51.93945 -1.43164,17.58399 0.0234,14.28516 -1.92187,-44.12305 1.22656,-39.68555 z m 132.4043,0 1.99609,45.86524 -1.29883,70.44531 -0.13281,84.17578 1.36133,16.79492 -0.57031,13.05859 0.11328,3.69336 -1.17383,35.93164 h -0.004 L 373.32812,448 l 2.92969,67.34375 -1.29883,70.44531 -0.69726,11.13549 h 1.89068 l 0.69721,-11.11986 0.41797,-22.69531 -0.16151,33.89697 5.1245,-0.0818 0.69326,-11.11986 1.30664,-70.48242 -2.22656,-51.0293 0.32226,-3.96485 -0.72851,-22.25585 0.91601,-29.69141 h 0.004 l 1.70508,-52.10156 -1.43164,-17.62696 0.13281,-84.08007 1.30664,-70.49024 -2,-45.84375 h -4.43555 l -0.67969,8.34375 0.0234,14.28516 -0.98633,-22.62891 z m 134.44531,0 -1.22265,39.70117 2.92968,67.34375 -1.29883,70.44532 -0.13281,84.17578 1.36133,16.79492 -0.57031,13.05859 0.11328,3.69336 -1.17383,35.93164 h -0.004 l -1.2246,39.79688 2.92968,67.34375 -1.70694,20.40111 h 1.8926 l 4.46081,-53.39916 -1.07232,30.28533 L 511,596.92455 h 5.67577 l 0.15549,-16.95635 -0.66926,-54.49554 0.32227,-3.96485 -0.72852,-22.25586 0.91602,-29.6914 h 0.004 l 1.70508,-52.10157 -1.43164,-17.62695 0.13281,-84.08008 1.30664,-70.49023 -2.22656,-51.0293 0.32227,-3.96484 -0.72852,-22.25586 0.91992,-29.77344 H 514.7832 511 l 1.70508,51.93945 -1.43164,17.58399 0.0215,14.28516 -1.92187,-44.12305 1.22656,-39.68555 z m -394.65625,12.86719 1.43945,32.99805 -1.08984,58.76953 -0.22461,-12.10743 z m 266.85156,0 1.43946,32.99805 -1.08985,58.76953 -0.22461,-12.10743 z m -132.69336,61.17969 1.43946,32.99804 -1.08985,58.76953 -0.22461,-12.10742 z m 266.85157,0 1.43945,32.99804 -1.08984,58.76953 -0.22461,-12.10742 z m -404.64453,19.58593 1.2871,69.35352 -1.70507,39.07422 -0.13282,-1.64649 0.13282,-84.08007 z m 266.85156,0 1.28711,69.35352 -1.70508,39.07422 -0.13281,-1.64649 0.13281,-84.08007 z m -132.69336,61.17969 1.28711,69.35352 -1.70508,39.07422 -0.13281,-1.64649 0.13281,-84.08008 z m 266.85156,0 1.28711,69.35352 -1.70508,39.07422 -0.13281,-1.64649 0.13281,-84.08008 z m -397.36719,40.86719 -0.008,4.80664 1.43164,17.59961 -1.70117,51.8789 h -0.004 l -0.004,0.10743 -0.004,-0.13672 h -0.004 l -1.2207,-39.56641 z m 266.85157,0 -0.008,4.80664 1.43164,17.59961 -1.70117,51.8789 h -0.004 l -0.004,0.10743 -0.004,-0.13672 h -0.004 l -1.22071,-39.56641 z m -132.69336,61.17969 -0.008,4.80664 1.43164,17.59961 -1.70117,51.8789 h -0.004 l -0.004,0.10742 -0.004,-0.13671 h -0.004 l -1.22071,-39.56641 z m 266.85156,0 -0.008,4.80664 1.43164,17.59961 -1.70117,51.8789 h -0.004 l -0.004,0.10742 -0.004,-0.13671 h -0.004 l -1.2207,-39.56641 z m -405.27148,7.01757 0.19335,6.28711 h 0.004 l 1.70117,51.83594 -1.43164,17.57617 0.0234,14.29297 -1.92188,-44.12304 1.22266,-39.60352 h 0.004 z m 266.85156,0 0.19336,6.28711 h 0.004 l 1.70118,51.83594 -1.43165,17.57617 0.0234,14.29297 -1.92187,-44.12304 1.22265,-39.60352 h 0.002 z m -132.69336,61.17969 0.19336,6.28711 h 0.004 l 1.70118,51.83594 -1.43164,17.57617 0.0234,14.29297 -1.92187,-44.12305 1.22265,-39.60351 h 0.004 z m 266.85156,0 0.19336,6.28711 h 0.004 l 1.70117,51.83594 -1.43164,17.57617 0.0215,14.29297 -1.92187,-44.12305 1.22265,-39.60351 h 0.004 z m -396.75586,19.05078 1.43945,32.99805 -1.08984,58.76953 -0.22461,-12.10742 z m 266.85156,0 1.43946,32.99805 -1.08985,58.76953 -0.22461,-12.10742 z"
           style="color:#000000;font-style:normal;font-variant:normal;font-weight:normal;font-stretch:normal;font-size:medium;line-height:normal;font-family:sans-serif;font-variant-ligatures:normal;font-variant-position:normal;font-variant-caps:normal;font-variant-numeric:normal;font-variant-alternates:normal;font-feature-settings:normal;text-indent:0;text-align:start;text-decoration:none;text-decoration-line:none;text-decoration-style:solid;text-decoration-color:#000000;letter-spacing:normal;word-spacing:normal;text-transform:none;writing-mode:lr-tb;direction:ltr;text-orientation:mixed;dominant-baseline:auto;baseline-shift:baseline;text-anchor:start;white-space:normal;shape-padding:0;clip-rule:nonzero;display:inline;overflow:visible;visibility:visible;opacity:1;isolation:auto;mix-blend-mode:normal;color-interpolation:sRGB;color-interpolation-filters:linearRGB;solid-color:#000000;solid-opacity:1;vector-effect:none;fill:#ffffff;fill-opacity:1;fill-rule:nonzero;stroke:none;stroke-width:3.77953;stroke-linecap:butt;stroke-linejoin:miter;stroke-miterlimit:4;stroke-dasharray:none;stroke-dashoffset:0;stroke-opacity:1;color-rendering:auto;image-rendering:auto;shape-rendering:auto;text-rendering:auto;enable-background:accumulate"
           inkscape:connector-curvature="0"
           sodipodi:nodetypes="cccccccccccccccccccccccccccccccccccccccccccccccccccccccccccccccccccccccccccccccccccccccccccccccccccccccccccccccccccccccccccccccccccccccccccccccccccccccccccccccccccccccccccccccccccccccccccccccccccccccccccccccccccccccccccccccccccccccccccccccccccccccccccccccccccccccccccccccccccccccccccc" />
        <path
           style="opacity:1;vector-effect:none;fill:#ffffff;fill-opacity:1;stroke:none;stroke-width:1.5875;stroke-linecap:butt;stroke-linejoin:miter;stroke-miterlimit:4;stroke-dasharray:none;stroke-dashoffset:0;stroke-opacity:1"
           d="m 100.42381,154.20458 c 0,0.46917 -0.895168,4.81996 -0.90014,5.40169 0,5.249 -3.920713,14.7174 -3.941878,20.72792 -0.01148,3.26042 1.649908,5.50354 4.505668,5.50354 3.34315,0 4.61997,-2.24604 4.64727,-5.55625 0.048,-5.81679 -3.52159,-14.92009 -3.63234,-20.90052 -0.0235,-1.2688 -0.67858,-8.09864 -0.67858,-5.17638 z m -2.922237,25.34155 c 0.523841,-0.0622 0.57255,0.99678 0.75551,1.58646 0.209095,0.67393 1.219787,1.82338 0.627351,2.29909 -0.592439,0.47572 -1.631553,-0.2408 -1.986443,-0.95137 -0.414278,-0.82948 -0.364077,-2.39453 0.348299,-2.83445 0.09602,-0.0593 0.180448,-0.0909 0.255283,-0.0997 z"
           id="path5362"
           inkscape:connector-curvature="0"
           sodipodi:nodetypes="scssssscccsccc" />
        <path
           style="vector-effect:none;fill:url(#radialGradient5409);fill-opacity:1;stroke:none;stroke-width:1.5875;stroke-linecap:butt;stroke-linejoin:miter;stroke-miterlimit:4;stroke-dasharray:none;stroke-dashoffset:0;stroke-opacity:1"
           d="m 30.006784,68.823377 c 0,0.469174 -0.895164,4.819961 -0.900136,5.40169 0,5.249001 -3.920713,14.717402 -3.941878,20.727925 -0.01153,3.260418 1.649907,5.503538 4.505668,5.503538 3.343151,0 4.619965,-2.24604 4.647262,-5.55625 0.04798,-5.81679 -3.521587,-14.920091 -3.632339,-20.900522 -0.02353,-1.2688 -0.678577,-8.098641 -0.678577,-5.176381 z M 27.08455,94.16493 c 0.523843,-0.06219 0.572552,0.99678 0.75551,1.586462 0.209085,0.673927 1.219787,1.823378 0.627353,2.299088 -0.59244,0.47572 -1.631554,-0.240799 -1.986444,-0.951369 -0.414279,-0.829481 -0.364076,-2.39453 0.348299,-2.83445 0.09603,-0.0593 0.18045,-0.0909 0.255282,-0.09969 z"
           id="use5364"
           inkscape:connector-curvature="0"
           sodipodi:nodetypes="scssssscccsccc" />
        <path
           style="vector-effect:none;fill:url(#radialGradient5413);fill-opacity:1;stroke:none;stroke-width:1.5875;stroke-linecap:butt;stroke-linejoin:miter;stroke-miterlimit:4;stroke-dasharray:none;stroke-dashoffset:0;stroke-opacity:1"
           d="m 30.113114,40.897983 c 0,0.469174 -0.895164,4.819961 -0.900136,5.40169 0,5.249001 -3.920713,14.717402 -3.941878,20.727925 -0.01153,3.260418 1.649907,5.503538 4.505668,5.503538 3.343151,0 4.619965,-2.24604 4.647262,-5.55625 0.04798,-5.81679 -3.521587,-14.920091 -3.632339,-20.900522 -0.02353,-1.2688 -0.678577,-8.098641 -0.678577,-5.176381 z M 27.19088,66.239536 c 0.523843,-0.06219 0.572552,0.99678 0.75551,1.586462 0.209085,0.673927 1.219787,1.823378 0.627353,2.299088 -0.59244,0.47572 -1.631554,-0.240799 -1.986444,-0.951369 -0.414279,-0.829481 -0.364076,-2.39453 0.348299,-2.83445 0.09603,-0.0593 0.18045,-0.0909 0.255282,-0.0997 z"
           id="use5366"
           inkscape:connector-curvature="0"
           sodipodi:nodetypes="scssssscccsccc" />
        <path
           style="vector-effect:none;fill:url(#radialGradient5417);fill-opacity:1;stroke:none;stroke-width:1.5875;stroke-linecap:butt;stroke-linejoin:miter;stroke-miterlimit:4;stroke-dasharray:none;stroke-dashoffset:0;stroke-opacity:1"
           d="m 30.261134,119.799 c 0,0.46917 -0.895164,4.81996 -0.900136,5.40169 0,5.249 -3.920713,14.7174 -3.941878,20.72792 -0.01153,3.26042 1.649907,5.50354 4.505668,5.50354 3.343151,0 4.619965,-2.24604 4.647262,-5.55625 0.04798,-5.81679 -3.521587,-14.92009 -3.632339,-20.90052 -0.02353,-1.2688 -0.678577,-8.09864 -0.678577,-5.17638 z M 27.3389,145.14055 c 0.523843,-0.0622 0.572552,0.99678 0.75551,1.58646 0.209085,0.67393 1.219787,1.82338 0.627353,2.29909 -0.59244,0.47572 -1.631554,-0.2408 -1.986444,-0.95137 -0.414279,-0.82948 -0.364076,-2.39453 0.348299,-2.83445 0.09602,-0.0593 0.18045,-0.0909 0.255282,-0.0997 z"
           id="use5368"
           inkscape:connector-curvature="0"
           sodipodi:nodetypes="scssssscccsccc" />
        <path
           style="vector-effect:none;fill:url(#radialGradient5421);fill-opacity:1;stroke:none;stroke-width:1.5875;stroke-linecap:butt;stroke-linejoin:miter;stroke-miterlimit:4;stroke-dasharray:none;stroke-dashoffset:0;stroke-opacity:1"
           d="m 65.47511,77.797959 c 0,0.469174 -0.895164,4.819961 -0.900136,5.40169 0,5.249001 -3.920713,14.717402 -3.941878,20.727921 -0.01153,3.26042 1.649907,5.50354 4.505668,5.50354 3.343151,0 4.619965,-2.24604 4.647262,-5.55625 0.04798,-5.816788 -3.521587,-14.920089 -3.632339,-20.90052 -0.02353,-1.2688 -0.678577,-8.098641 -0.678577,-5.176381 z m -2.922234,25.341551 c 0.523843,-0.0622 0.572552,0.99678 0.75551,1.58646 0.209085,0.67393 1.219787,1.82338 0.627353,2.29909 -0.59244,0.47572 -1.631554,-0.2408 -1.986444,-0.95137 -0.414279,-0.82948 -0.364076,-2.39453 0.348299,-2.83445 0.09603,-0.0593 0.18045,-0.0909 0.255282,-0.0997 z"
           id="use5370"
           inkscape:connector-curvature="0"
           sodipodi:nodetypes="scssssscccsccc" />
        <path
           style="vector-effect:none;fill:url(#radialGradient5425);fill-opacity:1;stroke:none;stroke-width:1.5875;stroke-linecap:butt;stroke-linejoin:miter;stroke-miterlimit:4;stroke-dasharray:none;stroke-dashoffset:0;stroke-opacity:1"
           d="m 65.235864,51.123625 c 0,0.469174 -0.895164,4.819961 -0.900136,5.40169 0,5.249001 -3.920713,14.717402 -3.941878,20.727925 -0.01153,3.260418 1.649907,5.503538 4.505668,5.503538 3.343151,0 4.619965,-2.24604 4.647262,-5.55625 0.04798,-5.81679 -3.521587,-14.920091 -3.632339,-20.900522 -0.02353,-1.2688 -0.678577,-8.098641 -0.678577,-5.176381 z M 62.31363,76.465178 c 0.523843,-0.06219 0.572552,0.99678 0.75551,1.586462 0.209085,0.673927 1.219787,1.823378 0.627353,2.299088 -0.59244,0.47572 -1.631554,-0.240799 -1.986444,-0.951369 -0.414279,-0.829481 -0.364076,-2.39453 0.348299,-2.83445 0.09602,-0.0593 0.18045,-0.0909 0.255282,-0.09969 z"
           id="use5372"
           inkscape:connector-curvature="0"
           sodipodi:nodetypes="scssssscccsccc" />
        <path
           style="vector-effect:none;fill:url(#radialGradient5429);fill-opacity:1;stroke:none;stroke-width:1.5875;stroke-linecap:butt;stroke-linejoin:miter;stroke-miterlimit:4;stroke-dasharray:none;stroke-dashoffset:0;stroke-opacity:1"
           d="m 135.57972,44.608444 c 0,0.469174 -0.89516,4.819961 -0.90013,5.40169 0,5.249001 -3.92071,14.717402 -3.94188,20.727925 -0.0115,3.260418 1.64991,5.503538 4.50567,5.503538 3.34315,0 4.61996,-2.24604 4.64726,-5.55625 0.048,-5.81679 -3.52159,-14.920091 -3.63234,-20.900522 -0.0235,-1.2688 -0.67858,-8.098641 -0.67858,-5.176381 z m -2.92223,25.341553 c 0.52384,-0.06219 0.57255,0.99678 0.75551,1.586462 0.20909,0.673927 1.21979,1.823378 0.62735,2.299088 -0.59244,0.47572 -1.63155,-0.240799 -1.98644,-0.951369 -0.41428,-0.829481 -0.36408,-2.39453 0.3483,-2.83445 0.096,-0.0593 0.18045,-0.0909 0.25528,-0.09969 z"
           id="use5374"
           inkscape:connector-curvature="0"
           sodipodi:nodetypes="scssssscccsccc" />
        <path
           style="vector-effect:none;fill:url(#radialGradient5433);fill-opacity:1;stroke:none;stroke-width:1.5875;stroke-linecap:butt;stroke-linejoin:miter;stroke-miterlimit:4;stroke-dasharray:none;stroke-dashoffset:0;stroke-opacity:1"
           d="m 135.42022,106.41733 c 0,0.46918 -0.89516,4.81996 -0.90013,5.40169 0,5.249 -3.92071,14.7174 -3.94188,20.72793 -0.0115,3.26042 1.64991,5.50354 4.50567,5.50354 3.34315,0 4.61996,-2.24604 4.64726,-5.55625 0.048,-5.81679 -3.52159,-14.9201 -3.63234,-20.90053 -0.0235,-1.2688 -0.67858,-8.09864 -0.67858,-5.17638 z m -2.92223,25.34156 c 0.52384,-0.0622 0.57255,0.99678 0.75551,1.58646 0.20909,0.67393 1.21979,1.82338 0.62735,2.29909 -0.59244,0.47572 -1.63155,-0.2408 -1.98644,-0.95137 -0.41428,-0.82948 -0.36408,-2.39453 0.3483,-2.83445 0.096,-0.0593 0.18045,-0.0909 0.25528,-0.0997 z"
           id="use5376"
           inkscape:connector-curvature="0"
           sodipodi:nodetypes="scssssscccsccc" />
        <path
           style="vector-effect:none;fill:url(#radialGradient5437);fill-opacity:1;stroke:none;stroke-width:1.5875;stroke-linecap:butt;stroke-linejoin:miter;stroke-miterlimit:4;stroke-dasharray:none;stroke-dashoffset:0;stroke-opacity:1"
           d="m 100.76939,118.26444 c 0,0.46917 -0.895163,4.81996 -0.900135,5.40169 0,5.249 -3.920713,14.7174 -3.941878,20.72792 -0.01153,3.26042 1.649907,5.50354 4.505663,5.50354 3.34316,0 4.61997,-2.24604 4.64727,-5.55625 0.048,-5.81679 -3.52159,-14.92009 -3.63234,-20.90052 -0.0235,-1.2688 -0.67858,-8.09864 -0.67858,-5.17638 z m -2.922233,25.34155 c 0.523843,-0.0622 0.572552,0.99678 0.75551,1.58646 0.209085,0.67393 1.219787,1.82338 0.627353,2.29909 -0.59244,0.47572 -1.631554,-0.2408 -1.986444,-0.95137 -0.414279,-0.82948 -0.364076,-2.39453 0.348299,-2.83445 0.09602,-0.0593 0.18045,-0.0909 0.255282,-0.0997 z"
           id="use5378"
           inkscape:connector-curvature="0"
           sodipodi:nodetypes="scssssscccsccc" />
        <path
           style="vector-effect:none;fill:url(#radialGradient5441);fill-opacity:1;stroke:none;stroke-width:1.5875;stroke-linecap:butt;stroke-linejoin:miter;stroke-miterlimit:4;stroke-dasharray:none;stroke-dashoffset:0;stroke-opacity:1"
           d="m 100.42381,32.843858 c 0,0.469174 -0.895162,4.819961 -0.900134,5.40169 0,5.249001 -3.920713,14.717402 -3.941878,20.727925 -0.01153,3.260418 1.649907,5.503538 4.505672,5.503538 3.34315,0 4.61996,-2.24604 4.64726,-5.55625 0.048,-5.81679 -3.52159,-14.920091 -3.63234,-20.900522 -0.0235,-1.2688 -0.67858,-8.098641 -0.67858,-5.176381 z m -2.922232,25.341553 c 0.523843,-0.06219 0.572552,0.99678 0.75551,1.586462 0.209085,0.673927 1.219787,1.823378 0.627353,2.299088 -0.59244,0.47572 -1.631554,-0.240799 -1.986444,-0.951369 -0.414279,-0.829481 -0.364076,-2.39453 0.348299,-2.83445 0.09602,-0.05929 0.18045,-0.0909 0.255282,-0.09969 z"
           id="use5380"
           inkscape:connector-curvature="0"
           sodipodi:nodetypes="scssssscccsccc" />
      </g>
    </pattern>
    <rect
       x="36.585816"
       y="9.0112848"
       width="14.711453"
       height="13.646418"
       id="rect1029" />
    <rect
       x="36.585816"
       y="9.0112848"
       width="72.33267"
       height="18.707253"
       id="rect1398" />
    <rect
       x="36.585816"
       y="9.0112848"
       width="14.711453"
       height="13.646418"
       id="rect1400" />
    <rect
       x="36.585816"
       y="9.0112848"
       width="72.33267"
       height="18.707253"
       id="rect1422" />
    <rect
       x="36.585816"
       y="9.0112848"
       width="14.711453"
       height="13.646418"
       id="rect1424" />
    <clipPath
       clipPathUnits="userSpaceOnUse"
       id="clipPath8788">
      <rect
         y="-426.638"
         x="-843.81775"
         height="300"
         width="300"
         id="rect8790"
         style="opacity:0.2;vector-effect:none;fill:#0d0f2b;fill-opacity:1;stroke:none;stroke-width:2;stroke-linecap:butt;stroke-linejoin:round;stroke-miterlimit:4;stroke-dasharray:none;stroke-dashoffset:0;stroke-opacity:1;marker:none;paint-order:normal" />
    </clipPath>
    <radialGradient
       inkscape:collect="always"
       xlink:href="#linearGradient2828"
       id="radialGradient5409"
       gradientUnits="userSpaceOnUse"
       gradientTransform="matrix(-8.2602959,0,0,-12.676209,493.74042,765.62266)"
       cx="56.140076"
       cy="54.969063"
       fx="56.140076"
       fy="54.969063"
       r="1.945083" />
    <radialGradient
       inkscape:collect="always"
       xlink:href="#linearGradient2828"
       id="radialGradient5413"
       gradientUnits="userSpaceOnUse"
       gradientTransform="matrix(-8.2602959,0,0,-12.676209,493.84675,737.69727)"
       cx="56.140076"
       cy="54.969063"
       fx="56.140076"
       fy="54.969063"
       r="1.945083" />
    <radialGradient
       inkscape:collect="always"
       xlink:href="#linearGradient2828"
       id="radialGradient5417"
       gradientUnits="userSpaceOnUse"
       gradientTransform="matrix(-8.2602959,0,0,-12.676209,493.99477,816.59828)"
       cx="56.140076"
       cy="54.969063"
       fx="56.140076"
       fy="54.969063"
       r="1.945083" />
    <radialGradient
       inkscape:collect="always"
       xlink:href="#linearGradient2828"
       id="radialGradient5421"
       gradientUnits="userSpaceOnUse"
       gradientTransform="matrix(-8.2602959,0,0,-12.676209,529.20874,774.59724)"
       cx="56.140076"
       cy="54.969063"
       fx="56.140076"
       fy="54.969063"
       r="1.945083" />
    <radialGradient
       inkscape:collect="always"
       xlink:href="#linearGradient2828"
       id="radialGradient5425"
       gradientUnits="userSpaceOnUse"
       gradientTransform="matrix(-8.2602959,0,0,-12.676209,528.9695,747.92291)"
       cx="56.140076"
       cy="54.969063"
       fx="56.140076"
       fy="54.969063"
       r="1.945083" />
    <radialGradient
       inkscape:collect="always"
       xlink:href="#linearGradient2828"
       id="radialGradient5429"
       gradientUnits="userSpaceOnUse"
       gradientTransform="matrix(-8.2602959,0,0,-12.676209,599.31336,741.40773)"
       cx="56.140076"
       cy="54.969063"
       fx="56.140076"
       fy="54.969063"
       r="1.945083" />
    <radialGradient
       inkscape:collect="always"
       xlink:href="#linearGradient2828"
       id="radialGradient5433"
       gradientUnits="userSpaceOnUse"
       gradientTransform="matrix(-8.2602959,0,0,-12.676209,599.15386,803.21662)"
       cx="56.140076"
       cy="54.969063"
       fx="56.140076"
       fy="54.969063"
       r="1.945083" />
    <radialGradient
       inkscape:collect="always"
       xlink:href="#linearGradient2828"
       id="radialGradient5437"
       gradientUnits="userSpaceOnUse"
       gradientTransform="matrix(-8.2602959,0,0,-12.676209,564.50302,815.06372)"
       cx="56.140076"
       cy="54.969063"
       fx="56.140076"
       fy="54.969063"
       r="1.945083" />
    <radialGradient
       inkscape:collect="always"
       xlink:href="#linearGradient2828"
       id="radialGradient5441"
       gradientUnits="userSpaceOnUse"
       gradientTransform="matrix(-8.2602959,0,0,-12.676209,564.15745,729.64314)"
       cx="56.140076"
       cy="54.969063"
       fx="56.140076"
       fy="54.969063"
       r="1.945083" />
    <clipPath
       clipPathUnits="userSpaceOnUse"
       id="clipPath6179">
      <rect
         y="42.628365"
         x="128.55458"
         height="51.445251"
         width="51.445251"
         id="rect6181"
         style="fill:#0d0f2b;fill-opacity:1;stroke:none;stroke-width:0.342969;stroke-linecap:butt;stroke-linejoin:round;stroke-miterlimit:4;stroke-dasharray:none;stroke-dashoffset:0;stroke-opacity:1;marker:none;paint-order:normal" />
    </clipPath>
    <pattern
       patternUnits="userSpaceOnUse"
       width="194.43875"
       height="194.43875"
       patternTransform="translate(923.44989,215.30156)"
       id="pattern6259">
      <use
         x="0"
         y="0"
         xlink:href="#g6164"
         id="use6257"
         transform="matrix(3.7795276,0,0,3.7795276,-485.87558,-161.11508)" />
    </pattern>
    <pattern
       inkscape:collect="always"
       xlink:href="#pattern6259-7"
       id="pattern6281"
       patternTransform="translate(1846.8998,430.60312)" />
    <pattern
       patternUnits="userSpaceOnUse"
       width="194.43875"
       height="194.43875"
       patternTransform="translate(923.44989,215.30156)"
       id="pattern6259-7">
      <use
         x="0"
         y="0"
         xlink:href="#g6164"
         id="use6257-4"
         transform="matrix(3.7795276,0,0,3.7795276,-485.87558,-161.11508)" />
    </pattern>
    <clipPath
       clipPathUnits="userSpaceOnUse"
       id="clipPath6179-6">
      <rect
         y="42.628365"
         x="128.55458"
         height="51.445251"
         width="51.445251"
         id="rect6181-7"
         style="fill:#0d0f2b;fill-opacity:1;stroke:none;stroke-width:0.342969;stroke-linecap:butt;stroke-linejoin:round;stroke-miterlimit:4;stroke-dasharray:none;stroke-dashoffset:0;stroke-opacity:1;marker:none;paint-order:normal" />
    </clipPath>
    <clipPath
       clipPathUnits="userSpaceOnUse"
       id="clipPath6276">
      <rect
         y="42.628365"
         x="128.55458"
         height="51.445251"
         width="51.445251"
         id="rect6274"
         style="fill:#0d0f2b;fill-opacity:1;stroke:none;stroke-width:0.342969;stroke-linecap:butt;stroke-linejoin:round;stroke-miterlimit:4;stroke-dasharray:none;stroke-dashoffset:0;stroke-opacity:1;marker:none;paint-order:normal" />
    </clipPath>
  </defs>
  <sodipodi:namedview
     id="base"
     pagecolor="#ffffff"
     bordercolor="#666666"
     borderopacity="1.0"
     inkscape:pageopacity="0"
     inkscape:pageshadow="2"
     inkscape:zoom="1.1420735"
     inkscape:cx="396.64698"
     inkscape:cy="561.69765"
     inkscape:document-units="mm"
     inkscape:current-layer="layer1"
     showgrid="false"
     showguides="false"
     inkscape:guide-bbox="true"
     inkscape:snap-global="true"
     inkscape:object-paths="true"
     inkscape:snap-intersection-paths="true"
     inkscape:snap-smooth-nodes="true"
     inkscape:snap-midpoints="true"
     inkscape:window-width="2560"
     inkscape:window-height="1566"
     inkscape:window-x="-11"
     inkscape:window-y="-11"
     inkscape:window-maximized="1"
     inkscape:snap-bbox="true"
     inkscape:bbox-paths="true"
     inkscape:bbox-nodes="true"
     inkscape:snap-bbox-edge-midpoints="true"
     inkscape:snap-bbox-midpoints="true"
     inkscape:snap-object-midpoints="true"
     inkscape:snap-center="true"
     inkscape:snap-text-baseline="true"
     inkscape:document-rotation="0"
     inkscape:showpageshadow="0"
     inkscape:pagecheckerboard="0"
     inkscape:deskcolor="#d1d1d1">
    <sodipodi:guide
       position="179.58151,202.92638"
       orientation="0,-1"
       id="guide5732"
       inkscape:locked="false" />
    <sodipodi:guide
       position="128.55458,254.37163"
       orientation="1,0"
       id="guide5838"
       inkscape:locked="false" />
  </sodipodi:namedview>
  <metadata
     id="metadata5">
    <rdf:RDF>
      <cc:Work
         rdf:about="">
        <dc:format>image/svg+xml</dc:format>
        <dc:type
           rdf:resource="http://purl.org/dc/dcmitype/StillImage" />
        <dc:creator>
          <cc:Agent>
            <dc:title>m1981</dc:title>
          </cc:Agent>
        </dc:creator>
        <dc:rights>
          <cc:Agent>
            <dc:title>Public domain</dc:title>
          </cc:Agent>
        </dc:rights>
        <dc:publisher>
          <cc:Agent>
            <dc:title>Inkscape</dc:title>
          </cc:Agent>
        </dc:publisher>
        <dc:title>Rosace pattern</dc:title>
        <dc:date>2022-07-22</dc:date>
        <cc:license
           rdf:resource="http://creativecommons.org/publicdomain/zero/1.0/" />
        <dc:subject>
          <rdf:Bag>
            <rdf:li>rosace</rdf:li>
            <rdf:li>pattern</rdf:li>
          </rdf:Bag>
        </dc:subject>
        <dc:description>A rosace pattern, based upon the central islamic 5-8-3 pattern. Use 1 to change rosace colors and relative size in tile. 2 is for setting background color.</dc:description>
      </cc:Work>
      <cc:License
         rdf:about="http://creativecommons.org/publicdomain/zero/1.0/">
        <cc:permits
           rdf:resource="http://creativecommons.org/ns#Reproduction" />
        <cc:permits
           rdf:resource="http://creativecommons.org/ns#Distribution" />
        <cc:permits
           rdf:resource="http://creativecommons.org/ns#DerivativeWorks" />
      </cc:License>
    </rdf:RDF>
  </metadata>
  <g
     inkscape:label="Calque 1"
     inkscape:groupmode="layer"
     id="layer1">
    <g
       id="g6164"
       clip-path="url(#clipPath6179)">
      <rect
         y="42.628365"
         x="128.55458"
         height="51.445251"
         width="51.445251"
         id="rect5836"
         style="fill:#0d0f2b;fill-opacity:1;stroke:none;stroke-width:0.342969;stroke-linecap:butt;stroke-linejoin:round;stroke-miterlimit:4;stroke-dasharray:none;stroke-dashoffset:0;stroke-opacity:1;marker:none;paint-order:normal" />
      <use
         x="0"
         y="0"
         xlink:href="#g6127"
         id="use6129"
         transform="translate(102.6693,4.1148739)" />
      <use
         x="0"
         y="0"
         xlink:href="#g6127"
         id="use6129-3"
         transform="translate(76.946847,-21.607523)" />
      <use
         x="0"
         y="0"
         xlink:href="#g6127"
         id="use6129-5"
         transform="translate(76.946745,29.837664)" />
      <use
         x="0"
         y="0"
         xlink:href="#g6127"
         id="use6129-37"
         transform="translate(128.39192,29.837502)" />
      <use
         x="0"
         y="0"
         xlink:href="#g6127"
         id="use6183"
         transform="translate(128.39192,-21.607748)" />
    </g>
    <rect
       style="font-variation-settings:normal;opacity:1;vector-effect:none;fill:url(#pattern6314);fill-opacity:1;stroke:none;stroke-width:0.264583;stroke-linecap:butt;stroke-linejoin:miter;stroke-miterlimit:4;stroke-dasharray:none;stroke-dashoffset:0;stroke-opacity:1;-inkscape-stroke:none;stop-color:#000000;stop-opacity:1"
       width="150"
       height="150"
       x="30"
       y="121.77061"
       id="rect3311"
       rx="0"
       ry="0" />
    <path
       style="font-variation-settings:normal;opacity:1;vector-effect:none;fill:none;fill-opacity:1;stroke:#000000;stroke-width:0.264583;stroke-linecap:butt;stroke-linejoin:miter;stroke-miterlimit:4;stroke-dasharray:none;stroke-dashoffset:0;stroke-opacity:1;marker:none;paint-order:normal;stop-color:#000000;stop-opacity:1"
       d="m 180,275.72261 v -157.904"
       id="path4353"
       inkscape:transform-center-y="25.78879"
       sodipodi:nodetypes="cc" />
    <path
       style="font-variation-settings:normal;opacity:1;vector-effect:none;fill:none;fill-opacity:1;stroke:#000000;stroke-width:0.264583;stroke-linecap:butt;stroke-linejoin:miter;stroke-miterlimit:4;stroke-dasharray:none;stroke-dashoffset:0;stroke-opacity:1;marker:none;paint-order:normal;stop-color:#000000;stop-opacity:1"
       d="M 26.048,121.77061 H 183.952"
       id="path4355"
       inkscape:transform-center-x="18.291395"
       sodipodi:nodetypes="cc" />
    <path
       style="font-variation-settings:normal;opacity:1;vector-effect:none;fill:#00456f;fill-opacity:1;stroke:#000000;stroke-width:0.264583;stroke-linecap:butt;stroke-linejoin:miter;stroke-miterlimit:4;stroke-dasharray:none;stroke-dashoffset:0;stroke-opacity:1;marker:none;paint-order:normal;stop-color:#000000;stop-opacity:1"
       d="M 26.048,271.77061 H 183.952"
       id="path4363"
       inkscape:transform-center-x="75"
       sodipodi:nodetypes="cc" />
    <path
       style="font-variation-settings:normal;opacity:1;vector-effect:none;fill:none;fill-opacity:1;stroke:#000000;stroke-width:0.264583;stroke-linecap:butt;stroke-linejoin:miter;stroke-miterlimit:4;stroke-dasharray:none;stroke-dashoffset:0;stroke-opacity:1;marker:none;paint-order:normal;stop-color:#000000;stop-opacity:1"
       d="M 26.047996,271.77061 H 183.952"
       id="path4367"
       inkscape:transform-center-x="18.291395"
       sodipodi:nodetypes="cc" />
    <path
       style="font-variation-settings:normal;opacity:1;vector-effect:none;fill:none;fill-opacity:1;stroke:#000000;stroke-width:0.264583;stroke-linecap:butt;stroke-linejoin:miter;stroke-miterlimit:4;stroke-dasharray:none;stroke-dashoffset:0;stroke-opacity:1;marker:none;paint-order:normal;stop-color:#000000;stop-opacity:1"
       d="m 30,275.72261 v -157.904"
       id="path4369"
       inkscape:transform-center-y="25.78879"
       sodipodi:nodetypes="cc" />
    <g
       id="g1454"
       transform="translate(13.43353,6.0730015)">
      <path
         style="font-variation-settings:normal;vector-effect:none;fill:none;fill-opacity:1;stroke:#000000;stroke-width:0.264583;stroke-linecap:butt;stroke-linejoin:miter;stroke-miterlimit:4;stroke-dasharray:none;stroke-dashoffset:0;stroke-opacity:1;marker:none;paint-order:normal;stop-color:#000000"
         d="m 115.12105,91.952643 0,-59.349298"
         id="path4298"
         sodipodi:nodetypes="cc" />
      <path
         style="font-variation-settings:normal;opacity:1;fill:none;fill-opacity:1;stroke:#000000;stroke-width:0.264583;stroke-linecap:butt;stroke-linejoin:miter;stroke-miterlimit:4;stroke-dasharray:none;stroke-dashoffset:0;stroke-opacity:1;marker:none;paint-order:normal;stop-color:#000000;stop-opacity:1"
         d="m 111.16888,36.555366 59.34959,-10e-7"
         id="path4302"
         inkscape:transform-center-x="40.177444"
         inkscape:transform-center-y="2.5e-06"
         sodipodi:nodetypes="cc" />
      <path
         style="font-variation-settings:normal;opacity:1;fill:none;fill-opacity:1;stroke:#000000;stroke-width:0.264583;stroke-linecap:butt;stroke-linejoin:miter;stroke-miterlimit:4;stroke-dasharray:none;stroke-dashoffset:0;stroke-opacity:1;marker:none;paint-order:normal;stop-color:#000000;stop-opacity:1"
         d="m 111.16887,88.00062 59.34959,-10e-7"
         id="path5541"
         inkscape:transform-center-x="40.177444"
         inkscape:transform-center-y="2.5e-06"
         sodipodi:nodetypes="cc" />
      <path
         style="font-variation-settings:normal;opacity:1;fill:none;fill-opacity:1;stroke:#000000;stroke-width:0.264583;stroke-linecap:butt;stroke-linejoin:miter;stroke-miterlimit:4;stroke-dasharray:none;stroke-dashoffset:0;stroke-opacity:1;marker:none;paint-order:normal;stop-color:#000000;stop-opacity:1"
         d="m 166.5663,91.952639 0,-59.349298"
         id="path5563"
         sodipodi:nodetypes="cc" />
    </g>
    <g
       id="g1408"
       transform="translate(-13.433534,-1.6055576)">
      <rect
         style="font-variation-settings:normal;opacity:1;vector-effect:none;fill:#036083;fill-opacity:1;stroke:none;stroke-width:0.674677;stroke-linecap:butt;stroke-linejoin:miter;stroke-miterlimit:4;stroke-dasharray:none;stroke-dashoffset:0;stroke-opacity:1;marker:none;paint-order:normal;stop-color:#000000;stop-opacity:1"
         id="rect6916"
         width="25.187212"
         height="25.187212"
         x="43.433704"
         y="44.233929" />
      <path
         style="font-variation-settings:normal;vector-effect:none;fill:none;fill-opacity:1;stroke:#000000;stroke-width:0.330246;stroke-linecap:butt;stroke-linejoin:miter;stroke-miterlimit:4;stroke-dasharray:none;stroke-dashoffset:0;stroke-opacity:1;marker:none;paint-order:normal;stop-color:#000000"
         d="m 39.481534,44.233927 51.11982,6e-6"
         id="path6960"
         sodipodi:nodetypes="cc" />
      <path
         style="font-variation-settings:normal;vector-effect:none;fill:none;fill-opacity:1;stroke:#000000;stroke-width:0.330245;stroke-linecap:butt;stroke-linejoin:miter;stroke-miterlimit:4;stroke-dasharray:none;stroke-dashoffset:0;stroke-opacity:1;marker:none;paint-order:normal;stop-color:#000000"
         d="m 43.433705,40.281904 0,51.119517"
         id="path6968"
         sodipodi:nodetypes="cc" />
      <path
         style="font-variation-settings:normal;vector-effect:none;fill:none;fill-opacity:1;stroke:#000000;stroke-width:0.330245;stroke-linecap:butt;stroke-linejoin:miter;stroke-miterlimit:4;stroke-dasharray:none;stroke-dashoffset:0;stroke-opacity:1;marker:none;paint-order:normal;stop-color:#000000"
         d="m 86.649185,40.28191 0,51.119517"
         id="path6970"
         sodipodi:nodetypes="cc" />
      <path
         style="font-variation-settings:normal;vector-effect:none;fill:none;fill-opacity:1;stroke:#000000;stroke-width:0.330246;stroke-linecap:butt;stroke-linejoin:miter;stroke-miterlimit:4;stroke-dasharray:none;stroke-dashoffset:0;stroke-opacity:1;marker:none;paint-order:normal;stop-color:#000000"
         d="m 39.481534,87.449402 51.11982,6e-6"
         id="path6972"
         sodipodi:nodetypes="cc" />
    </g>
    <g
       id="g1376"
       transform="translate(-6.254407,-3.4763061)">
      <g
         aria-label="Original
rosace"
         transform="translate(14.808418,16.422636)"
         id="text6937"
         style="font-weight:300;font-size:5.29167px;line-height:1.25;font-family:Roboto;-inkscape-font-specification:'Roboto Light';letter-spacing:0px;word-spacing:0px;white-space:pre;shape-inside:url(#rect6939);display:inline">
        <path
           d="m 39.841555,11.965029 q 0,0.519348 -0.180868,0.912089 -0.178284,0.392741 -0.511597,0.604615 -0.333313,0.211873 -0.769979,0.211873 -0.658875,0 -1.064535,-0.470255 -0.405661,-0.47284 -0.405661,-1.273825 v -0.387574 q 0,-0.514181 0.180868,-0.909506 0.183451,-0.397908 0.516765,-0.609782 0.333313,-0.2144571 0.767395,-0.2144571 0.434082,0 0.764812,0.2092901 0.333313,0.209289 0.514181,0.591695 0.180867,0.382406 0.188619,0.886251 z m -0.317811,-0.408244 q 0,-0.679546 -0.307475,-1.064536 -0.307474,-0.384989 -0.842326,-0.384989 -0.524516,0 -0.837159,0.387573 -0.310058,0.38499 -0.310058,1.077455 v 0.392741 q 0,0.66921 0.310058,1.061951 0.310059,0.390157 0.842327,0.390157 0.540019,0 0.842326,-0.384989 0.302307,-0.387574 0.302307,-1.077455 z"
           id="path583" />
        <path
           d="m 41.862104,11.109783 q -0.09819,-0.01809 -0.209289,-0.01809 -0.289388,0 -0.490927,0.162781 -0.198954,0.160197 -0.28422,0.467672 V 13.64193 H 40.570193 V 10.846233 H 40.8725 l 0.0052,0.444418 q 0.245463,-0.496094 0.788066,-0.496094 0.129191,0 0.204122,0.03359 z"
           id="path585" />
        <path
           d="M 42.696679,13.64193 H 42.38662 v -2.795697 h 0.310059 z M 42.33236,10.037497 q 0,-0.08785 0.05684,-0.1472784 0.05684,-0.062012 0.15503,-0.062012 0.09818,0 0.155029,0.062012 0.05943,0.059428 0.05943,0.1472784 0,0.08785 -0.05943,0.147277 -0.05684,0.05943 -0.155029,0.05943 -0.09819,0 -0.15503,-0.05943 -0.05684,-0.05943 -0.05684,-0.147277 z"
           id="path587" />
        <path
           d="m 43.412399,12.218243 q 0,-0.656291 0.289388,-1.038697 0.291972,-0.384989 0.79065,-0.384989 0.571025,0 0.868164,0.454753 l 0.0155,-0.403077 h 0.289388 v 2.738853 q 0,0.540019 -0.302307,0.855245 -0.302307,0.315227 -0.819072,0.315227 -0.291972,0 -0.558106,-0.131775 -0.26355,-0.129191 -0.415995,-0.346233 l 0.173116,-0.186035 q 0.328145,0.403077 0.780314,0.403077 0.387574,0 0.604615,-0.229961 0.217041,-0.227376 0.224793,-0.633036 v -0.3514 q -0.29714,0.413411 -0.865581,0.413411 -0.485759,0 -0.780315,-0.387573 -0.294555,-0.387574 -0.294555,-1.046449 z m 0.312642,0.05426 q 0,0.534851 0.214457,0.84491 0.214458,0.307475 0.604615,0.307475 0.571025,0 0.808737,-0.511597 v -1.299663 q -0.108521,-0.268718 -0.312643,-0.408244 -0.204122,-0.142111 -0.490926,-0.142111 -0.390158,0 -0.607199,0.307475 -0.217041,0.304891 -0.217041,0.901755 z"
           id="path589" />
        <path
           d="m 46.817877,13.64193 h -0.310059 v -2.795697 h 0.310059 z m -0.364319,-3.604433 q 0,-0.08785 0.05684,-0.1472784 0.05684,-0.062012 0.155029,-0.062012 0.09819,0 0.15503,0.062012 0.05943,0.059428 0.05943,0.1472784 0,0.08785 -0.05943,0.147277 -0.05684,0.05943 -0.15503,0.05943 -0.09819,0 -0.155029,-0.05943 -0.05684,-0.05943 -0.05684,-0.147277 z"
           id="path591" />
        <path
           d="m 47.952176,10.846233 0.01033,0.478007 q 0.157613,-0.258382 0.392741,-0.392741 0.235128,-0.136942 0.519348,-0.136942 0.449586,0 0.669211,0.253214 0.219625,0.253215 0.222208,0.759644 v 1.834515 h -0.307475 v -1.837098 q -0.0026,-0.374655 -0.160197,-0.558106 -0.155029,-0.183452 -0.498677,-0.183452 -0.286805,0 -0.509014,0.180868 -0.219625,0.178284 -0.325561,0.483175 V 13.64193 H 47.65762 v -2.795697 z"
           id="path593" />
        <path
           d="m 52.329172,13.64193 q -0.04651,-0.131775 -0.05943,-0.390157 -0.162781,0.211873 -0.415995,0.328145 -0.250631,0.113688 -0.532268,0.113688 -0.403076,0 -0.653707,-0.224792 -0.248047,-0.224793 -0.248047,-0.568441 0,-0.408244 0.338481,-0.645956 0.341064,-0.237712 0.948263,-0.237712 h 0.560689 v -0.31781 q 0,-0.299724 -0.186035,-0.470256 -0.183451,-0.173116 -0.537435,-0.173116 -0.322978,0 -0.534851,0.165365 -0.211874,0.165364 -0.211874,0.397908 l -0.310059,-0.0026 q 0,-0.333314 0.310059,-0.576193 0.310059,-0.245463 0.762228,-0.245463 0.467672,0 0.736389,0.235128 0.271302,0.232544 0.279053,0.651123 v 1.322918 q 0,0.40566 0.08527,0.607198 v 0.03101 z m -0.971517,-0.222209 q 0.310058,0 0.552938,-0.149862 0.245463,-0.149861 0.356567,-0.400492 v -0.61495 h -0.552938 q -0.462504,0.0052 -0.72347,0.170532 -0.260966,0.162781 -0.260966,0.449585 0,0.235128 0.173116,0.390158 0.1757,0.155029 0.454753,0.155029 z"
           id="path595" />
        <path
           d="M 53.745107,13.64193 H 53.435048 V 9.6731775 h 0.310059 z"
           id="path597" />
        <path
           d="m 38.280925,17.724371 q -0.09819,-0.01809 -0.209289,-0.01809 -0.289388,0 -0.490927,0.162781 -0.198954,0.160197 -0.28422,0.467672 v 1.919781 h -0.307475 v -2.795697 h 0.302307 l 0.0052,0.444418 q 0.245463,-0.496094 0.788066,-0.496094 0.129191,0 0.204122,0.03359 z"
           id="path599" />
        <path
           d="m 38.547059,18.817328 q 0,-0.403076 0.15503,-0.726054 0.157613,-0.322978 0.441833,-0.501262 0.286805,-0.180867 0.64854,-0.180867 0.558106,0 0.904338,0.392741 0.346232,0.390157 0.346232,1.036113 v 0.0646 q 0,0.405661 -0.157613,0.731222 -0.155029,0.322978 -0.43925,0.498678 -0.28422,0.1757 -0.648539,0.1757 -0.555522,0 -0.904338,-0.390157 -0.346233,-0.392741 -0.346233,-1.038697 z m 0.310059,0.08527 q 0,0.501262 0.258382,0.82424 0.260967,0.320394 0.68213,0.320394 0.418579,0 0.676961,-0.320394 0.260967,-0.322978 0.260967,-0.850078 v -0.05943 q 0,-0.320394 -0.118856,-0.586528 -0.118856,-0.266134 -0.333314,-0.410828 -0.214457,-0.147278 -0.490926,-0.147278 -0.413412,0 -0.674378,0.325562 -0.260966,0.322978 -0.260966,0.847494 z"
           id="path601" />
        <path
           d="m 43.355554,19.545966 q 0,-0.22996 -0.186035,-0.369486 -0.183451,-0.139527 -0.555522,-0.217042 -0.37207,-0.0801 -0.578776,-0.180867 -0.204122,-0.103353 -0.304891,-0.250631 -0.09819,-0.147278 -0.09819,-0.356568 0,-0.330729 0.276469,-0.545186 0.27647,-0.217041 0.707968,-0.217041 0.467672,0 0.749309,0.232544 0.28422,0.22996 0.28422,0.60203 h -0.310059 q 0,-0.245463 -0.206705,-0.408244 -0.204122,-0.162781 -0.516765,-0.162781 -0.304891,0 -0.490926,0.136943 -0.183452,0.134359 -0.183452,0.3514 0,0.20929 0.152446,0.325562 0.155029,0.113688 0.560689,0.209289 0.408244,0.0956 0.609783,0.204122 0.204122,0.108521 0.302307,0.260967 0.09819,0.152445 0.09819,0.369486 0,0.353984 -0.286804,0.565858 -0.284221,0.211873 -0.744141,0.211873 -0.488343,0 -0.793234,-0.235128 -0.302307,-0.237712 -0.302307,-0.599447 h 0.310058 q 0.01809,0.271302 0.227377,0.423747 0.211873,0.149862 0.558106,0.149862 0.322978,0 0.521932,-0.14211 0.198954,-0.142111 0.198954,-0.359152 z"
           id="path603" />
        <path
           d="m 46.125412,20.256518 q -0.04651,-0.131775 -0.05943,-0.390158 -0.162781,0.211874 -0.415996,0.328146 -0.250631,0.113688 -0.532268,0.113688 -0.403076,0 -0.653707,-0.224793 -0.248047,-0.224792 -0.248047,-0.568441 0,-0.408244 0.338481,-0.645955 0.341065,-0.237712 0.948263,-0.237712 h 0.56069 v -0.31781 q 0,-0.299724 -0.186036,-0.470256 -0.183451,-0.173116 -0.537435,-0.173116 -0.322978,0 -0.534851,0.165364 -0.211874,0.165365 -0.211874,0.397909 l -0.310058,-0.0026 q 0,-0.333313 0.310058,-0.576192 0.310059,-0.245463 0.762228,-0.245463 0.467672,0 0.73639,0.235127 0.271301,0.232545 0.279053,0.651124 v 1.322917 q 0,0.405661 0.08527,0.607199 v 0.03101 z m -0.971517,-0.222209 q 0.310059,0 0.552938,-0.149862 0.245463,-0.149862 0.356568,-0.400492 v -0.61495 h -0.552938 q -0.462505,0.0052 -0.723471,0.170532 -0.260966,0.162781 -0.260966,0.449585 0,0.235128 0.173116,0.390157 0.1757,0.15503 0.454753,0.15503 z"
           id="path605" />
        <path
           d="m 48.228645,20.047228 q 0.322977,0 0.540019,-0.180868 0.219625,-0.183451 0.237711,-0.472839 h 0.29714 q -0.01292,0.255798 -0.160197,0.467672 -0.147278,0.209289 -0.392741,0.328145 -0.242879,0.118856 -0.521932,0.118856 -0.550355,0 -0.873333,-0.382406 -0.320394,-0.382406 -0.320394,-1.028361 v -0.09302 q 0,-0.413412 0.144694,-0.731222 0.144694,-0.31781 0.413412,-0.490926 0.271302,-0.173116 0.633037,-0.173116 0.45992,0 0.75706,0.273885 0.299723,0.273885 0.320394,0.720886 h -0.29714 q -0.02067,-0.328145 -0.237711,-0.529683 -0.214458,-0.201539 -0.542603,-0.201539 -0.41858,0 -0.651124,0.302308 -0.22996,0.302307 -0.22996,0.847494 v 0.09043 q 0,0.534851 0.22996,0.834574 0.232544,0.299724 0.653708,0.299724 z"
           id="path607" />
        <path
           d="m 51.003671,20.308194 q -0.356567,0 -0.645956,-0.1757 -0.286804,-0.1757 -0.447001,-0.488342 -0.160197,-0.315227 -0.160197,-0.705384 v -0.111105 q 0,-0.403076 0.155029,-0.726054 0.157614,-0.322978 0.436667,-0.506429 0.279052,-0.186035 0.604614,-0.186035 0.509013,0 0.806153,0.348816 0.299723,0.346232 0.299723,0.948263 v 0.173116 h -1.994711 v 0.05943 q 0,0.475423 0.271301,0.793234 0.273886,0.315226 0.687297,0.315226 0.248047,0 0.436666,-0.09043 0.191203,-0.09043 0.346233,-0.289388 l 0.193787,0.147278 q -0.341065,0.49351 -0.989605,0.49351 z m -0.05684,-2.6355 q -0.348816,0 -0.589112,0.255799 -0.237711,0.255798 -0.289388,0.687297 h 1.676902 V 18.5822 q -0.01292,-0.403076 -0.229961,-0.656291 -0.217041,-0.253215 -0.568441,-0.253215 z"
           id="path609" />
      </g>
      <g
         id="g1365"
         transform="translate(-20.459077,6.0730015)">
        <path
           id="path1084"
           style="fill:#0d0f2b;stroke-width:0.600001;stroke-linecap:round;stroke-linejoin:round;paint-order:markers fill stroke;stop-color:#000000;fill-opacity:1"
           d="m 62.790352,19.098608 a 6.2419643,6.2419643 0 0 0 -6.241997,6.24148 6.2419643,6.2419643 0 0 0 6.241997,6.241996 6.2419643,6.2419643 0 0 0 6.241996,-6.241996 6.2419643,6.2419643 0 0 0 -6.241996,-6.24148 z m 0.61805,2.891813 h 0.14211 v 6.677112 H 62.44412 v -5.342826 l -1.631425,0.557589 v -0.936894 z" />
      </g>
    </g>
    <g
       id="g1396"
       transform="translate(92.332775,2.5966954)">
      <g
         aria-label="Original tile"
         transform="translate(14.808418,13.656929)"
         id="text1386"
         style="font-weight:300;font-size:5.29167px;line-height:1.25;font-family:Roboto;-inkscape-font-specification:'Roboto Light';letter-spacing:0px;word-spacing:0px;white-space:pre;shape-inside:url(#rect1398);display:inline">
        <path
           d="m 39.841555,11.965029 q 0,0.519348 -0.180868,0.912089 -0.178284,0.392741 -0.511597,0.604615 -0.333313,0.211873 -0.769979,0.211873 -0.658875,0 -1.064535,-0.470255 -0.405661,-0.47284 -0.405661,-1.273825 v -0.387574 q 0,-0.514181 0.180868,-0.909506 0.183451,-0.397908 0.516765,-0.609782 0.333313,-0.2144571 0.767395,-0.2144571 0.434082,0 0.764812,0.2092901 0.333313,0.209289 0.514181,0.591695 0.180867,0.382406 0.188619,0.886251 z m -0.317811,-0.408244 q 0,-0.679546 -0.307475,-1.064536 -0.307474,-0.384989 -0.842326,-0.384989 -0.524516,0 -0.837159,0.387573 -0.310058,0.38499 -0.310058,1.077455 v 0.392741 q 0,0.66921 0.310058,1.061951 0.310059,0.390157 0.842327,0.390157 0.540019,0 0.842326,-0.384989 0.302307,-0.387574 0.302307,-1.077455 z"
           id="path612" />
        <path
           d="m 41.862104,11.109783 q -0.09819,-0.01809 -0.209289,-0.01809 -0.289388,0 -0.490927,0.162781 -0.198954,0.160197 -0.28422,0.467672 V 13.64193 H 40.570193 V 10.846233 H 40.8725 l 0.0052,0.444418 q 0.245463,-0.496094 0.788066,-0.496094 0.129191,0 0.204122,0.03359 z"
           id="path614" />
        <path
           d="M 42.696679,13.64193 H 42.38662 v -2.795697 h 0.310059 z M 42.33236,10.037497 q 0,-0.08785 0.05684,-0.1472784 0.05684,-0.062012 0.15503,-0.062012 0.09818,0 0.155029,0.062012 0.05943,0.059428 0.05943,0.1472784 0,0.08785 -0.05943,0.147277 -0.05684,0.05943 -0.155029,0.05943 -0.09819,0 -0.15503,-0.05943 -0.05684,-0.05943 -0.05684,-0.147277 z"
           id="path616" />
        <path
           d="m 43.412399,12.218243 q 0,-0.656291 0.289388,-1.038697 0.291972,-0.384989 0.79065,-0.384989 0.571025,0 0.868164,0.454753 l 0.0155,-0.403077 h 0.289388 v 2.738853 q 0,0.540019 -0.302307,0.855245 -0.302307,0.315227 -0.819072,0.315227 -0.291972,0 -0.558106,-0.131775 -0.26355,-0.129191 -0.415995,-0.346233 l 0.173116,-0.186035 q 0.328145,0.403077 0.780314,0.403077 0.387574,0 0.604615,-0.229961 0.217041,-0.227376 0.224793,-0.633036 v -0.3514 q -0.29714,0.413411 -0.865581,0.413411 -0.485759,0 -0.780315,-0.387573 -0.294555,-0.387574 -0.294555,-1.046449 z m 0.312642,0.05426 q 0,0.534851 0.214457,0.84491 0.214458,0.307475 0.604615,0.307475 0.571025,0 0.808737,-0.511597 v -1.299663 q -0.108521,-0.268718 -0.312643,-0.408244 -0.204122,-0.142111 -0.490926,-0.142111 -0.390158,0 -0.607199,0.307475 -0.217041,0.304891 -0.217041,0.901755 z"
           id="path618" />
        <path
           d="m 46.817877,13.64193 h -0.310059 v -2.795697 h 0.310059 z m -0.364319,-3.604433 q 0,-0.08785 0.05684,-0.1472784 0.05684,-0.062012 0.155029,-0.062012 0.09819,0 0.15503,0.062012 0.05943,0.059428 0.05943,0.1472784 0,0.08785 -0.05943,0.147277 -0.05684,0.05943 -0.15503,0.05943 -0.09819,0 -0.155029,-0.05943 -0.05684,-0.05943 -0.05684,-0.147277 z"
           id="path620" />
        <path
           d="m 47.952176,10.846233 0.01033,0.478007 q 0.157613,-0.258382 0.392741,-0.392741 0.235128,-0.136942 0.519348,-0.136942 0.449586,0 0.669211,0.253214 0.219625,0.253215 0.222208,0.759644 v 1.834515 h -0.307475 v -1.837098 q -0.0026,-0.374655 -0.160197,-0.558106 -0.155029,-0.183452 -0.498677,-0.183452 -0.286805,0 -0.509014,0.180868 -0.219625,0.178284 -0.325561,0.483175 V 13.64193 H 47.65762 v -2.795697 z"
           id="path622" />
        <path
           d="m 52.329172,13.64193 q -0.04651,-0.131775 -0.05943,-0.390157 -0.162781,0.211873 -0.415995,0.328145 -0.250631,0.113688 -0.532268,0.113688 -0.403076,0 -0.653707,-0.224792 -0.248047,-0.224793 -0.248047,-0.568441 0,-0.408244 0.338481,-0.645956 0.341064,-0.237712 0.948263,-0.237712 h 0.560689 v -0.31781 q 0,-0.299724 -0.186035,-0.470256 -0.183451,-0.173116 -0.537435,-0.173116 -0.322978,0 -0.534851,0.165365 -0.211874,0.165364 -0.211874,0.397908 l -0.310059,-0.0026 q 0,-0.333314 0.310059,-0.576193 0.310059,-0.245463 0.762228,-0.245463 0.467672,0 0.736389,0.235128 0.271302,0.232544 0.279053,0.651123 v 1.322918 q 0,0.40566 0.08527,0.607198 v 0.03101 z m -0.971517,-0.222209 q 0.310058,0 0.552938,-0.149862 0.245463,-0.149861 0.356567,-0.400492 v -0.61495 h -0.552938 q -0.462504,0.0052 -0.72347,0.170532 -0.260966,0.162781 -0.260966,0.449585 0,0.235128 0.173116,0.390158 0.1757,0.155029 0.454753,0.155029 z"
           id="path624" />
        <path
           d="M 53.745107,13.64193 H 53.435048 V 9.6731775 h 0.310059 z"
           id="path626" />
        <path
           d="m 56.352185,10.130514 v 0.715719 h 0.578776 v 0.253215 h -0.578776 v 1.862936 q 0,0.232544 0.08268,0.346233 0.08527,0.113688 0.281637,0.113688 0.07751,0 0.250631,-0.02584 l 0.01292,0.253214 q -0.12144,0.04393 -0.33073,0.04393 -0.31781,0 -0.462504,-0.183451 -0.144694,-0.186035 -0.144694,-0.545187 v -1.86552 h -0.514181 v -0.253215 h 0.514181 v -0.715719 z"
           id="path628" />
        <path
           d="m 57.917981,13.64193 h -0.310059 v -2.795697 h 0.310059 z m -0.364319,-3.604433 q 0,-0.08785 0.05684,-0.1472784 0.05684,-0.062012 0.15503,-0.062012 0.09819,0 0.155029,0.062012 0.05943,0.059428 0.05943,0.1472784 0,0.08785 -0.05943,0.147277 -0.05684,0.05943 -0.155029,0.05943 -0.09819,0 -0.15503,-0.05943 -0.05684,-0.05943 -0.05684,-0.147277 z"
           id="path630" />
        <path
           d="M 59.103955,13.64193 H 58.793897 V 9.6731775 h 0.310058 z"
           id="path632" />
        <path
           d="m 61.026321,13.693606 q -0.356568,0 -0.645956,-0.1757 -0.286804,-0.1757 -0.447001,-0.488342 -0.160197,-0.315227 -0.160197,-0.705384 v -0.111104 q 0,-0.403077 0.155029,-0.726055 0.157613,-0.322978 0.436666,-0.506429 0.279053,-0.186035 0.604615,-0.186035 0.509013,0 0.806153,0.348816 0.299723,0.346232 0.299723,0.948263 v 0.173116 h -1.994711 v 0.05943 q 0,0.475424 0.271301,0.793234 0.273885,0.315226 0.687297,0.315226 0.248047,0 0.436666,-0.09043 0.191203,-0.09043 0.346233,-0.289388 l 0.193786,0.147278 q -0.341064,0.49351 -0.989604,0.49351 z m -0.05684,-2.635499 q -0.348816,0 -0.589112,0.255798 -0.237711,0.255799 -0.289388,0.687297 h 1.676901 v -0.03359 q -0.01292,-0.403076 -0.22996,-0.656291 -0.217041,-0.253214 -0.568441,-0.253214 z"
           id="path634" />
      </g>
      <g
         id="g1394"
         transform="translate(-20.459077)">
        <path
           id="circle1388"
           style="fill:#0d0f2b;fill-opacity:1;stroke-width:0.600001;stroke-linecap:round;stroke-linejoin:round;paint-order:markers fill stroke;stop-color:#000000"
           d="m 62.790587,19.098608 a 6.2419643,6.2419643 0 0 0 -6.241996,6.24148 6.2419643,6.2419643 0 0 0 6.241996,6.241996 6.2419643,6.2419643 0 0 0 6.241996,-6.241996 6.2419643,6.2419643 0 0 0 -6.241996,-6.24148 z m -0.122473,2.618962 c 0.645895,0 1.154827,0.162865 1.526522,0.488859 0.374741,0.322948 0.562239,0.770811 0.562239,1.343587 0,0.332089 -0.09429,0.680848 -0.283186,1.046448 -0.185848,0.362555 -0.492272,0.775589 -0.918807,1.238684 l -1.626774,1.740979 h 3.089217 v 0.886768 h -4.474146 v -0.763261 l 2.216402,-2.417424 c 0.319902,-0.356461 0.547042,-0.653776 0.681096,-0.891418 0.1371,-0.240688 0.205672,-0.481233 0.205672,-0.72192 0,-0.316854 -0.09,-0.572924 -0.269751,-0.767912 -0.176707,-0.194988 -0.415647,-0.292488 -0.717269,-0.292488 -0.359508,0 -0.638607,0.109817 -0.836641,0.329179 -0.198034,0.21936 -0.29714,0.519368 -0.29714,0.900203 h -1.110526 c 0,-0.405209 0.0916,-0.768976 0.274401,-1.091923 0.185848,-0.325995 0.449421,-0.578856 0.79065,-0.75861 0.344275,-0.179753 0.740179,-0.269751 1.188041,-0.269751 z" />
      </g>
    </g>
    <g
       id="g1420"
       transform="translate(-6.221747,81.913461)">
      <g
         aria-label="Cloned pattern"
         transform="translate(14.808418,13.656929)"
         id="text1410"
         style="font-weight:300;font-size:5.29167px;line-height:1.25;font-family:Roboto;-inkscape-font-specification:'Roboto Light';letter-spacing:0px;word-spacing:0px;white-space:pre;shape-inside:url(#rect1422);display:inline">
        <path
           d="m 39.725283,12.468874 q -0.0646,0.594279 -0.426331,0.909506 -0.359152,0.315226 -0.958599,0.315226 -0.418579,0 -0.741557,-0.209289 -0.320394,-0.20929 -0.496094,-0.591696 -0.1757,-0.38499 -0.178284,-0.8785 v -0.488342 q 0,-0.501262 0.1757,-0.888835 0.1757,-0.387574 0.503846,-0.596864 0.330729,-0.2118731 0.759644,-0.2118731 0.604614,0 0.953431,0.3281451 0.3514,0.325562 0.408244,0.901755 h -0.320394 q -0.118856,-0.958599 -1.041281,-0.958599 -0.511597,0 -0.816488,0.382406 -0.302308,0.382406 -0.302308,1.056784 v 0.45992 q 0,0.651124 0.294556,1.038697 0.29714,0.387574 0.800985,0.387574 0.498678,0 0.751893,-0.237712 0.253215,-0.240296 0.312643,-0.718303 z"
           id="path637" />
        <path
           d="M 40.771731,13.64193 H 40.461672 V 9.6731775 h 0.310059 z"
           id="path639" />
        <path
           d="m 41.440941,12.20274 q 0,-0.403076 0.155029,-0.726054 0.157614,-0.322978 0.441834,-0.501262 0.286805,-0.180867 0.64854,-0.180867 0.558106,0 0.904338,0.392741 0.346232,0.390157 0.346232,1.036113 v 0.0646 q 0,0.40566 -0.157613,0.731221 -0.155029,0.322978 -0.43925,0.498678 -0.284221,0.1757 -0.64854,0.1757 -0.555522,0 -0.904338,-0.390157 -0.346232,-0.392741 -0.346232,-1.038697 z m 0.310059,0.08527 q 0,0.501261 0.258382,0.824239 0.260966,0.320394 0.682129,0.320394 0.41858,0 0.676962,-0.320394 0.260966,-0.322978 0.260966,-0.850078 v -0.05943 q 0,-0.320394 -0.118856,-0.586527 -0.118856,-0.266134 -0.333313,-0.410828 -0.214457,-0.147278 -0.490926,-0.147278 -0.413412,0 -0.674378,0.325561 Q 41.751,11.706646 41.751,12.231162 Z"
           id="path641" />
        <path
           d="m 44.869675,10.846233 0.01033,0.478007 q 0.157613,-0.258382 0.392741,-0.392741 0.235128,-0.136942 0.519348,-0.136942 0.449586,0 0.669211,0.253214 0.219625,0.253215 0.222208,0.759644 v 1.834515 h -0.307474 v -1.837098 q -0.0026,-0.374655 -0.160198,-0.558106 -0.155029,-0.183452 -0.498677,-0.183452 -0.286805,0 -0.509014,0.180868 -0.219625,0.178284 -0.325561,0.483175 v 1.914613 h -0.307475 v -2.795697 z"
           id="path643" />
        <path
           d="m 48.564541,13.693606 q -0.356567,0 -0.645955,-0.1757 -0.286805,-0.1757 -0.447002,-0.488342 -0.160197,-0.315227 -0.160197,-0.705384 v -0.111104 q 0,-0.403077 0.15503,-0.726055 0.157613,-0.322978 0.436666,-0.506429 0.279053,-0.186035 0.604614,-0.186035 0.509013,0 0.806153,0.348816 0.299724,0.346232 0.299724,0.948263 v 0.173116 h -1.994712 v 0.05943 q 0,0.475424 0.271302,0.793234 0.273885,0.315226 0.687297,0.315226 0.248047,0 0.436666,-0.09043 0.191203,-0.09043 0.346232,-0.289388 l 0.193787,0.147278 q -0.341065,0.49351 -0.989605,0.49351 z m -0.05684,-2.635499 q -0.348816,0 -0.589111,0.255798 -0.237712,0.255799 -0.289389,0.687297 h 1.676902 v -0.03359 q -0.01292,-0.403076 -0.229961,-0.656291 -0.217041,-0.253214 -0.568441,-0.253214 z"
           id="path645" />
        <path
           d="m 50.091582,12.218243 q 0,-0.651123 0.289388,-1.036113 0.291972,-0.387573 0.79065,-0.387573 0.565857,0 0.862997,0.447001 V 9.6731775 h 0.307474 V 13.64193 h -0.289388 l -0.01292,-0.372071 q -0.297139,0.423747 -0.873332,0.423747 -0.483175,0 -0.780315,-0.387573 -0.294555,-0.390157 -0.294555,-1.051616 z m 0.312642,0.05426 q 0,0.534851 0.214457,0.84491 0.214458,0.307475 0.604615,0.307475 0.571025,0 0.811321,-0.503846 v -1.312582 q -0.240296,-0.545187 -0.806153,-0.545187 -0.390158,0 -0.607199,0.307475 -0.217041,0.304891 -0.217041,0.901755 z"
           id="path647" />
        <path
           d="m 56.690666,12.272504 q 0,0.653707 -0.289388,1.038696 -0.289389,0.382406 -0.775147,0.382406 -0.573609,0 -0.8785,-0.403076 v 1.42627 h -0.307475 v -3.870567 h 0.286804 l 0.0155,0.395325 q 0.302308,-0.447001 0.875916,-0.447001 0.501262,0 0.785483,0.379822 0.286804,0.379822 0.286804,1.0542 z m -0.310059,-0.05426 q 0,-0.534851 -0.219625,-0.84491 -0.219625,-0.310059 -0.612366,-0.310059 -0.284221,0 -0.488343,0.136943 -0.204122,0.136943 -0.312642,0.397909 v 1.341004 q 0.111104,0.240296 0.31781,0.366903 0.206706,0.126607 0.488343,0.126607 0.390157,0 0.607198,-0.310059 0.219625,-0.312642 0.219625,-0.904338 z"
           id="path649" />
        <path
           d="m 59.140129,13.64193 q -0.04651,-0.131775 -0.05943,-0.390157 -0.162781,0.211873 -0.415995,0.328145 -0.250631,0.113688 -0.532268,0.113688 -0.403076,0 -0.653707,-0.224792 -0.248047,-0.224793 -0.248047,-0.568441 0,-0.408244 0.338481,-0.645956 0.341064,-0.237712 0.948263,-0.237712 h 0.560689 v -0.31781 q 0,-0.299724 -0.186035,-0.470256 -0.183451,-0.173116 -0.537435,-0.173116 -0.322978,0 -0.534852,0.165365 -0.211873,0.165364 -0.211873,0.397908 l -0.310059,-0.0026 q 0,-0.333314 0.310059,-0.576193 0.310059,-0.245463 0.762228,-0.245463 0.467672,0 0.736389,0.235128 0.271302,0.232544 0.279053,0.651123 v 1.322918 q 0,0.40566 0.08527,0.607198 v 0.03101 z m -0.971517,-0.222209 q 0.310058,0 0.552938,-0.149862 0.245463,-0.149861 0.356567,-0.400492 v -0.61495 h -0.552938 q -0.462504,0.0052 -0.72347,0.170532 -0.260966,0.162781 -0.260966,0.449585 0,0.235128 0.173116,0.390158 0.1757,0.155029 0.454753,0.155029 z"
           id="path651" />
        <path
           d="m 60.690424,10.130514 v 0.715719 h 0.578777 v 0.253215 h -0.578777 v 1.862936 q 0,0.232544 0.08268,0.346233 0.08527,0.113688 0.281637,0.113688 0.07751,0 0.25063,-0.02584 l 0.01292,0.253214 q -0.12144,0.04393 -0.33073,0.04393 -0.31781,0 -0.462504,-0.183451 -0.144694,-0.186035 -0.144694,-0.545187 v -1.86552 h -0.514181 v -0.253215 h 0.514181 v -0.715719 z"
           id="path653" />
        <path
           d="m 62.39058,10.130514 v 0.715719 h 0.578776 v 0.253215 H 62.39058 v 1.862936 q 0,0.232544 0.08268,0.346233 0.08527,0.113688 0.281637,0.113688 0.07751,0 0.250631,-0.02584 l 0.01292,0.253214 q -0.12144,0.04393 -0.33073,0.04393 -0.31781,0 -0.462504,-0.183451 -0.144694,-0.186035 -0.144694,-0.545187 v -1.86552 H 61.56634 v -0.253215 h 0.514181 v -0.715719 z"
           id="path655" />
        <path
           d="m 64.692766,13.693606 q -0.356568,0 -0.645956,-0.1757 -0.286804,-0.1757 -0.447001,-0.488342 -0.160197,-0.315227 -0.160197,-0.705384 v -0.111104 q 0,-0.403077 0.155029,-0.726055 0.157613,-0.322978 0.436666,-0.506429 0.279053,-0.186035 0.604615,-0.186035 0.509013,0 0.806153,0.348816 0.299723,0.346232 0.299723,0.948263 v 0.173116 h -1.994711 v 0.05943 q 0,0.475424 0.271301,0.793234 0.273885,0.315226 0.687297,0.315226 0.248047,0 0.436666,-0.09043 0.191203,-0.09043 0.346232,-0.289388 l 0.193787,0.147278 q -0.341065,0.49351 -0.989604,0.49351 z m -0.05684,-2.635499 q -0.348816,0 -0.589112,0.255798 -0.237712,0.255799 -0.289388,0.687297 h 1.676901 v -0.03359 q -0.01292,-0.403076 -0.22996,-0.656291 -0.217041,-0.253214 -0.568441,-0.253214 z"
           id="path657" />
        <path
           d="m 67.63574,11.109783 q -0.09819,-0.01809 -0.20929,-0.01809 -0.289388,0 -0.490926,0.162781 -0.198954,0.160197 -0.284221,0.467672 v 1.919781 h -0.307475 v -2.795697 h 0.302308 l 0.0052,0.444418 q 0.245464,-0.496094 0.788066,-0.496094 0.129192,0 0.204122,0.03359 z"
           id="path659" />
        <path
           d="m 68.418639,10.846233 0.01033,0.478007 q 0.157613,-0.258382 0.392741,-0.392741 0.235128,-0.136942 0.519349,-0.136942 0.449585,0 0.66921,0.253214 0.219625,0.253215 0.222209,0.759644 v 1.834515 h -0.307475 v -1.837098 q -0.0026,-0.374655 -0.160197,-0.558106 -0.15503,-0.183452 -0.498678,-0.183452 -0.286805,0 -0.509014,0.180868 -0.219624,0.178284 -0.325561,0.483175 v 1.914613 h -0.307475 v -2.795697 z"
           id="path661" />
      </g>
      <g
         id="g1418"
         transform="translate(-20.459077)">
        <path
           id="circle1412"
           style="fill:#0d0f2b;stroke-width:0.600001;stroke-linecap:round;stroke-linejoin:round;paint-order:markers fill stroke;stop-color:#000000;fill-opacity:1"
           d="M 62.790248 19.098461 A 6.2419643 6.2419643 0 0 0 56.548768 25.340457 A 6.2419643 6.2419643 0 0 0 62.790248 31.582454 A 6.2419643 6.2419643 0 0 0 69.032244 25.340457 A 6.2419643 6.2419643 0 0 0 62.790248 19.098461 z M 62.76751 21.934464 C 63.431686 21.934464 63.952935 22.102142 64.330722 22.437275 C 64.711557 22.769364 64.901747 23.232235 64.901747 23.826338 C 64.901747 24.124912 64.80585 24.406703 64.613909 24.671764 C 64.425015 24.933779 64.179657 25.13199 63.878037 25.266043 C 64.243637 25.390957 64.521132 25.587564 64.710027 25.855671 C 64.901967 26.12378 64.997865 26.443609 64.997865 26.815303 C 64.997865 27.412452 64.79215 27.887641 64.380848 28.241056 C 63.972594 28.59447 63.434732 28.771256 62.76751 28.771256 C 62.127708 28.771256 61.603768 28.60037 61.195513 28.259142 C 60.787258 27.917915 60.583147 27.46415 60.583147 26.897468 L 61.693674 26.897468 C 61.693674 27.189949 61.791175 27.427287 61.986163 27.610086 C 62.184196 27.792888 62.449375 27.884488 62.781463 27.884488 C 63.125737 27.884488 63.396815 27.792888 63.59485 27.610086 C 63.792883 27.427287 63.891989 27.162624 63.891989 26.815303 C 63.891989 26.464935 63.788071 26.194944 63.580897 26.00605 C 63.373723 25.817155 63.06621 25.722863 62.657956 25.722863 L 62.004249 25.722863 L 62.004249 24.845397 L 62.680694 24.845397 C 63.021922 24.842331 63.291912 24.753938 63.489947 24.580297 C 63.691027 24.406638 63.79122 24.15538 63.79122 23.826338 C 63.79122 23.509483 63.70764 23.264126 63.540073 23.090466 C 63.375552 22.913758 63.12269 22.825365 62.781463 22.825365 C 62.482888 22.825365 62.23753 22.912154 62.04559 23.085815 C 61.85365 23.256429 61.757753 23.480361 61.757753 23.757608 L 60.647226 23.757608 C 60.647226 23.416381 60.737223 23.105661 60.916977 22.825365 C 61.099778 22.545072 61.35264 22.327556 61.675587 22.172175 C 62.001582 22.013748 62.365348 21.934464 62.76751 21.934464 z " />
      </g>
    </g>
    <rect
       y="42.628372"
       x="30.000172"
       height="43.215481"
       width="43.215481"
       id="rect8580-7"
       style="fill:#0d0f2b;fill-opacity:1;stroke:none;stroke-width:0.288103;stroke-linecap:butt;stroke-linejoin:round;stroke-miterlimit:4;stroke-dasharray:none;stroke-dashoffset:0;stroke-opacity:1;marker:none;paint-order:normal" />
    <g
       id="g6127"
       transform="matrix(1.1597017,0,0,1.1597017,-8.2418668,-10.258612)">
      <g
         id="g6053"
         style="stroke-width:0.38803082;stroke-dasharray:none">
        <path
           inkscape:connector-curvature="0"
           id="path5240-7-5"
           d="m 50.576426,64.663131 -2.254432,-2.254545 0.427254,-1.031397 1.031405,-0.427188 2.254432,2.254544 3.18834,7.6e-5 0.427182,1.031423 -0.427244,1.031385 -1.125524,-2.9e-5 -2.062801,-3.7e-5 -2.254551,2.25443 -1.031398,-0.427243 -0.427182,-1.031419 2.254538,-2.254425 7.6e-5,-3.188331 1.031418,-0.427194 1.031384,0.427247 -7.7e-5,3.188331 2.254434,2.254545 -0.427244,1.031386 -1.031417,0.427198 -2.254432,-2.254546 -3.188313,-7.6e-5 -0.427208,-1.031405 0.427255,-1.031398 3.188326,7.6e-5 2.254551,-2.254433 1.031386,0.42725 0.427194,1.031411 -2.254549,2.254434 -7.6e-5,3.188322 -1.031416,0.427199 -1.031386,-0.427252 z"
           style="fill:none;fill-opacity:0;stroke:#ffffff;stroke-width:0.38803082;stroke-linecap:butt;stroke-linejoin:miter;stroke-miterlimit:4;stroke-dasharray:none;stroke-dashoffset:0;stroke-opacity:1" />
        <path
           sodipodi:nodetypes="cc"
           inkscape:transform-center-y="-12.834291"
           inkscape:transform-center-x="-36.782933"
           inkscape:connector-curvature="0"
           id="path5293-2-8"
           d="m 54.466584,61.377337 4.879438,2.019454"
           style="fill:none;fill-opacity:0;stroke:#ffffff;stroke-width:0.38803082;stroke-linecap:butt;stroke-linejoin:miter;stroke-miterlimit:4;stroke-dasharray:none;stroke-dashoffset:0;stroke-opacity:1" />
        <path
           sodipodi:nodetypes="cc"
           inkscape:transform-center-y="-36.782348"
           inkscape:transform-center-x="-12.836318"
           style="fill:none;fill-opacity:0;stroke:#ffffff;stroke-width:0.38803082;stroke-linecap:butt;stroke-linejoin:miter;stroke-miterlimit:4;stroke-dasharray:none;stroke-dashoffset:0;stroke-opacity:1"
           d="M 54.466584,61.377337 52.447426,56.497779"
           id="path5295-0-2"
           inkscape:connector-curvature="0" />
        <path
           sodipodi:nodetypes="ccccccccccccccccccccccccccc"
           inkscape:connector-curvature="0"
           id="path5305-6-0"
           d="m 48.028269,57.820007 c -0.617105,0.626138 -0.799521,1.560825 -0.463118,2.373047 -1.116371,-0.462467 -2.396266,0.06763 -2.85872,1.184009 -0.336449,0.812202 -0.154084,1.746901 0.462994,2.373065 0.205423,0.208497 0.450641,0.3736 0.721074,0.485597 -0.06982,0.03034 -0.140153,0.0629 -0.197821,0.09363 -0.979653,0.524433 -1.420585,1.716824 -0.986405,2.765093 0.462397,1.116399 1.742284,1.646554 2.858672,1.184149 -0.462472,1.116369 0.06762,2.396276 1.184002,2.858727 0.812204,0.336446 1.746904,0.154078 2.373079,-0.462997 0.208462,-0.205458 0.373587,-0.450647 0.485589,-0.721062 0.01886,0.0441 0.03867,0.08869 0.0567,0.125675 0.503509,1.029917 1.728369,1.503239 2.802027,1.058528 0.270402,-0.11201 0.515588,-0.277146 0.72104,-0.485619 0.617104,-0.626138 0.799521,-1.560825 0.463106,-2.37304 1.116371,0.462466 2.396267,-0.06763 2.858733,-1.184013 0.336437,-0.812198 0.154072,-1.746892 -0.462995,-2.373066 -0.205436,-0.208493 -0.450655,-0.373596 -0.721073,-0.485598 v 0 c 1.116404,-0.462403 1.646612,-1.74232 1.1842,-2.858713 -0.462397,-1.116397 -1.742259,-1.646569 -2.858648,-1.184164 0.462461,-1.116363 -0.06764,-2.39626 -1.184013,-2.858717 -0.812203,-0.336444 -1.746905,-0.154084 -2.373066,0.462989 -0.208464,0.205458 -0.3736,0.450655 -0.485601,0.721072 -0.03782,-0.08615 -0.07896,-0.172725 -0.118591,-0.243128 -0.536542,-0.947839 -1.708173,-1.368514 -2.740124,-0.941085 -0.270403,0.112009 -0.515602,0.27715 -0.721041,0.485617 z"
           style="fill:none;fill-opacity:0;fill-rule:evenodd;stroke:#ffffff;stroke-width:0.38803082;stroke-linecap:butt;stroke-linejoin:miter;stroke-miterlimit:4;stroke-dasharray:none;stroke-dashoffset:0;stroke-opacity:1;marker:none" />
        <path
           sodipodi:nodetypes="cc"
           inkscape:connector-curvature="0"
           id="path5348-1-9"
           d="m 48.749248,61.377189 -4.879555,2.019185"
           style="fill:none;fill-opacity:0;stroke:#ffffff;stroke-width:0.38803082;stroke-linecap:butt;stroke-linejoin:miter;stroke-miterlimit:4;stroke-dasharray:none;stroke-dashoffset:0;stroke-opacity:1"
           inkscape:transform-center-x="36.782267"
           inkscape:transform-center-y="-12.836196" />
        <path
           sodipodi:nodetypes="cc"
           inkscape:transform-center-y="12.834296"
           inkscape:transform-center-x="36.782951"
           inkscape:connector-curvature="0"
           id="path5354-7-0"
           d="M 48.74909,67.094539 43.869634,65.075084"
           style="fill:none;fill-opacity:0;stroke:#ffffff;stroke-width:0.38803082;stroke-linecap:butt;stroke-linejoin:miter;stroke-miterlimit:4;stroke-dasharray:none;stroke-dashoffset:0;stroke-opacity:1" />
        <path
           sodipodi:nodetypes="cc"
           inkscape:transform-center-y="36.782331"
           inkscape:transform-center-x="12.836286"
           style="fill:none;fill-opacity:0;stroke:#ffffff;stroke-width:0.38803082;stroke-linecap:butt;stroke-linejoin:miter;stroke-miterlimit:4;stroke-dasharray:none;stroke-dashoffset:0;stroke-opacity:1"
           d="m 48.749089,67.094537 2.019155,4.879553"
           id="path5356-4-3"
           inkscape:connector-curvature="0" />
        <path
           sodipodi:nodetypes="cc"
           style="fill:none;fill-opacity:0;stroke:#ffffff;stroke-width:0.38803082;stroke-linecap:butt;stroke-linejoin:miter;stroke-miterlimit:4;stroke-dasharray:none;stroke-dashoffset:0;stroke-opacity:1"
           d="m 57.671604,59.357254 -2.020997,4.87879"
           id="path4193-0-2"
           inkscape:connector-curvature="0"
           inkscape:transform-center-x="-77.610088"
           inkscape:transform-center-y="-33.859727" />
        <path
           inkscape:transform-center-y="-77.608142"
           inkscape:transform-center-x="-33.863911"
           inkscape:connector-curvature="0"
           id="path4481-5-0"
           d="m 56.486831,58.172429 -4.878879,2.020746"
           style="fill:none;fill-opacity:0;stroke:#ffffff;stroke-width:0.38803082;stroke-linecap:butt;stroke-linejoin:miter;stroke-miterlimit:4;stroke-dasharray:none;stroke-dashoffset:0;stroke-opacity:1"
           sodipodi:nodetypes="cc" />
        <path
           inkscape:transform-center-y="77.61007"
           inkscape:transform-center-x="-33.859699"
           inkscape:connector-curvature="0"
           id="path4499-4-0"
           d="m 56.486509,70.299701 -4.87877,-2.020996"
           style="fill:none;fill-opacity:0;stroke:#ffffff;stroke-width:0.38803082;stroke-linecap:butt;stroke-linejoin:miter;stroke-miterlimit:4;stroke-dasharray:none;stroke-dashoffset:0;stroke-opacity:1"
           sodipodi:nodetypes="cc" />
        <path
           id="path4501-1-6"
           style="fill:none;fill-opacity:0;stroke:#ffffff;stroke-width:0.38803082;stroke-linecap:butt;stroke-linejoin:miter;stroke-miterlimit:4;stroke-dasharray:none;stroke-dashoffset:0;stroke-opacity:1"
           d="m 52.446976,71.97413 2.01946,-4.879453"
           inkscape:connector-curvature="0"
           sodipodi:nodetypes="cc"
           inkscape:transform-center-x="-29.160686"
           inkscape:transform-center-y="71.050238" />
        <path
           sodipodi:nodetypes="cc"
           style="fill:none;fill-opacity:0;stroke:#ffffff;stroke-width:0.38803082;stroke-linecap:butt;stroke-linejoin:miter;stroke-miterlimit:4;stroke-dasharray:none;stroke-dashoffset:0;stroke-opacity:1"
           d="M 57.671343,69.114935 55.650461,64.236103"
           id="path4517-7-2"
           inkscape:connector-curvature="0"
           inkscape:transform-center-x="-77.60767"
           inkscape:transform-center-y="33.864076" />
        <path
           sodipodi:nodetypes="cc"
           inkscape:connector-curvature="0"
           d="m 59.345962,65.075496 -4.879524,2.019188"
           style="fill:none;fill-opacity:0;stroke:#ffffff;stroke-width:0.38803082;stroke-linecap:butt;stroke-linejoin:miter;stroke-miterlimit:4;stroke-dasharray:none;stroke-dashoffset:0;stroke-opacity:1"
           id="path4519-1-5"
           inkscape:transform-center-x="-71.048548"
           inkscape:transform-center-y="29.164556" />
        <path
           sodipodi:nodetypes="cc"
           style="fill:none;fill-opacity:0;stroke:#ffffff;stroke-width:0.38803082;stroke-linecap:butt;stroke-linejoin:miter;stroke-miterlimit:4;stroke-dasharray:none;stroke-dashoffset:0;stroke-opacity:1"
           d="m 45.544052,69.114618 2.021014,-4.878785"
           id="path4535-2-7"
           inkscape:connector-curvature="0"
           inkscape:transform-center-x="77.610098"
           inkscape:transform-center-y="33.859724" />
        <path
           inkscape:transform-center-y="77.608091"
           inkscape:transform-center-x="33.86389"
           inkscape:connector-curvature="0"
           id="path4553-5-9"
           d="M 46.728826,70.299444 51.60773,68.278686"
           style="fill:none;fill-opacity:0;stroke:#ffffff;stroke-width:0.38803082;stroke-linecap:butt;stroke-linejoin:miter;stroke-miterlimit:4;stroke-dasharray:none;stroke-dashoffset:0;stroke-opacity:1"
           sodipodi:nodetypes="cc" />
        <path
           inkscape:transform-center-y="-77.610061"
           inkscape:transform-center-x="33.859709"
           inkscape:connector-curvature="0"
           id="path4571-3-0"
           d="m 46.729147,58.172167 4.878802,2.021001"
           style="fill:none;fill-opacity:0;stroke:#ffffff;stroke-width:0.38803082;stroke-linecap:butt;stroke-linejoin:miter;stroke-miterlimit:4;stroke-dasharray:none;stroke-dashoffset:0;stroke-opacity:1"
           sodipodi:nodetypes="cc" />
        <path
           id="path4573-9-9"
           style="fill:none;fill-opacity:0;stroke:#ffffff;stroke-width:0.38803082;stroke-linecap:butt;stroke-linejoin:miter;stroke-miterlimit:4;stroke-dasharray:none;stroke-dashoffset:0;stroke-opacity:1"
           d="m 50.76868,56.497746 -2.019432,4.879443"
           inkscape:connector-curvature="0"
           sodipodi:nodetypes="cc"
           inkscape:transform-center-x="29.160697"
           inkscape:transform-center-y="-71.050234" />
        <path
           sodipodi:nodetypes="cc"
           style="fill:none;fill-opacity:0;stroke:#ffffff;stroke-width:0.38803082;stroke-linecap:butt;stroke-linejoin:miter;stroke-miterlimit:4;stroke-dasharray:none;stroke-dashoffset:0;stroke-opacity:1"
           d="m 45.544325,59.356928 2.020888,4.878846"
           id="path4589-3-5"
           inkscape:connector-curvature="0"
           inkscape:transform-center-x="77.607678"
           inkscape:transform-center-y="-33.864072" />
      </g>
      <g
         id="g6080">
        <circle
           r="0.41832492"
           cy="64.236115"
           cx="51.60791"
           id="path5021-7"
           style="fill:#1f6189;fill-opacity:1;stroke:none;stroke-width:0.106501;stroke-linecap:butt;stroke-linejoin:miter;stroke-miterlimit:4;stroke-dasharray:none;stroke-dashoffset:0;stroke-opacity:1;marker:none" />
        <circle
           inkscape:transform-center-x="72.81015"
           style="fill:#1f6189;fill-opacity:1;stroke:none;stroke-width:0.106501;stroke-linecap:butt;stroke-linejoin:miter;stroke-miterlimit:4;stroke-dasharray:none;stroke-dashoffset:0;stroke-opacity:1;marker:none"
           id="circle5023-0"
           cx="41.119492"
           cy="64.236115"
           r="0.41832492" />
        <circle
           inkscape:transform-center-y="-18.844645"
           transform="rotate(15.000001)"
           r="0.41832492"
           cy="48.690212"
           cx="55.986526"
           id="circle5025-1"
           style="fill:#1f6189;fill-opacity:1;stroke:none;stroke-width:0.106501;stroke-linecap:butt;stroke-linejoin:miter;stroke-miterlimit:4;stroke-dasharray:none;stroke-dashoffset:0;stroke-opacity:1;marker:none"
           inkscape:transform-center-x="70.32921" />
        <circle
           inkscape:transform-center-x="63.05545"
           style="fill:#1f6189;fill-opacity:1;stroke:none;stroke-width:0.106501;stroke-linecap:butt;stroke-linejoin:miter;stroke-miterlimit:4;stroke-dasharray:none;stroke-dashoffset:0;stroke-opacity:1;marker:none"
           id="circle5027-8"
           cx="66.323402"
           cy="29.826153"
           r="0.41832495"
           transform="rotate(29.999999)"
           inkscape:transform-center-y="-36.405072" />
        <circle
           inkscape:transform-center-y="-51.48455"
           transform="rotate(45)"
           r="0.41832492"
           cy="8.9294882"
           cx="71.425674"
           id="circle5029-0"
           style="fill:#1f6189;fill-opacity:1;stroke:none;stroke-width:0.106501;stroke-linecap:butt;stroke-linejoin:miter;stroke-miterlimit:4;stroke-dasharray:none;stroke-dashoffset:0;stroke-opacity:1;marker:none"
           inkscape:transform-center-x="51.484559" />
        <circle
           inkscape:transform-center-x="36.405081"
           style="fill:#1f6189;fill-opacity:1;stroke:none;stroke-width:0.106501;stroke-linecap:butt;stroke-linejoin:miter;stroke-miterlimit:4;stroke-dasharray:none;stroke-dashoffset:0;stroke-opacity:1;marker:none"
           id="circle5031-2"
           cx="70.945648"
           cy="-12.575706"
           r="0.41832495"
           transform="rotate(60.000001)"
           inkscape:transform-center-y="-63.055436" />
        <circle
           inkscape:transform-center-y="-70.329201"
           transform="rotate(74.999999)"
           r="0.41832492"
           cy="-33.223885"
           cx="64.916016"
           id="circle5033-1"
           style="fill:#1f6189;fill-opacity:1;stroke:none;stroke-width:0.106501;stroke-linecap:butt;stroke-linejoin:miter;stroke-miterlimit:4;stroke-dasharray:none;stroke-dashoffset:0;stroke-opacity:1;marker:none"
           inkscape:transform-center-x="18.844652" />
        <circle
           style="fill:#1f6189;fill-opacity:1;stroke:none;stroke-width:0.106501;stroke-linecap:butt;stroke-linejoin:miter;stroke-miterlimit:4;stroke-dasharray:none;stroke-dashoffset:0;stroke-opacity:1;marker:none"
           id="circle5035-9"
           cx="53.7477"
           cy="-51.60791"
           r="0.41832492"
           transform="rotate(90)"
           inkscape:transform-center-y="-72.810135" />
        <circle
           inkscape:transform-center-y="-70.329195"
           transform="rotate(105)"
           r="0.41832492"
           cy="-66.474945"
           cx="38.201794"
           id="circle5037-1"
           style="fill:#1f6189;fill-opacity:1;stroke:none;stroke-width:0.106501;stroke-linecap:butt;stroke-linejoin:miter;stroke-miterlimit:4;stroke-dasharray:none;stroke-dashoffset:0;stroke-opacity:1;marker:none"
           inkscape:transform-center-x="-18.844651" />
        <circle
           inkscape:transform-center-x="-36.405072"
           style="fill:#1f6189;fill-opacity:1;stroke:none;stroke-width:0.106501;stroke-linecap:butt;stroke-linejoin:miter;stroke-miterlimit:4;stroke-dasharray:none;stroke-dashoffset:0;stroke-opacity:1;marker:none"
           id="circle5039-6"
           cx="19.337732"
           cy="-76.811821"
           r="0.41832495"
           transform="rotate(120)"
           inkscape:transform-center-y="-63.05545" />
        <circle
           inkscape:transform-center-y="-51.48456"
           transform="rotate(135)"
           r="0.41832492"
           cy="-81.914093"
           cx="-1.5589325"
           id="circle5041-5"
           style="fill:#1f6189;fill-opacity:1;stroke:none;stroke-width:0.106501;stroke-linecap:butt;stroke-linejoin:miter;stroke-miterlimit:4;stroke-dasharray:none;stroke-dashoffset:0;stroke-opacity:1;marker:none"
           inkscape:transform-center-x="-51.484553" />
        <circle
           inkscape:transform-center-x="-63.055447"
           style="fill:#1f6189;fill-opacity:1;stroke:none;stroke-width:0.106501;stroke-linecap:butt;stroke-linejoin:miter;stroke-miterlimit:4;stroke-dasharray:none;stroke-dashoffset:0;stroke-opacity:1;marker:none"
           id="circle5043-1"
           cx="-23.064127"
           cy="-81.434059"
           r="0.41832495"
           transform="rotate(150)"
           inkscape:transform-center-y="-36.405078" />
        <circle
           inkscape:transform-center-y="-18.844664"
           transform="rotate(165)"
           r="0.41832492"
           cy="-75.404434"
           cx="-43.712303"
           id="circle5045-7"
           style="fill:#1f6189;fill-opacity:1;stroke:none;stroke-width:0.106501;stroke-linecap:butt;stroke-linejoin:miter;stroke-miterlimit:4;stroke-dasharray:none;stroke-dashoffset:0;stroke-opacity:1;marker:none"
           inkscape:transform-center-x="-70.329202" />
        <circle
           inkscape:transform-center-x="-72.810142"
           style="fill:#1f6189;fill-opacity:1;stroke:none;stroke-width:0.106501;stroke-linecap:butt;stroke-linejoin:miter;stroke-miterlimit:4;stroke-dasharray:none;stroke-dashoffset:0;stroke-opacity:1;marker:none"
           id="circle5047-9"
           cx="-62.096329"
           cy="-64.236115"
           r="0.41832492"
           transform="scale(-1)" />
        <circle
           inkscape:transform-center-x="-70.329184"
           inkscape:transform-center-y="18.844658"
           transform="rotate(-165)"
           r="0.41832492"
           cy="-48.690212"
           cx="-76.963364"
           id="circle5049-9"
           style="fill:#1f6189;fill-opacity:1;stroke:none;stroke-width:0.106501;stroke-linecap:butt;stroke-linejoin:miter;stroke-miterlimit:4;stroke-dasharray:none;stroke-dashoffset:0;stroke-opacity:1;marker:none" />
        <circle
           inkscape:transform-center-x="-63.055435"
           style="fill:#1f6189;fill-opacity:1;stroke:none;stroke-width:0.106501;stroke-linecap:butt;stroke-linejoin:miter;stroke-miterlimit:4;stroke-dasharray:none;stroke-dashoffset:0;stroke-opacity:1;marker:none"
           id="circle5051-3"
           cx="-87.30024"
           cy="-29.826151"
           r="0.41832495"
           transform="rotate(-150)"
           inkscape:transform-center-y="36.405064" />
        <circle
           inkscape:transform-center-y="51.484549"
           transform="rotate(-135)"
           r="0.41832492"
           cy="-8.9294863"
           cx="-92.402512"
           id="circle5053-8"
           style="fill:#1f6189;fill-opacity:1;stroke:none;stroke-width:0.106501;stroke-linecap:butt;stroke-linejoin:miter;stroke-miterlimit:4;stroke-dasharray:none;stroke-dashoffset:0;stroke-opacity:1;marker:none"
           inkscape:transform-center-x="-51.484561" />
        <circle
           inkscape:transform-center-x="-36.405085"
           style="fill:#1f6189;fill-opacity:1;stroke:none;stroke-width:0.106501;stroke-linecap:butt;stroke-linejoin:miter;stroke-miterlimit:4;stroke-dasharray:none;stroke-dashoffset:0;stroke-opacity:1;marker:none"
           id="circle5055-9"
           cx="-91.922485"
           cy="12.575707"
           r="0.41832495"
           transform="rotate(-120)"
           inkscape:transform-center-y="63.055442" />
        <circle
           inkscape:transform-center-y="70.329208"
           transform="rotate(-105)"
           r="0.41832492"
           cy="33.223885"
           cx="-85.892853"
           id="circle5057-5"
           style="fill:#1f6189;fill-opacity:1;stroke:none;stroke-width:0.106501;stroke-linecap:butt;stroke-linejoin:miter;stroke-miterlimit:4;stroke-dasharray:none;stroke-dashoffset:0;stroke-opacity:1;marker:none"
           inkscape:transform-center-x="-18.844653" />
        <circle
           inkscape:transform-center-x="-1.4144314e-05"
           style="fill:#1f6189;fill-opacity:1;stroke:none;stroke-width:0.106501;stroke-linecap:butt;stroke-linejoin:miter;stroke-miterlimit:4;stroke-dasharray:none;stroke-dashoffset:0;stroke-opacity:1;marker:none"
           id="circle5059-2"
           cx="-74.724533"
           cy="51.607914"
           r="0.41832492"
           transform="rotate(-90)"
           inkscape:transform-center-y="72.81015" />
        <circle
           inkscape:transform-center-y="70.329199"
           transform="rotate(-74.999999)"
           r="0.41832492"
           cy="66.474945"
           cx="-59.178631"
           id="circle5061-8"
           style="fill:#1f6189;fill-opacity:1;stroke:none;stroke-width:0.106501;stroke-linecap:butt;stroke-linejoin:miter;stroke-miterlimit:4;stroke-dasharray:none;stroke-dashoffset:0;stroke-opacity:1;marker:none"
           inkscape:transform-center-x="18.844652" />
        <circle
           style="fill:#1f6189;fill-opacity:1;stroke:none;stroke-width:0.106501;stroke-linecap:butt;stroke-linejoin:miter;stroke-miterlimit:4;stroke-dasharray:none;stroke-dashoffset:0;stroke-opacity:1;marker:none"
           id="circle5063-5"
           cx="-40.314568"
           cy="76.811821"
           r="0.41832495"
           transform="rotate(-60.000001)"
           inkscape:transform-center-y="63.055416"
           inkscape:transform-center-x="36.40507" />
        <circle
           inkscape:transform-center-x="51.48456"
           style="fill:#1f6189;fill-opacity:1;stroke:none;stroke-width:0.106501;stroke-linecap:butt;stroke-linejoin:miter;stroke-miterlimit:4;stroke-dasharray:none;stroke-dashoffset:0;stroke-opacity:1;marker:none"
           id="circle5065-6"
           cx="-19.41791"
           cy="81.914093"
           r="0.41832492"
           transform="rotate(-45)"
           inkscape:transform-center-y="51.48455" />
        <circle
           inkscape:transform-center-y="36.405087"
           transform="rotate(-29.999999)"
           r="0.41832495"
           cy="81.434067"
           cx="2.0872867"
           id="circle5067-8"
           style="fill:#1f6189;fill-opacity:1;stroke:none;stroke-width:0.106501;stroke-linecap:butt;stroke-linejoin:miter;stroke-miterlimit:4;stroke-dasharray:none;stroke-dashoffset:0;stroke-opacity:1;marker:none"
           inkscape:transform-center-x="63.055432" />
        <circle
           inkscape:transform-center-x="70.3292"
           style="fill:#1f6189;fill-opacity:1;stroke:none;stroke-width:0.106501;stroke-linecap:butt;stroke-linejoin:miter;stroke-miterlimit:4;stroke-dasharray:none;stroke-dashoffset:0;stroke-opacity:1;marker:none"
           id="circle5069-0"
           cx="22.735466"
           cy="75.404434"
           r="0.41832492"
           transform="rotate(-15.000001)"
           inkscape:transform-center-y="18.844655" />
      </g>
    </g>
  </g>
</svg>
