<svg xmlns="http://www.w3.org/2000/svg" viewBox="0 0 180 180" aria-hidden="true">
  <g fill="none" stroke="#c88b53" stroke-width="3" stroke-linecap="round" stroke-linejoin="round">
    <path d="M90 8c9 25 24 40 50 50-26 10-41 25-50 50-9-25-24-40-50-50 26-10 41-25 50-50Z"/>
    <path d="M90 42c15 15 30 22 52 20-15 16-22 32-20 54-15-16-31-23-53-21 15-15 22-31 21-53Z"/>
    <path d="M90 42c-15 15-30 22-52 20 15 16 22 32 20 54 15-16 31-23 53-21-15-15-22-31-21-53Z"/>
    <circle cx="90" cy="90" r="18"/>
    <path d="M90 72v36M72 90h36M78 78l24 24M102 78l-24 24"/>
    <path d="M20 20c26 5 44-1 70-12M160 20c-26 5-44-1-70-12M20 160c26-5 44 1 70 12M160 160c-26-5-44 1-70 12"/>
  </g>
</svg>
