<svg xmlns="http://www.w3.org/2000/svg" viewBox="0 0 980 260" aria-hidden="true">
  <g fill="none" stroke="#c88b53" stroke-width="2" stroke-linecap="round" stroke-linejoin="round" opacity=".72">
    <path d="M26 235V97c0-28 22-50 50-50s50 22 50 50v138M126 235V96c0-28 22-50 50-50s50 22 50 50v139"/>
    <path d="M55 235V123c0-13 10-23 23-23s23 10 23 23v112M155 235V123c0-13 10-23 23-23s23 10 23 23v112"/>
    <path d="M666 235V108c0-34 28-62 62-62s62 28 62 62v127M790 235V91c0-24 20-44 44-44s44 20 44 44v144M878 235V112c0-28 23-51 51-51s51 23 51 51v123"/>
    <path d="M702 235V121c0-15 12-27 27-27s27 12 27 27v114M820 235V108c0-12 10-22 22-22s22 10 22 22v127M908 235V128c0-14 11-25 25-25s25 11 25 25v107"/>
    <path d="M654 235h326M18 235h220"/>
    <path d="M728 46c3-26 20-38 20-38s17 12 20 38M836 47c2-22 16-32 16-32s14 10 16 32M930 61c2-18 13-27 13-27s11 9 13 27"/>
    <path d="M696 78h96M810 75h88M886 92h94"/>
    <path d="M356 236V125c0-37 30-67 67-67s67 30 67 67v111M490 236V104c0-29 24-53 53-53s53 24 53 53v132"/>
    <path d="M391 236V137c0-17 14-31 31-31s31 14 31 31v99M523 236V119c0-14 11-25 25-25s25 11 25 25v117"/>
    <path d="M344 236h266M422 58c4-30 24-45 24-45s20 15 24 45M546 51c3-24 18-36 18-36s16 12 19 36"/>
    <path d="M374 92h102M513 84h83"/>
  </g>
</svg>
