<svg xmlns="http://www.w3.org/2000/svg" viewBox="0 0 760 260" aria-hidden="true">
  <g fill="none" stroke="#c88b53" stroke-width="2" opacity=".5">
    <path d="M111 92c22-29 56-45 98-48 32-2 57 8 76 30 29-16 61-18 98-8 22 6 46 18 72 36 24-23 54-33 91-29 48 6 85 31 112 76"/>
    <path d="M71 154c64-24 112-24 145 0 33 24 73 29 119 15 47-14 82-8 106 19 24 27 66 30 126 9 50-17 91-9 122 23"/>
    <path d="M145 58c-6 22-3 44 10 66 12 21 11 42-4 63M287 70c-22 31-25 64-10 99 12 27 8 50-12 71M466 95c-20 23-26 49-19 79 7 28-1 54-25 77M610 86c-18 28-16 56 6 84 19 24 22 48 9 72"/>
  </g>
  <g fill="#c88b53" opacity=".5">
    <circle cx="118" cy="93" r="4"/><circle cx="208" cy="45" r="4"/><circle cx="285" cy="73" r="4"/>
    <circle cx="387" cy="68" r="4"/><circle cx="456" cy="102" r="4"/><circle cx="552" cy="75" r="4"/>
    <circle cx="657" cy="151" r="4"/><circle cx="72" cy="154" r="4"/><circle cx="213" cy="153" r="4"/>
    <circle cx="337" cy="169" r="4"/><circle cx="444" cy="188" r="4"/><circle cx="565" cy="197" r="4"/>
    <circle cx="690" cy="220" r="4"/>
  </g>
</svg>
